;TYPE=PLATED
;Layer: PTH_Through
;EasyEDA Pro v2.1.49.573a4102.674264, 2024-03-15 18:46:33
;Gerber Generator version 0.3
M48
METRIC,LZ,000.00000
;Hole size 1 = 0.31000 METRIC
T01C0.31000
;Hole size 2 = 0.85000 METRIC
T02C0.85000
;Hole size 3 = 0.88500 METRIC
T03C0.88500
;Hole size 4 = 0.91440 METRIC
T04C0.91440
;Hole size 5 = 1.00000 METRIC
T05C1.00000
;Hole size 6 = 1.00000 METRIC
T06C1.00000
;Hole size 7 = 1.02001 METRIC
T07C1.02001
;Hole size 8 = 1.05000 METRIC
T08C1.05000
;Hole size 9 = 1.10002 METRIC
T09C1.10002
;Hole size 10 = 1.20000 METRIC
T10C1.20000
;Hole size 11 = 1.32000 METRIC
T11C1.32000
;Hole size 12 = 1.50002 METRIC
T12C1.50002
;Hole size 13 = 1.70000 METRIC
T13C1.70000
;Hole size 14 = 1.70002 METRIC
T14C1.70002
;Hole size 15 = 1.80000 METRIC
T15C1.80000
;Hole size 16 = 1.80000 METRIC
T16C1.80000
;Hole size 17 = 2.39000 METRIC
T17C2.39000
;Hole size 18 = 2.59999 METRIC
T18C2.59999
%
G05
G90
T01
X14922500Y-08864600
X14922500Y-08534400
X14922500Y-08229600
X14922500Y-07924800
X14922500Y-07620000
X14922500Y-07327900
X14922500Y-06965950
X03378200Y-09067800
X04089400Y-08940800
X02692400Y-06324600
X02819400Y-06324600
X02667000Y-04470400
X02743200Y-04597400
X01066800Y-06692900
X01447800Y-06692900
X03746500Y-06070600
X03746500Y-05740400
X02120900Y-05524500
X01435100Y-04546600
X01587500Y-04902200
X03098800Y-08712200
X06502400Y-16052800
X06502400Y-15773400
X08712200Y-15989300
X05511800Y-08191500
X05943600Y-03390900
X06959600Y-05499100
X04648200Y-06667500
X01054100Y-09842500
X00546100Y-09842500
X01955800Y-06692900
X03454400Y-06642100
X06629400Y-17030700
X06629400Y-17538700
X06629400Y-17932400
X06578600Y-18935700
X06591300Y-19443700
X06591300Y-19951700
X06197600Y-20472400
X08026400Y-20904200
X06805350Y-20305450
X08191500Y-14859000
X08407400Y-14084300
X08407400Y-13576300
X08407400Y-13068300
X08407400Y-12179300
X08407400Y-11163300
X08178800Y-11367795
X11595100Y-03746500
X11595100Y-03924300
X11595100Y-04089400
X11595100Y-04254500
X11595100Y-04432300
X08712200Y-08775700
X02209800Y-09626600
X07899400Y-07442200
X04826000Y-02120900
X04826000Y-02817713
X04826000Y-03467100
X04826000Y-04140200
X04826000Y-04813300
X05854700Y-01765300
X05854700Y-02438400
X05854700Y-03111500
X05854700Y-03784600
X05854700Y-04457700
X05943600Y-05207000
X01574800Y-09245600
X01701800Y-09321800
X01828800Y-09372600
X01955800Y-09423400
X02082800Y-09474200
X04089400Y-03759200
X01219200Y-09563100
X04800600Y-07099300
X01447800Y-09321800
X01193800Y-06819900
X01320800Y-06883400
X04114800Y-04584700
X01943100Y-05892800
X03060700Y-04597400
X03060700Y-04216400
X03937000Y-06248400
X04013200Y-06350000
X02466378Y-06996072
X04127500Y-06451600
X04991100Y-06451600
X02070100Y-03073400
X01917700Y-03213100
X01397000Y-03860800
X01397000Y-04267200
X01879600Y-02362200
X01397000Y-02362200
X01638300Y-01651000
X01638300Y-02476500
X01638300Y-03187700
X01638300Y-03975100
X01739900Y-03695700
X04533900Y-04483100
X03695700Y-01841500
X02095500Y-06489700
X02222500Y-06565900
X03937000Y-01625600
X03822700Y-01752600
X00939800Y-06972300
X04114800Y-05003800
X05511800Y-07645400
X00215900Y-09842500
X00101600Y-03022600
X01625600Y-07823200
X02844800Y-07835900
X05511800Y-09829800
X04495800Y-09385300
X01282700Y-01930400
X02857500Y-02705100
X04152900Y-02019300
T02
X10985500Y-00482600
X10985500Y-00982599
X12407900Y-00685800
X12407900Y-01185799
T03
X13436600Y-04508500
X13636600Y-04008501
T04
X01764589Y-11582400
X03264586Y-11582400
X01764589Y-13081000
X03264586Y-13081000
X01764589Y-14579600
X03264586Y-14579600
X01764589Y-16078200
X03264586Y-16078200
X01764589Y-17576800
X03264586Y-17576800
X01764589Y-19075400
X03264586Y-19075400
X01764589Y-20574000
X03264586Y-20574000
X13221411Y-19189700
X11721414Y-19189700
X13221411Y-17691100
X11721414Y-17691100
X13221411Y-16192500
X11721414Y-16192500
X13221411Y-14693900
X11721414Y-14693900
X13221411Y-13195300
X11721414Y-13195300
X13221411Y-11696700
X11721414Y-11696700
X14020800Y-07049211
X14020800Y-05549214
T05
X00210701Y-13597699
X00830699Y-13097700
X02259203Y-00508010
X02509177Y-00508010
X02759202Y-00508010
X03009224Y-00508010
X03259198Y-00508010
X03509223Y-00508010
X03759197Y-00508010
X04009222Y-00508010
X04259194Y-00508010
X04509219Y-00508010
X04759198Y-00508010
X05009220Y-00508010
X05259194Y-00508010
X00508102Y-01749229
X00507975Y-02999229
X00507873Y-02749230
X00508025Y-02499228
X00508051Y-02249228
X00508076Y-01999229
X00507975Y-03249229
X00507949Y-03499228
X00507924Y-03749228
X00507898Y-03999179
X00507873Y-04249217
X00507873Y-04499216
X07331530Y-05488573
X07585530Y-05488573
X07327900Y-03632200
X07581900Y-03632200
X07328865Y-01773258
X07582865Y-01773258
X07331530Y-04967873
X07585530Y-04967873
X07327900Y-03111500
X07581900Y-03111500
X07328865Y-01252558
X07582865Y-01252558
X09716464Y-00744058
X09462465Y-00744058
X09208465Y-00744058
X12674600Y-02006600
X12420600Y-02006600
X12674600Y-02527300
X12420600Y-02527300
X09195540Y-02634559
X08941541Y-02634559
X08687541Y-02634559
X10223500Y-06731000
X10198100Y-08712200
T06
X08686800Y-17424400
X08686800Y-17678400
X08686800Y-17932400
X08686800Y-18186400
X08686800Y-18440400
X08686800Y-18694400
X08686800Y-18948400
X08686800Y-19202400
X08686800Y-19456400
X06680200Y-13462000
X06680200Y-13208000
X06680200Y-12954000
X06680200Y-12700000
X06680200Y-12446000
X06680200Y-12192000
X06680200Y-11938000
X06680200Y-11684000
X06680200Y-11430000
T07
X05854700Y-06121400
X05600700Y-06121400
X05346700Y-06121400
X05092700Y-06121400
X04838700Y-06121400
T08
X13627100Y-02311400
X14377099Y-02311400
T09
X03315000Y-10934700
X01765000Y-10934700
X03315000Y-12433300
X01765000Y-12433300
X03315000Y-13931900
X01765000Y-13931900
X03315000Y-15430500
X01765000Y-15430500
X03315000Y-16929100
X01765000Y-16929100
X03315000Y-18427700
X01765000Y-18427700
X03315000Y-19926300
X01765000Y-19926300
X11671000Y-19837400
X13221000Y-19837400
X11671000Y-18338800
X13221000Y-18338800
X11671000Y-16840200
X13221000Y-16840200
X11671000Y-15341600
X13221000Y-15341600
X11671000Y-13843000
X13221000Y-13843000
X11671000Y-12344400
X13221000Y-12344400
X14744700Y-07340900
X14744700Y-05790900
T10
X14490700Y-04004500
X14490700Y-04254500
X14490700Y-04504499
X09144000Y-07429500
X09144000Y-07683500
X09144000Y-07937500
X09906000Y-07937500
X09906000Y-07683500
X09906000Y-07429500
X12611100Y-07708900
X12179805Y-07454913
X12178805Y-07962913
T11
X10769600Y-03136900
X10769600Y-03391899
X10769600Y-03646899
T12
X05410200Y-11696700
X03632200Y-10934700
X04394200Y-10934700
X05410200Y-10934700
X05410200Y-13195300
X03632200Y-12433300
X04394200Y-12433300
X05410200Y-12433300
X05410200Y-14693900
X03632200Y-13931900
X04394200Y-13931900
X05410200Y-13931900
X05410200Y-16192500
X03632200Y-15430500
X04394200Y-15430500
X05410200Y-15430500
X05410200Y-17691100
X03632200Y-16929100
X04394200Y-16929100
X05410200Y-16929100
X05410200Y-19189700
X03632200Y-18427700
X04394200Y-18427700
X05410200Y-18427700
X05410200Y-20688300
X03632200Y-19926300
X04394200Y-19926300
X05410200Y-19926300
X09575800Y-19075400
X11353800Y-19837400
X10591800Y-19837400
X09575800Y-19837400
X09575800Y-17576800
X11353800Y-18338800
X10591800Y-18338800
X09575800Y-18338800
X09575800Y-16078200
X11353800Y-16840200
X10591800Y-16840200
X09575800Y-16840200
X09575800Y-14579600
X11353800Y-15341600
X10591800Y-15341600
X09575800Y-15341600
X09575800Y-13081000
X11353800Y-13843000
X10591800Y-13843000
X09575800Y-13843000
X09575800Y-11582400
X11353800Y-12344400
X10591800Y-12344400
X09575800Y-12344400
X12471400Y-03197400
X12471400Y-03707399
X12471400Y-04217401
X12471400Y-04727400
T13
X13804900Y-07950200
X14020800Y-08953500
T14
X14020800Y-08661400
X14020800Y-08153400
T15
X00635000Y-14325600
X00635000Y-14721599
X00635000Y-15117598
X00635000Y-15513598
X00635000Y-15909597
X00635000Y-16305596
X00635000Y-16701595
X00635000Y-17097594
T16
X14363700Y-16789400
X14363700Y-16393401
X14363700Y-15997402
X14363700Y-15601402
X14363700Y-15205403
X14363700Y-14808200
X14363700Y-14412201
X14363700Y-14016202
X14363700Y-13620202
X14363700Y-13224203
T17
X10261600Y-04508500
X10261600Y-02272504
T18
X11760200Y-06438900
X11760200Y-08978895
M30