;TYPE=PLATED
;Layer: PTH_Through_Via
;EasyEDA Pro v2.1.49.573a4102.674264, 2024-03-15 18:46:33
;Gerber Generator version 0.3
M48
METRIC,LZ,000.00000
;Hole size 1 = 0.31000 METRIC
T01C0.31000
;Hole size 2 = 1.00000 METRIC
T02C1.00000
;Hole size 3 = 1.70000 METRIC
T03C1.70000
%
G05
G90
T01
X14922500Y-08864600
X14922500Y-08534400
X14922500Y-08229600
X14922500Y-07924800
X14922500Y-07620000
X14922500Y-07327900
X14922500Y-06965950
X03378200Y-09067800
X04089400Y-08940800
X02692400Y-06324600
X02819400Y-06324600
X02667000Y-04470400
X02743200Y-04597400
X01066800Y-06692900
X01447800Y-06692900
X03746500Y-06070600
X03746500Y-05740400
X02120900Y-05524500
X01435100Y-04546600
X01587500Y-04902200
X03098800Y-08712200
X06502400Y-16052800
X06502400Y-15773400
X08712200Y-15989300
X05511800Y-08191500
X05943600Y-03390900
X06959600Y-05499100
X04648200Y-06667500
X01054100Y-09842500
X00546100Y-09842500
X01955800Y-06692900
X03454400Y-06642100
X06629400Y-17030700
X06629400Y-17538700
X06629400Y-17932400
X06578600Y-18935700
X06591300Y-19443700
X06591300Y-19951700
X06197600Y-20472400
X08026400Y-20904200
X06805350Y-20305450
X08191500Y-14859000
X08407400Y-14084300
X08407400Y-13576300
X08407400Y-13068300
X08407400Y-12179300
X08407400Y-11163300
X08178800Y-11367795
X11595100Y-03746500
X11595100Y-03924300
X11595100Y-04089400
X11595100Y-04254500
X11595100Y-04432300
X08712200Y-08775700
X02209800Y-09626600
X07899400Y-07442200
X04826000Y-02120900
X04826000Y-02817713
X04826000Y-03467100
X04826000Y-04140200
X04826000Y-04813300
X05854700Y-01765300
X05854700Y-02438400
X05854700Y-03111500
X05854700Y-03784600
X05854700Y-04457700
X05943600Y-05207000
X01574800Y-09245600
X01701800Y-09321800
X01828800Y-09372600
X01955800Y-09423400
X02082800Y-09474200
X04089400Y-03759200
X01219200Y-09563100
X04800600Y-07099300
X01447800Y-09321800
X01193800Y-06819900
X01320800Y-06883400
X04114800Y-04584700
X01943100Y-05892800
X03060700Y-04597400
X03060700Y-04216400
X03937000Y-06248400
X04013200Y-06350000
X02466378Y-06996072
X04127500Y-06451600
X04991100Y-06451600
X02070100Y-03073400
X01917700Y-03213100
X01397000Y-03860800
X01397000Y-04267200
X01879600Y-02362200
X01397000Y-02362200
X01638300Y-01651000
X01638300Y-02476500
X01638300Y-03187700
X01638300Y-03975100
X01739900Y-03695700
X04533900Y-04483100
X03695700Y-01841500
X02095500Y-06489700
X02222500Y-06565900
X03937000Y-01625600
X03822700Y-01752600
X00939800Y-06972300
X04114800Y-05003800
X05511800Y-07645400
X00215900Y-09842500
X00101600Y-03022600
X01625600Y-07823200
X02844800Y-07835900
X05511800Y-09829800
X04495800Y-09385300
X01282700Y-01930400
X02857500Y-02705100
X04152900Y-02019300
T02
X10223500Y-06731000
X10198100Y-08712200
T03
X13804900Y-07950200
X14020800Y-08953500
M30