G04 Layer: BottomSolderMaskLayer*
G04 EasyEDA Pro v2.1.49.573a4102.674264, 2024-03-15 18:46:32*
G04 Gerber Generator version 0.3*
G04 Scale: 100 percent, Rotated: No, Reflected: No*
G04 Dimensions in millimeters*
G04 Leading zeros omitted, absolute positions, 3 integers and 5 decimals*
%FSLAX35Y35*%
%MOMM*%
%AMRoundRect*1,1,$1,$2,$3*1,1,$1,$4,$5*1,1,$1,0-$2,0-$3*1,1,$1,0-$4,0-$5*20,1,$1,$2,$3,$4,$5,0*20,1,$1,$4,$5,0-$2,0-$3,0*20,1,$1,0-$2,0-$3,0-$4,0-$5,0*20,1,$1,0-$4,0-$5,$2,$3,0*4,1,4,$2,$3,$4,$5,0-$2,0-$3,0-$4,0-$5,$2,$3,0*%
%ADD10C,1.7016*%
%ADD11C,1.624*%
%ADD12RoundRect,0.40162X0.61199X0.61199X0.61199X-0.61199*%
%ADD13C,1.6256*%
%ADD14RoundRect,0.40162X-0.61199X-0.61199X-0.61199X0.61199*%
%ADD15C,2.4016*%
%ADD16RoundRect,0.09387X0.69237X0.57013X0.69237X-0.57013*%
%ADD17RoundRect,0.09387X-0.69237X-0.57013X-0.69237X0.57013*%
%ADD18C,2.90159*%
%ADD19C,1.6764*%
%ADD20RoundRect,0.09579X-0.7903X0.7903X0.7903X0.7903*%
%ADD21C,1.9016*%
%ADD22RoundRect,0.09588X0.80286X-0.80286X-0.80286X-0.80286*%
%ADD23C,1.90002*%
%ADD24RoundRect,0.09502X-0.9025X-0.9025X-0.9025X0.9025*%
%ADD25RoundRect,0.09645X0.90257X0.90257X0.90257X-0.90257*%
%ADD26C,1.438*%
%ADD27RoundRect,0.09618X-0.85271X0.85271X0.85271X0.85271*%
%ADD28C,1.8016*%
%ADD29C,2.69999*%
%ADD30R,2.7X2.7*%
%ADD31RoundRect,0.09525X-1.30317X-0.71437X-1.30317X0.71438*%
%ADD32RoundRect,0.09525X1.30317X0.71438X1.30317X-0.71437*%
%ADD33RoundRect,0.09691X-1.00234X1.00234X1.00234X1.00234*%
%ADD34C,2.1016*%
%ADD35C,3.89999*%
%ADD36R,1.98X1.98*%
%ADD37C,1.98*%
%ADD38R,1.575X1.575*%
%ADD39C,1.575*%
%ADD40R,1.275X1.275*%
%ADD41C,1.275*%
%ADD42C,1.5*%
%ADD43RoundRect,0.09618X0.85271X-0.85271X-0.85271X-0.85271*%
%ADD44R,1.508X1.508*%
%ADD45C,1.508*%
%ADD46C,3.58499*%
%ADD47C,2.902*%
G75*


G04 Pad Start*
G54D10*
G01X3315005Y-10934700D03*
G01X1764995Y-10934700D03*
G54D11*
G01X1764602Y-11582400D03*
G01X3264599Y-11582400D03*
G54D10*
G01X3315005Y-12433300D03*
G01X1764995Y-12433300D03*
G54D11*
G01X1764602Y-13081000D03*
G01X3264599Y-13081000D03*
G54D10*
G01X3315005Y-13931900D03*
G01X1764995Y-13931900D03*
G54D11*
G01X1764602Y-14579600D03*
G01X3264599Y-14579600D03*
G54D10*
G01X3315005Y-15430500D03*
G01X1764995Y-15430500D03*
G54D11*
G01X1764602Y-16078200D03*
G01X3264599Y-16078200D03*
G54D10*
G01X3315005Y-16929100D03*
G01X1764995Y-16929100D03*
G54D11*
G01X1764602Y-17576800D03*
G01X3264599Y-17576800D03*
G54D10*
G01X3315005Y-18427700D03*
G01X1764995Y-18427700D03*
G54D11*
G01X1764602Y-19075400D03*
G01X3264599Y-19075400D03*
G54D10*
G01X3315005Y-19926300D03*
G01X1764995Y-19926300D03*
G54D11*
G01X1764602Y-20574000D03*
G01X3264599Y-20574000D03*
G54D10*
G01X11670995Y-19837400D03*
G01X13221005Y-19837400D03*
G54D11*
G01X13221399Y-19189700D03*
G01X11721402Y-19189700D03*
G54D10*
G01X11670995Y-18338800D03*
G01X13221005Y-18338800D03*
G54D11*
G01X13221399Y-17691100D03*
G01X11721402Y-17691100D03*
G54D10*
G01X11670995Y-16840200D03*
G01X13221005Y-16840200D03*
G54D11*
G01X13221399Y-16192500D03*
G01X11721402Y-16192500D03*
G54D10*
G01X11670995Y-15341600D03*
G01X13221005Y-15341600D03*
G54D11*
G01X13221399Y-14693900D03*
G01X11721402Y-14693900D03*
G54D10*
G01X11670995Y-13843000D03*
G01X13221005Y-13843000D03*
G54D11*
G01X13221399Y-13195300D03*
G01X11721402Y-13195300D03*
G54D10*
G01X11670995Y-12344400D03*
G01X13221005Y-12344400D03*
G54D11*
G01X13221399Y-11696700D03*
G01X11721402Y-11696700D03*
G54D12*
G01X8686800Y-17424400D03*
G54D13*
G01X8686800Y-17678400D03*
G01X8686800Y-17932400D03*
G01X8686800Y-18186400D03*
G01X8686800Y-18440400D03*
G01X8686800Y-18694400D03*
G01X8686800Y-18948400D03*
G01X8686800Y-19202400D03*
G01X8686800Y-19456400D03*
G54D14*
G01X6680200Y-13462000D03*
G54D13*
G01X6680200Y-13208000D03*
G01X6680200Y-12954000D03*
G01X6680200Y-12700000D03*
G01X6680200Y-12446000D03*
G01X6680200Y-12192000D03*
G01X6680200Y-11938000D03*
G01X6680200Y-11684000D03*
G01X6680200Y-11430000D03*
G54D15*
G01X5410200Y-11696700D03*
G01X3632200Y-10934700D03*
G01X4394200Y-10934700D03*
G01X5410200Y-10934700D03*
G01X5410200Y-13195300D03*
G01X3632200Y-12433300D03*
G01X4394200Y-12433300D03*
G01X5410200Y-12433300D03*
G01X5410200Y-14693900D03*
G01X3632200Y-13931900D03*
G01X4394200Y-13931900D03*
G01X5410200Y-13931900D03*
G01X5410200Y-16192500D03*
G01X3632200Y-15430500D03*
G01X4394200Y-15430500D03*
G01X5410200Y-15430500D03*
G01X5410200Y-17691100D03*
G01X3632200Y-16929100D03*
G01X4394200Y-16929100D03*
G01X5410200Y-16929100D03*
G01X5410200Y-19189700D03*
G01X3632200Y-18427700D03*
G01X4394200Y-18427700D03*
G01X5410200Y-18427700D03*
G01X5410200Y-20688300D03*
G01X3632200Y-19926300D03*
G01X4394200Y-19926300D03*
G01X5410200Y-19926300D03*
G01X9575800Y-19075400D03*
G01X11353800Y-19837400D03*
G01X10591800Y-19837400D03*
G01X9575800Y-19837400D03*
G01X9575800Y-17576800D03*
G01X11353800Y-18338800D03*
G01X10591800Y-18338800D03*
G01X9575800Y-18338800D03*
G01X9575800Y-16078200D03*
G01X11353800Y-16840200D03*
G01X10591800Y-16840200D03*
G01X9575800Y-16840200D03*
G01X9575800Y-14579600D03*
G01X11353800Y-15341600D03*
G01X10591800Y-15341600D03*
G01X9575800Y-15341600D03*
G01X9575800Y-13081000D03*
G01X11353800Y-13843000D03*
G01X10591800Y-13843000D03*
G01X9575800Y-13843000D03*
G01X9575800Y-11582400D03*
G01X11353800Y-12344400D03*
G01X10591800Y-12344400D03*
G01X9575800Y-12344400D03*
G54D16*
G01X7797800Y-20496200D03*
G01X7797800Y-20296200D03*
G01X8191500Y-20496200D03*
G01X8191500Y-20296200D03*
G01X8585200Y-20496200D03*
G01X8585200Y-20296200D03*
G01X8978900Y-20496200D03*
G01X8978900Y-20296200D03*
G54D17*
G01X8699500Y-16219500D03*
G01X8699500Y-16419500D03*
G01X8293100Y-16219500D03*
G01X8293100Y-16419500D03*
G01X7886700Y-16219500D03*
G01X7886700Y-16419500D03*
G01X6781800Y-10644200D03*
G01X6781800Y-10844200D03*
G01X6299200Y-10644200D03*
G01X6299200Y-10844200D03*
G54D16*
G01X6223000Y-14311300D03*
G01X6223000Y-14111300D03*
G01X6426200Y-14882800D03*
G01X6426200Y-14682800D03*
G01X6616700Y-14311300D03*
G01X6616700Y-14111300D03*
G01X6832600Y-14882800D03*
G01X6832600Y-14682800D03*
G54D18*
G01X14020800Y-8661400D03*
G01X14020800Y-8153400D03*
G54D11*
G01X14020800Y-7049198D03*
G01X14020800Y-5549201D03*
G54D10*
G01X14744700Y-7340905D03*
G01X14744700Y-5790895D03*
G54D19*
G01X5854700Y-6121400D03*
G01X5600700Y-6121400D03*
G01X5346700Y-6121400D03*
G01X5092700Y-6121400D03*
G54D20*
G01X4838700Y-6121400D03*
G54D21*
G01X210693Y-13597699D03*
G01X830707Y-13097700D03*
G54D22*
G01X2259203Y-508005D03*
G54D10*
G01X2509190Y-508005D03*
G01X2759202Y-508005D03*
G01X3009214Y-508005D03*
G01X3259201Y-508005D03*
G01X3509213Y-508005D03*
G01X3759200Y-508005D03*
G01X4009212Y-508005D03*
G01X4259199Y-508005D03*
G01X4509211Y-508005D03*
G01X4759198Y-508005D03*
G01X5009210Y-508005D03*
G01X5259197Y-508005D03*
G54D23*
G01X508127Y-1749196D03*
G01X508000Y-2999207D03*
G01X507898Y-2749194D03*
G01X508051Y-2499208D03*
G01X508076Y-2249195D03*
G01X508102Y-1999209D03*
G01X508000Y-3249193D03*
G01X507975Y-3499206D03*
G01X507949Y-3749192D03*
G01X507924Y-3999154D03*
G01X507898Y-4249191D03*
G54D24*
G01X507873Y-4499204D03*
G54D15*
G01X12471400Y-3197403D03*
G01X12471400Y-3707409D03*
G01X12471400Y-4217391D03*
G01X12471400Y-4727397D03*
G54D25*
G01X14490700Y-4004500D03*
G54D21*
G01X14490700Y-4254513D03*
G01X14490700Y-4504499D03*
G54D26*
G01X13436600Y-4508500D03*
G01X13636600Y-4008501D03*
G54D27*
G01X7331530Y-5488573D03*
G54D28*
G01X7585530Y-5488573D03*
G54D27*
G01X7327900Y-3632200D03*
G54D28*
G01X7581900Y-3632200D03*
G54D27*
G01X7328865Y-1773258D03*
G54D28*
G01X7582865Y-1773258D03*
G54D29*
G01X635000Y-14325600D03*
G01X635000Y-14721599D03*
G01X635000Y-15117598D03*
G01X635000Y-15513598D03*
G01X635000Y-15909597D03*
G01X635000Y-16305596D03*
G01X635000Y-16701595D03*
G01X635000Y-17097594D03*
G54D30*
G01X14363700Y-16789400D03*
G54D29*
G01X14363700Y-16393401D03*
G01X14363700Y-15997402D03*
G01X14363700Y-15601402D03*
G01X14363700Y-15205403D03*
G01X14363700Y-14808200D03*
G01X14363700Y-14412201D03*
G01X14363700Y-14016202D03*
G01X14363700Y-13620202D03*
G01X14363700Y-13224203D03*
G54D31*
G01X6369202Y-20459700D03*
G01X6369202Y-20205700D03*
G01X6369202Y-19951700D03*
G01X6369202Y-19697700D03*
G01X6369202Y-19443700D03*
G01X6369202Y-19189700D03*
G01X6369202Y-18935700D03*
G01X6369202Y-18681700D03*
G01X7245198Y-18681700D03*
G01X7245198Y-18935700D03*
G01X7245198Y-19189700D03*
G01X7245198Y-19443700D03*
G01X7245198Y-19697700D03*
G01X7245198Y-19951700D03*
G01X7245198Y-20205700D03*
G01X7245198Y-20459700D03*
G01X6369202Y-18046700D03*
G01X6369202Y-17792700D03*
G01X6369202Y-17538700D03*
G01X6369202Y-17284700D03*
G01X6369202Y-17030700D03*
G01X6369202Y-16776700D03*
G01X6369202Y-16522700D03*
G01X6369202Y-16268700D03*
G01X7245198Y-16268700D03*
G01X7245198Y-16522700D03*
G01X7245198Y-16776700D03*
G01X7245198Y-17030700D03*
G01X7245198Y-17284700D03*
G01X7245198Y-17538700D03*
G01X7245198Y-17792700D03*
G01X7245198Y-18046700D03*
G54D32*
G01X8616798Y-10655300D03*
G01X8616798Y-10909300D03*
G01X8616798Y-11163300D03*
G01X8616798Y-11417300D03*
G01X8616798Y-11671300D03*
G01X8616798Y-11925300D03*
G01X8616798Y-12179300D03*
G01X8616798Y-12433300D03*
G01X7740802Y-12433300D03*
G01X7740802Y-12179300D03*
G01X7740802Y-11925300D03*
G01X7740802Y-11671300D03*
G01X7740802Y-11417300D03*
G01X7740802Y-11163300D03*
G01X7740802Y-10909300D03*
G01X7740802Y-10655300D03*
G01X8616798Y-13068300D03*
G01X8616798Y-13322300D03*
G01X8616798Y-13576300D03*
G01X8616798Y-13830300D03*
G01X8616798Y-14084300D03*
G01X8616798Y-14338300D03*
G01X8616798Y-14592300D03*
G01X8616798Y-14846300D03*
G01X7740802Y-14846300D03*
G01X7740802Y-14592300D03*
G01X7740802Y-14338300D03*
G01X7740802Y-14084300D03*
G01X7740802Y-13830300D03*
G01X7740802Y-13576300D03*
G01X7740802Y-13322300D03*
G01X7740802Y-13068300D03*
G54D33*
G01X9144000Y-7429500D03*
G54D34*
G01X9144000Y-7683500D03*
G01X9144000Y-7937500D03*
G01X9906000Y-7937500D03*
G01X9906000Y-7683500D03*
G01X9906000Y-7429500D03*
G54D35*
G01X11760200Y-6438900D03*
G01X11760200Y-8978895D03*
G54D27*
G01X7331530Y-4967873D03*
G54D28*
G01X7585530Y-4967873D03*
G54D27*
G01X7327900Y-3111500D03*
G54D28*
G01X7581900Y-3111500D03*
G54D36*
G01X10769600Y-3136900D03*
G54D37*
G01X10769600Y-3391899D03*
G01X10769600Y-3646899D03*
G54D27*
G01X7328865Y-1252558D03*
G54D28*
G01X7582865Y-1252558D03*
G54D38*
G01X13627100Y-2311400D03*
G54D39*
G01X14377099Y-2311400D03*
G54D40*
G01X10985500Y-482600D03*
G54D41*
G01X10985500Y-982599D03*
G54D42*
G01X9716464Y-744058D03*
G01X9462465Y-744058D03*
G01X9208465Y-744058D03*
G54D43*
G01X12674600Y-2006600D03*
G54D28*
G01X12420600Y-2006600D03*
G54D43*
G01X12674600Y-2527300D03*
G54D28*
G01X12420600Y-2527300D03*
G54D44*
G01X9195540Y-2634559D03*
G54D45*
G01X8941541Y-2634559D03*
G01X8687541Y-2634559D03*
G54D40*
G01X12407900Y-685800D03*
G54D41*
G01X12407900Y-1185799D03*
G54D46*
G01X10261600Y-4508500D03*
G01X10261600Y-2272504D03*
G54D21*
G01X12611100Y-7708900D03*
G01X12179795Y-7454887D03*
G01X12178805Y-7962913D03*
G04 Pad End*

G04 Via Start*
G54D47*
G01X13804900Y-7950200D03*
G01X14020800Y-8953500D03*
G04 Via End*

M02*
