G04 Layer: InnerLayer1*
G04 EasyEDA Pro v2.1.49.573a4102.674264, 2024-03-15 18:46:32*
G04 Gerber Generator version 0.3*
G04 Scale: 100 percent, Rotated: No, Reflected: No*
G04 Dimensions in millimeters*
G04 Leading zeros omitted, absolute positions, 3 integers and 5 decimals*
%FSLAX35Y35*%
%MOMM*%
%AMRoundRect*1,1,$1,$2,$3*1,1,$1,$4,$5*1,1,$1,0-$2,0-$3*1,1,$1,0-$4,0-$5*20,1,$1,$2,$3,$4,$5,0*20,1,$1,$4,$5,0-$2,0-$3,0*20,1,$1,0-$2,0-$3,0-$4,0-$5,0*20,1,$1,0-$4,0-$5,$2,$3,0*4,1,4,$2,$3,$4,$5,0-$2,0-$3,0-$4,0-$5,$2,$3,0*%
%ADD10C,1.6*%
%ADD11C,1.524*%
%ADD12RoundRect,0.3048X0.6096X0.6096X0.6096X-0.6096*%
%ADD13RoundRect,0.3048X-0.6096X-0.6096X-0.6096X0.6096*%
%ADD14C,2.3*%
%ADD15C,2.79999*%
%ADD16C,1.5748*%
%ADD17R,1.5778X1.5748*%
%ADD18R,1.5748X1.5748*%
%ADD19C,1.8*%
%ADD20R,1.6X1.6*%
%ADD21R,1.8X1.8*%
%ADD22R,1.8X1.8*%
%ADD23C,1.438*%
%ADD24R,1.7X1.7*%
%ADD25C,1.7*%
%ADD26C,2.69999*%
%ADD27R,2.7X2.7*%
%ADD28R,2.0X2.0*%
%ADD29C,2.0*%
%ADD30C,3.89999*%
%ADD31R,1.98X1.98*%
%ADD32C,1.98*%
%ADD33R,1.575X1.575*%
%ADD34C,1.575*%
%ADD35R,1.275X1.275*%
%ADD36C,1.275*%
%ADD37C,1.5*%
%ADD38R,1.7X1.7*%
%ADD39R,1.508X1.508*%
%ADD40C,1.508*%
%ADD41C,3.58499*%
%ADD42C,0.61*%
G75*


G04 PlaneZone Start*
G36*
G01X5410454Y-20974346D02*
G01X5410454Y-20828954D01*
G03X5550854Y-20688300I-254J140654D01*
G03X5410454Y-20547646I-140654J0D01*
G01Y-20066954D01*
G03X5550854Y-19926300I-254J140654D01*
G03X5410454Y-19785646I-140654J0D01*
G01Y-19330354D01*
G03X5550854Y-19189700I-254J140654D01*
G03X5410454Y-19049046I-140654J0D01*
G01Y-18568354D01*
G03X5550854Y-18427700I-254J140654D01*
G03X5410454Y-18287046I-140654J0D01*
G01Y-17831754D01*
G03X5550854Y-17691100I-254J140654D01*
G03X5410454Y-17550446I-140654J0D01*
G01Y-17069754D01*
G03X5550854Y-16929100I-254J140654D01*
G03X5410454Y-16788446I-140654J0D01*
G01Y-16333154D01*
G03X5550854Y-16192500I-254J140654D01*
G03X5410454Y-16051846I-140654J0D01*
G01Y-15571154D01*
G03X5550854Y-15430500I-254J140654D01*
G03X5410454Y-15289846I-140654J0D01*
G01Y-14834554D01*
G03X5550854Y-14693900I-254J140654D01*
G03X5410454Y-14553246I-140654J0D01*
G01Y-14072554D01*
G03X5550854Y-13931900I-254J140654D01*
G03X5410454Y-13791246I-140654J0D01*
G01Y-13335954D01*
G03X5550854Y-13195300I-254J140654D01*
G03X5410454Y-13054646I-140654J0D01*
G01Y-12573954D01*
G03X5550854Y-12433300I-254J140654D01*
G03X5410454Y-12292646I-140654J0D01*
G01Y-11837354D01*
G03X5550854Y-11696700I-254J140654D01*
G03X5410454Y-11556046I-140654J0D01*
G01Y-11075354D01*
G03X5550854Y-10934700I-254J140654D01*
G03X5410454Y-10794046I-140654J0D01*
G01Y-10452100D01*
G01X5410380Y-10451920D01*
G01X4902380Y-9943920D01*
G01X4902200Y-9943846D01*
G01X25654D01*
G01Y-9659829D01*
G03X28409Y-9657440I-15383J20529D01*
G01X640440Y-9045409D01*
G03X647954Y-9027269I-18140J18140D01*
G01Y-7251700D01*
G03X640440Y-7233560I-25654J0D01*
G01X25654Y-6618774D01*
G01Y-1300254D01*
G01X1300000D01*
G01X1300254Y-1300000D01*
G01Y-25654D01*
G01X13690346D01*
G01Y-1300000D01*
G01X13690600Y-1300254D01*
G01X14974346D01*
G01Y-2146046D01*
G01X14973300D01*
G01X14973120Y-2146120D01*
G01X14312795Y-2806446D01*
G01X12700000D01*
G01X11963400D01*
G01X11963220Y-2806520D01*
G01X11683820Y-3085920D01*
G01X11683746Y-3086100D01*
G01Y-4419600D01*
G01X11683820Y-4419780D01*
G01X11810820Y-4546780D01*
G01X11811000Y-4546854D01*
G01X12627298D01*
G01X12699746Y-4648281D01*
G01Y-4775095D01*
G01X12572895Y-4901946D01*
G01X10312400D01*
G01X10312220Y-4902020D01*
G01X9334320Y-5879920D01*
G01X9334246Y-5880100D01*
G01Y-9232900D01*
G01X9334320Y-9233080D01*
G01X9575546Y-9474305D01*
G01Y-11441746D01*
G03X9435146Y-11582400I254J-140654D01*
G03X9575546Y-11723054I140654J0D01*
G01Y-12203746D01*
G03X9435146Y-12344400I254J-140654D01*
G03X9575546Y-12485054I140654J0D01*
G01Y-12940346D01*
G03X9435146Y-13081000I254J-140654D01*
G03X9575546Y-13221654I140654J0D01*
G01Y-13702346D01*
G03X9435146Y-13843000I254J-140654D01*
G03X9575546Y-13983654I140654J0D01*
G01Y-14438946D01*
G03X9435146Y-14579600I254J-140654D01*
G03X9575546Y-14720254I140654J0D01*
G01Y-15200946D01*
G03X9435146Y-15341600I254J-140654D01*
G03X9575546Y-15482254I140654J0D01*
G01Y-15937546D01*
G03X9435146Y-16078200I254J-140654D01*
G03X9575546Y-16218854I140654J0D01*
G01Y-16699546D01*
G03X9435146Y-16840200I254J-140654D01*
G03X9575546Y-16980854I140654J0D01*
G01Y-17436146D01*
G03X9435146Y-17576800I254J-140654D01*
G03X9575546Y-17717454I140654J0D01*
G01Y-18198146D01*
G03X9435146Y-18338800I254J-140654D01*
G03X9575546Y-18479454I140654J0D01*
G01Y-18934746D01*
G03X9435146Y-19075400I254J-140654D01*
G03X9575546Y-19216054I140654J0D01*
G01Y-19696746D01*
G03X9435146Y-19837400I254J-140654D01*
G03X9575546Y-19978054I140654J0D01*
G01Y-20974346D01*
G01X5410454D01*
G37*
%LPC*%
G36*
G01X10056696Y-4508500D02*
G03X10261600Y-4713404I204904J0D01*
G03X10466504Y-4508500I0J204904D01*
G03X10261600Y-4303596I-204904J0D01*
G03X10056696Y-4508500I0J-204904D01*
G37*
G36*
G01X10261600Y-2477408D02*
G03X10466504Y-2272504I0J204904D01*
G03X10261600Y-2067601I-204904J0D01*
G03X10056696Y-2272504I0J-204904D01*
G03X10261600Y-2477408I204904J0D01*
G37*
G36*
G01X12330746Y-4727397D02*
G03X12471400Y-4868051I140654J0D01*
G03X12612054Y-4727397I0J140654D01*
G03X12471400Y-4586743I-140654J0D01*
G03X12330746Y-4727397I0J-140654D01*
G37*
G36*
G01X9144000Y-8063154D02*
G03X9269654Y-7937500I0J125654D01*
G03X9144000Y-7811846I-125654J0D01*
G03X9018346Y-7937500I0J-125654D01*
G03X9144000Y-8063154I125654J0D01*
G37*
G36*
G01X9244000Y-7555154D02*
G03X9269654Y-7529500I0J25654D01*
G01Y-7329500D01*
G03X9244000Y-7303846I-25654J0D01*
G01X9044000D01*
G03X9018346Y-7329500I0J-25654D01*
G01Y-7529500D01*
G03X9044000Y-7555154I25654J0D01*
G01X9244000D01*
G37*
G36*
G01X9144000Y-7809154D02*
G03X9269654Y-7683500I0J125654D01*
G03X9144000Y-7557846I-125654J0D01*
G03X9018346Y-7683500I0J-125654D01*
G03X9144000Y-7809154I125654J0D01*
G37*
G36*
G01X10644946Y-3235900D02*
G03X10670600Y-3261554I25654J0D01*
G01X10868600D01*
G03X10894254Y-3235900I0J25654D01*
G01Y-3037900D01*
G03X10868600Y-3012246I-25654J0D01*
G01X10670600D01*
G03X10644946Y-3037900I0J-25654D01*
G01Y-3235900D01*
G37*
G36*
G01X10769600Y-3771553D02*
G03X10894254Y-3646899I0J124654D01*
G03X10769600Y-3522245I-124654J0D01*
G03X10644946Y-3646899I0J-124654D01*
G03X10769600Y-3771553I124654J0D01*
G37*
G36*
G01X10644946Y-3391899D02*
G03X10769600Y-3516553I124654J0D01*
G03X10894254Y-3391899I0J124654D01*
G03X10769600Y-3267246I-124654J0D01*
G03X10644946Y-3391899I0J-124654D01*
G37*
G36*
G01X507898Y-4364845D02*
G03X623552Y-4249191I0J115654D01*
G03X507898Y-4133538I-115654J0D01*
G03X392245Y-4249191I0J-115654D01*
G03X507898Y-4364845I115654J0D01*
G37*
G36*
G01X392295Y-3749192D02*
G03X507949Y-3864846I115654J0D01*
G03X623603Y-3749192I0J115654D01*
G03X507949Y-3633539I-115654J0D01*
G03X392295Y-3749192I0J-115654D01*
G37*
G36*
G01X392473Y-1749196D02*
G03X508127Y-1864850I115654J0D01*
G03X623781Y-1749196I0J115654D01*
G03X508127Y-1633543I-115654J0D01*
G03X392473Y-1749196I0J-115654D01*
G37*
G36*
G01X507924Y-4114808D02*
G03X623578Y-3999154I0J115654D01*
G03X507924Y-3883500I-115654J0D01*
G03X392270Y-3999154I0J-115654D01*
G03X507924Y-4114808I115654J0D01*
G37*
G36*
G01X507898Y-2864848D02*
G03X623552Y-2749194I0J115654D01*
G03X507898Y-2633541I-115654J0D01*
G03X392245Y-2749194I0J-115654D01*
G03X507898Y-2864848I115654J0D01*
G37*
G36*
G01X508051Y-2614861D02*
G03X623705Y-2499208I0J115654D01*
G03X508051Y-2383554I-115654J0D01*
G03X392397Y-2499208I0J-115654D01*
G03X508051Y-2614861I115654J0D01*
G37*
G36*
G01X507975Y-3614859D02*
G03X623628Y-3499206I0J115654D01*
G03X507975Y-3383552I-115654J0D01*
G03X392321Y-3499206I0J-115654D01*
G03X507975Y-3614859I115654J0D01*
G37*
G36*
G01X508000Y-3114860D02*
G03X623654Y-2999207I0J115654D01*
G03X508000Y-2883553I-115654J0D01*
G03X392346Y-2999207I0J-115654D01*
G03X508000Y-3114860I115654J0D01*
G37*
G36*
G01X508076Y-2364849D02*
G03X623730Y-2249195I0J115654D01*
G03X508076Y-2133542I-115654J0D01*
G03X392422Y-2249195I0J-115654D01*
G03X508076Y-2364849I115654J0D01*
G37*
G36*
G01X392346Y-3249193D02*
G03X508000Y-3364847I115654J0D01*
G03X623654Y-3249193I0J115654D01*
G03X508000Y-3133540I-115654J0D01*
G03X392346Y-3249193I0J-115654D01*
G37*
G36*
G01X597873Y-4614857D02*
G03X623527Y-4589203I0J25654D01*
G01Y-4409204D01*
G03X597873Y-4383550I-25654J0D01*
G01X417873D01*
G03X392219Y-4409204I0J-25654D01*
G01Y-4589203D01*
G03X417873Y-4614857I25654J0D01*
G01X597873D01*
G37*
G36*
G01X392448Y-1999209D02*
G03X508102Y-2114862I115654J0D01*
G03X623755Y-1999209I0J115654D01*
G03X508102Y-1883555I-115654J0D01*
G03X392448Y-1999209I0J-115654D01*
G37*
G36*
G01X12563946Y-2091600D02*
G03X12589600Y-2117254I25654J0D01*
G01X12759600D01*
G03X12785254Y-2091600I0J25654D01*
G01Y-1921600D01*
G03X12759600Y-1895946I-25654J0D01*
G01X12589600D01*
G03X12563946Y-1921600I0J-25654D01*
G01Y-2091600D01*
G37*
G36*
G01X7218211Y-1858258D02*
G03X7243865Y-1883912I25654J0D01*
G01X7413865D01*
G03X7439519Y-1858258I0J25654D01*
G01Y-1688258D01*
G03X7413865Y-1662604I-25654J0D01*
G01X7243865D01*
G03X7218211Y-1688258I0J-25654D01*
G01Y-1858258D01*
G37*
G36*
G01X12563946Y-2612300D02*
G03X12589600Y-2637954I25654J0D01*
G01X12759600D01*
G03X12785254Y-2612300I0J25654D01*
G01Y-2442300D01*
G03X12759600Y-2416646I-25654J0D01*
G01X12589600D01*
G03X12563946Y-2442300I0J-25654D01*
G01Y-2612300D01*
G37*
G36*
G01X7217246Y-3196500D02*
G03X7242900Y-3222154I25654J0D01*
G01X7412900D01*
G03X7438554Y-3196500I0J25654D01*
G01Y-3026500D01*
G03X7412900Y-3000846I-25654J0D01*
G01X7242900D01*
G03X7217246Y-3026500I0J-25654D01*
G01Y-3196500D01*
G37*
G36*
G01X7582865Y-1363212D02*
G03X7693519Y-1252558I0J110654D01*
G03X7582865Y-1141904I-110654J0D01*
G03X7472211Y-1252558I0J-110654D01*
G03X7582865Y-1363212I110654J0D01*
G37*
G36*
G01X7218211Y-1337558D02*
G03X7243865Y-1363212I25654J0D01*
G01X7413865D01*
G03X7439519Y-1337558I0J25654D01*
G01Y-1167558D01*
G03X7413865Y-1141904I-25654J0D01*
G01X7243865D01*
G03X7218211Y-1167558I0J-25654D01*
G01Y-1337558D01*
G37*
G36*
G01X7416530Y-5599227D02*
G03X7442184Y-5573573I0J25654D01*
G01Y-5403574D01*
G03X7416530Y-5377920I-25654J0D01*
G01X7246530D01*
G03X7220876Y-5403574I0J-25654D01*
G01Y-5573573D01*
G03X7246530Y-5599227I25654J0D01*
G01X7416530D01*
G37*
G36*
G01X7582865Y-1883912D02*
G03X7693519Y-1773258I0J110654D01*
G03X7582865Y-1662604I-110654J0D01*
G03X7472211Y-1773258I0J-110654D01*
G03X7582865Y-1883912I110654J0D01*
G37*
G36*
G01X7220876Y-5052873D02*
G03X7246530Y-5078527I25654J0D01*
G01X7416530D01*
G03X7442184Y-5052873I0J25654D01*
G01Y-4882874D01*
G03X7416530Y-4857220I-25654J0D01*
G01X7246530D01*
G03X7220876Y-4882874I0J-25654D01*
G01Y-5052873D01*
G37*
G36*
G01X12420600Y-2117254D02*
G03X12531254Y-2006600I0J110654D01*
G03X12420600Y-1895946I-110654J0D01*
G03X12309946Y-2006600I0J-110654D01*
G03X12420600Y-2117254I110654J0D01*
G37*
G36*
G01X7585530Y-5078527D02*
G03X7696184Y-4967873I0J110654D01*
G03X7585530Y-4857220I-110654J0D01*
G03X7474876Y-4967873I0J-110654D01*
G03X7585530Y-5078527I110654J0D01*
G37*
G36*
G01X7412900Y-3742854D02*
G03X7438554Y-3717200I0J25654D01*
G01Y-3547200D01*
G03X7412900Y-3521546I-25654J0D01*
G01X7242900D01*
G03X7217246Y-3547200I0J-25654D01*
G01Y-3717200D01*
G03X7242900Y-3742854I25654J0D01*
G01X7412900D01*
G37*
G36*
G01X7585530Y-5599227D02*
G03X7696184Y-5488573I0J110654D01*
G03X7585530Y-5377920I-110654J0D01*
G03X7474876Y-5488573I0J-110654D01*
G03X7585530Y-5599227I110654J0D01*
G37*
G36*
G01X7581900Y-3222154D02*
G03X7692554Y-3111500I0J110654D01*
G03X7581900Y-3000846I-110654J0D01*
G03X7471246Y-3111500I0J-110654D01*
G03X7581900Y-3222154I110654J0D01*
G37*
G36*
G01X7581900Y-3742854D02*
G03X7692554Y-3632200I0J110654D01*
G03X7581900Y-3521546I-110654J0D01*
G03X7471246Y-3632200I0J-110654D01*
G03X7581900Y-3742854I110654J0D01*
G37*
G36*
G01X12309946Y-2527300D02*
G03X12420600Y-2637954I110654J0D01*
G03X12531254Y-2527300I0J110654D01*
G03X12420600Y-2416646I-110654J0D01*
G03X12309946Y-2527300I0J-110654D01*
G37*
G36*
G01X4259199Y-613659D02*
G03X4364853Y-508005I0J105654D01*
G03X4259199Y-402351I-105654J0D01*
G03X4153545Y-508005I0J-105654D01*
G03X4259199Y-613659I105654J0D01*
G37*
G36*
G01X3509213Y-613659D02*
G03X3614867Y-508005I0J105654D01*
G03X3509213Y-402351I-105654J0D01*
G03X3403559Y-508005I0J-105654D01*
G03X3509213Y-613659I105654J0D01*
G37*
G36*
G01X5259197Y-613659D02*
G03X5364851Y-508005I0J105654D01*
G03X5259197Y-402351I-105654J0D01*
G03X5153543Y-508005I0J-105654D01*
G03X5259197Y-613659I105654J0D01*
G37*
G36*
G01X2153549Y-588005D02*
G03X2179203Y-613659I25654J0D01*
G01X2339203D01*
G03X2364857Y-588005I0J25654D01*
G01Y-428005D01*
G03X2339203Y-402351I-25654J0D01*
G01X2179203D01*
G03X2153549Y-428005I0J-25654D01*
G01Y-588005D01*
G37*
G36*
G01X4403557Y-508005D02*
G03X4509211Y-613659I105654J0D01*
G03X4614865Y-508005I0J105654D01*
G03X4509211Y-402351I-105654J0D01*
G03X4403557Y-508005I0J-105654D01*
G37*
G36*
G01X3903558Y-508005D02*
G03X4009212Y-613659I105654J0D01*
G03X4114866Y-508005I0J105654D01*
G03X4009212Y-402351I-105654J0D01*
G03X3903558Y-508005I0J-105654D01*
G37*
G36*
G01X4653544Y-508005D02*
G03X4759198Y-613659I105654J0D01*
G03X4864852Y-508005I0J105654D01*
G03X4759198Y-402351I-105654J0D01*
G03X4653544Y-508005I0J-105654D01*
G37*
G36*
G01X3653546Y-508005D02*
G03X3759200Y-613659I105654J0D01*
G03X3864854Y-508005I0J105654D01*
G03X3759200Y-402351I-105654J0D01*
G03X3653546Y-508005I0J-105654D01*
G37*
G36*
G01X5009210Y-613659D02*
G03X5114864Y-508005I0J105654D01*
G03X5009210Y-402351I-105654J0D01*
G03X4903556Y-508005I0J-105654D01*
G03X5009210Y-613659I105654J0D01*
G37*
G36*
G01X3153547Y-508005D02*
G03X3259201Y-613659I105654J0D01*
G03X3364855Y-508005I0J105654D01*
G03X3259201Y-402351I-105654J0D01*
G03X3153547Y-508005I0J-105654D01*
G37*
G36*
G01X2509190Y-613659D02*
G03X2614844Y-508005I0J105654D01*
G03X2509190Y-402351I-105654J0D01*
G03X2403536Y-508005I0J-105654D01*
G03X2509190Y-613659I105654J0D01*
G37*
G36*
G01X2759202Y-613659D02*
G03X2864856Y-508005I0J105654D01*
G03X2759202Y-402351I-105654J0D01*
G03X2653548Y-508005I0J-105654D01*
G03X2759202Y-613659I105654J0D01*
G37*
G36*
G01X3009214Y-613659D02*
G03X3114868Y-508005I0J105654D01*
G03X3009214Y-402351I-105654J0D01*
G03X2903560Y-508005I0J-105654D01*
G03X3009214Y-613659I105654J0D01*
G37*
G36*
G01X14272695Y-2311400D02*
G03X14377099Y-2415804I104404J0D01*
G03X14481502Y-2311400I0J104404D01*
G03X14377099Y-2206996I-104404J0D01*
G03X14272695Y-2311400I0J-104404D01*
G37*
G36*
G01X13522696Y-2390150D02*
G03X13548350Y-2415804I25654J0D01*
G01X13705850D01*
G03X13731504Y-2390150I0J25654D01*
G01Y-2232650D01*
G03X13705850Y-2206996I-25654J0D01*
G01X13548350D01*
G03X13522696Y-2232650I0J-25654D01*
G01Y-2390150D01*
G37*
G36*
G01X4734306Y-6200140D02*
G03X4759960Y-6225794I25654J0D01*
G01X4917440D01*
G03X4943094Y-6200140I0J25654D01*
G01Y-6042660D01*
G03X4917440Y-6017006I-25654J0D01*
G01X4759960D01*
G03X4734306Y-6042660I0J-25654D01*
G01Y-6200140D01*
G37*
G36*
G01X5092700Y-6225794D02*
G03X5197094Y-6121400I0J104394D01*
G03X5092700Y-6017006I-104394J0D01*
G03X4988306Y-6121400I0J-104394D01*
G03X5092700Y-6225794I104394J0D01*
G37*
G36*
G01X5854700Y-6225794D02*
G03X5959094Y-6121400I0J104394D01*
G03X5854700Y-6017006I-104394J0D01*
G03X5750306Y-6121400I0J-104394D01*
G03X5854700Y-6225794I104394J0D01*
G37*
G36*
G01X5600700Y-6225794D02*
G03X5705094Y-6121400I0J104394D01*
G03X5600700Y-6017006I-104394J0D01*
G03X5496306Y-6121400I0J-104394D01*
G03X5600700Y-6225794I104394J0D01*
G37*
G36*
G01X5346700Y-6225794D02*
G03X5451094Y-6121400I0J104394D01*
G03X5346700Y-6017006I-104394J0D01*
G03X5242306Y-6121400I0J-104394D01*
G03X5346700Y-6225794I104394J0D01*
G37*
G36*
G01X6741160Y-13563854D02*
G03X6782054Y-13522960I0J40894D01*
G01Y-13401040D01*
G03X6741160Y-13360146I-40894J0D01*
G01X6619240D01*
G03X6578346Y-13401040I0J-40894D01*
G01Y-13522960D01*
G03X6619240Y-13563854I40894J0D01*
G01X6741160D01*
G37*
G36*
G01X6680200Y-13055854D02*
G03X6782054Y-12954000I0J101854D01*
G03X6680200Y-12852146I-101854J0D01*
G03X6578346Y-12954000I0J-101854D01*
G03X6680200Y-13055854I101854J0D01*
G37*
G36*
G01X6680200Y-11785854D02*
G03X6782054Y-11684000I0J101854D01*
G03X6680200Y-11582146I-101854J0D01*
G03X6578346Y-11684000I0J-101854D01*
G03X6680200Y-11785854I101854J0D01*
G37*
G36*
G01X6578346Y-11938000D02*
G03X6680200Y-12039854I101854J0D01*
G03X6782054Y-11938000I0J101854D01*
G03X6680200Y-11836146I-101854J0D01*
G03X6578346Y-11938000I0J-101854D01*
G37*
G36*
G01X8686800Y-19558254D02*
G03X8788654Y-19456400I0J101854D01*
G03X8686800Y-19354546I-101854J0D01*
G03X8584946Y-19456400I0J-101854D01*
G03X8686800Y-19558254I101854J0D01*
G37*
G36*
G01X6578346Y-12192000D02*
G03X6680200Y-12293854I101854J0D01*
G03X6782054Y-12192000I0J101854D01*
G03X6680200Y-12090146I-101854J0D01*
G03X6578346Y-12192000I0J-101854D01*
G37*
G36*
G01X8584946Y-19202400D02*
G03X8686800Y-19304254I101854J0D01*
G03X8788654Y-19202400I0J101854D01*
G03X8686800Y-19100546I-101854J0D01*
G03X8584946Y-19202400I0J-101854D01*
G37*
G36*
G01X8584946Y-18948400D02*
G03X8686800Y-19050254I101854J0D01*
G03X8788654Y-18948400I0J101854D01*
G03X8686800Y-18846546I-101854J0D01*
G03X8584946Y-18948400I0J-101854D01*
G37*
G36*
G01X6578346Y-12446000D02*
G03X6680200Y-12547854I101854J0D01*
G03X6782054Y-12446000I0J101854D01*
G03X6680200Y-12344146I-101854J0D01*
G03X6578346Y-12446000I0J-101854D01*
G37*
G36*
G01X8584946Y-18694400D02*
G03X8686800Y-18796254I101854J0D01*
G03X8788654Y-18694400I0J101854D01*
G03X8686800Y-18592546I-101854J0D01*
G03X8584946Y-18694400I0J-101854D01*
G37*
G36*
G01X8686800Y-18542254D02*
G03X8788654Y-18440400I0J101854D01*
G03X8686800Y-18338546I-101854J0D01*
G03X8584946Y-18440400I0J-101854D01*
G03X8686800Y-18542254I101854J0D01*
G37*
G36*
G01X8584946Y-18186400D02*
G03X8686800Y-18288254I101854J0D01*
G03X8788654Y-18186400I0J101854D01*
G03X8686800Y-18084546I-101854J0D01*
G03X8584946Y-18186400I0J-101854D01*
G37*
G36*
G01X8584946Y-17932400D02*
G03X8686800Y-18034254I101854J0D01*
G03X8788654Y-17932400I0J101854D01*
G03X8686800Y-17830546I-101854J0D01*
G03X8584946Y-17932400I0J-101854D01*
G37*
G36*
G01X6578346Y-12700000D02*
G03X6680200Y-12801854I101854J0D01*
G03X6782054Y-12700000I0J101854D01*
G03X6680200Y-12598146I-101854J0D01*
G03X6578346Y-12700000I0J-101854D01*
G37*
G36*
G01X8584946Y-17678400D02*
G03X8686800Y-17780254I101854J0D01*
G03X8788654Y-17678400I0J101854D01*
G03X8686800Y-17576546I-101854J0D01*
G03X8584946Y-17678400I0J-101854D01*
G37*
G36*
G01X6680200Y-11531854D02*
G03X6782054Y-11430000I0J101854D01*
G03X6680200Y-11328146I-101854J0D01*
G03X6578346Y-11430000I0J-101854D01*
G03X6680200Y-11531854I101854J0D01*
G37*
G36*
G01X8584946Y-17485360D02*
G03X8625840Y-17526254I40894J0D01*
G01X8747760D01*
G03X8788654Y-17485360I0J40894D01*
G01Y-17363440D01*
G03X8747760Y-17322546I-40894J0D01*
G01X8625840D01*
G03X8584946Y-17363440I0J-40894D01*
G01Y-17485360D01*
G37*
G36*
G01X6680200Y-13309854D02*
G03X6782054Y-13208000I0J101854D01*
G03X6680200Y-13106146I-101854J0D01*
G03X6578346Y-13208000I0J-101854D01*
G03X6680200Y-13309854I101854J0D01*
G37*
G36*
G01X8687541Y-2735613D02*
G03X8788595Y-2634559I0J101054D01*
G03X8687541Y-2533505I-101054J0D01*
G03X8586487Y-2634559I0J-101054D01*
G03X8687541Y-2735613I101054J0D01*
G37*
G36*
G01X8840487Y-2634559D02*
G03X8941541Y-2735613I101054J0D01*
G03X9042595Y-2634559I0J101054D01*
G03X8941541Y-2533505I-101054J0D01*
G03X8840487Y-2634559I0J-101054D01*
G37*
G36*
G01X9094486Y-2709959D02*
G03X9120140Y-2735613I25654J0D01*
G01X9270940D01*
G03X9296594Y-2709959I0J25654D01*
G01Y-2559159D01*
G03X9270940Y-2533505I-25654J0D01*
G01X9120140D01*
G03X9094486Y-2559159I0J-25654D01*
G01Y-2709959D01*
G37*
G36*
G01X9716464Y-844712D02*
G03X9817118Y-744058I0J100654D01*
G03X9716464Y-643404I-100654J0D01*
G03X9615810Y-744058I0J-100654D01*
G03X9716464Y-844712I100654J0D01*
G37*
G36*
G01X9107811Y-744058D02*
G03X9208465Y-844712I100654J0D01*
G03X9309119Y-744058I0J100654D01*
G03X9208465Y-643404I-100654J0D01*
G03X9107811Y-744058I0J-100654D01*
G37*
G36*
G01X9462465Y-844712D02*
G03X9563119Y-744058I0J100654D01*
G03X9462465Y-643404I-100654J0D01*
G03X9361811Y-744058I0J-100654D01*
G03X9462465Y-844712I100654J0D01*
G37*
G36*
G01X12318496Y-749550D02*
G03X12344150Y-775204I25654J0D01*
G01X12471650D01*
G03X12497304Y-749550I0J25654D01*
G01Y-622050D01*
G03X12471650Y-596396I-25654J0D01*
G01X12344150D01*
G03X12318496Y-622050I0J-25654D01*
G01Y-749550D01*
G37*
G36*
G01X10896096Y-546350D02*
G03X10921750Y-572004I25654J0D01*
G01X11049250D01*
G03X11074904Y-546350I0J25654D01*
G01Y-418850D01*
G03X11049250Y-393196I-25654J0D01*
G01X10921750D01*
G03X10896096Y-418850I0J-25654D01*
G01Y-546350D01*
G37*
G36*
G01X10896096Y-982599D02*
G03X10985500Y-1072003I89404J0D01*
G03X11074904Y-982599I0J89404D01*
G03X10985500Y-893195I-89404J0D01*
G03X10896096Y-982599I0J-89404D01*
G37*
G36*
G01X12407900Y-1275203D02*
G03X12497304Y-1185799I0J89404D01*
G03X12407900Y-1096395I-89404J0D01*
G03X12318496Y-1185799I0J-89404D01*
G03X12407900Y-1275203I89404J0D01*
G37*
G36*
G01X1397000Y-4323354D02*
G03X1453154Y-4267200I0J56154D01*
G03X1397000Y-4211046I-56154J0D01*
G03X1340846Y-4267200I0J-56154D01*
G03X1397000Y-4323354I56154J0D01*
G37*
G36*
G01X2013946Y-3073400D02*
G03X2070100Y-3129554I56154J0D01*
G03X2126254Y-3073400I0J56154D01*
G03X2070100Y-3017246I-56154J0D01*
G03X2013946Y-3073400I0J-56154D01*
G37*
G36*
G01X2743200Y-4653554D02*
G03X2799354Y-4597400I0J56154D01*
G03X2743200Y-4541246I-56154J0D01*
G03X2687046Y-4597400I0J-56154D01*
G03X2743200Y-4653554I56154J0D01*
G37*
G36*
G01X3766546Y-1752600D02*
G03X3822700Y-1808754I56154J0D01*
G03X3878854Y-1752600I0J56154D01*
G03X3822700Y-1696446I-56154J0D01*
G03X3766546Y-1752600I0J-56154D01*
G37*
G36*
G01X4826000Y-4869454D02*
G03X4882154Y-4813300I0J56154D01*
G03X4826000Y-4757146I-56154J0D01*
G03X4769846Y-4813300I0J-56154D01*
G03X4826000Y-4869454I56154J0D01*
G37*
G36*
G01X4826000Y-2177054D02*
G03X4882154Y-2120900I0J56154D01*
G03X4826000Y-2064746I-56154J0D01*
G03X4769846Y-2120900I0J-56154D01*
G03X4826000Y-2177054I56154J0D01*
G37*
G36*
G01X5943600Y-5263154D02*
G03X5999754Y-5207000I0J56154D01*
G03X5943600Y-5150846I-56154J0D01*
G03X5887446Y-5207000I0J-56154D01*
G03X5943600Y-5263154I56154J0D01*
G37*
G36*
G01X5854700Y-2494554D02*
G03X5910854Y-2438400I0J56154D01*
G03X5854700Y-2382246I-56154J0D01*
G03X5798546Y-2438400I0J-56154D01*
G03X5854700Y-2494554I56154J0D01*
G37*
G36*
G01X2120900Y-5580654D02*
G03X2177054Y-5524500I0J56154D01*
G03X2120900Y-5468346I-56154J0D01*
G03X2064746Y-5524500I0J-56154D01*
G03X2120900Y-5580654I56154J0D01*
G37*
G36*
G01X1861546Y-3213100D02*
G03X1917700Y-3269254I56154J0D01*
G03X1973854Y-3213100I0J56154D01*
G03X1917700Y-3156946I-56154J0D01*
G03X1861546Y-3213100I0J-56154D01*
G37*
G36*
G01X1943100Y-5948954D02*
G03X1999254Y-5892800I0J56154D01*
G03X1943100Y-5836646I-56154J0D01*
G03X1886946Y-5892800I0J-56154D01*
G03X1943100Y-5948954I56154J0D01*
G37*
G36*
G01X5854700Y-3167654D02*
G03X5910854Y-3111500I0J56154D01*
G03X5854700Y-3055346I-56154J0D01*
G03X5798546Y-3111500I0J-56154D01*
G03X5854700Y-3167654I56154J0D01*
G37*
G36*
G01X3746500Y-6126754D02*
G03X3802654Y-6070600I0J56154D01*
G03X3746500Y-6014446I-56154J0D01*
G03X3690346Y-6070600I0J-56154D01*
G03X3746500Y-6126754I56154J0D01*
G37*
G36*
G01X5887446Y-3390900D02*
G03X5943600Y-3447054I56154J0D01*
G03X5999754Y-3390900I0J56154D01*
G03X5943600Y-3334746I-56154J0D01*
G03X5887446Y-3390900I0J-56154D01*
G37*
G36*
G01X3937000Y-6304554D02*
G03X3993154Y-6248400I0J56154D01*
G03X3937000Y-6192246I-56154J0D01*
G03X3880846Y-6248400I0J-56154D01*
G03X3937000Y-6304554I56154J0D01*
G37*
G36*
G01X1739900Y-3751854D02*
G03X1796054Y-3695700I0J56154D01*
G03X1739900Y-3639546I-56154J0D01*
G03X1683746Y-3695700I0J-56154D01*
G03X1739900Y-3751854I56154J0D01*
G37*
G36*
G01X3957046Y-6350000D02*
G03X4013200Y-6406154I56154J0D01*
G03X4069354Y-6350000I0J56154D01*
G03X4013200Y-6293846I-56154J0D01*
G03X3957046Y-6350000I0J-56154D01*
G37*
G36*
G01X3695700Y-1897654D02*
G03X3751854Y-1841500I0J56154D01*
G03X3695700Y-1785346I-56154J0D01*
G03X3639546Y-1841500I0J-56154D01*
G03X3695700Y-1897654I56154J0D01*
G37*
G36*
G01X2636246Y-6324600D02*
G03X2692400Y-6380754I56154J0D01*
G03X2748554Y-6324600I0J56154D01*
G03X2692400Y-6268446I-56154J0D01*
G03X2636246Y-6324600I0J-56154D01*
G37*
G36*
G01X4033246Y-3759200D02*
G03X4089400Y-3815354I56154J0D01*
G03X4145554Y-3759200I0J56154D01*
G03X4089400Y-3703046I-56154J0D01*
G03X4033246Y-3759200I0J-56154D01*
G37*
G36*
G01X4826000Y-3523254D02*
G03X4882154Y-3467100I0J56154D01*
G03X4826000Y-3410946I-56154J0D01*
G03X4769846Y-3467100I0J-56154D01*
G03X4826000Y-3523254I56154J0D01*
G37*
G36*
G01X2610846Y-4470400D02*
G03X2667000Y-4526554I56154J0D01*
G03X2723154Y-4470400I0J56154D01*
G03X2667000Y-4414246I-56154J0D01*
G03X2610846Y-4470400I0J-56154D01*
G37*
G36*
G01X5854700Y-3840754D02*
G03X5910854Y-3784600I0J56154D01*
G03X5854700Y-3728446I-56154J0D01*
G03X5798546Y-3784600I0J-56154D01*
G03X5854700Y-3840754I56154J0D01*
G37*
G36*
G01X5854700Y-4513854D02*
G03X5910854Y-4457700I0J56154D01*
G03X5854700Y-4401546I-56154J0D01*
G03X5798546Y-4457700I0J-56154D01*
G03X5854700Y-4513854I56154J0D01*
G37*
G36*
G01X1638300Y-1707154D02*
G03X1694454Y-1651000I0J56154D01*
G03X1638300Y-1594846I-56154J0D01*
G03X1582146Y-1651000I0J-56154D01*
G03X1638300Y-1707154I56154J0D01*
G37*
G36*
G01X4477746Y-4483100D02*
G03X4533900Y-4539254I56154J0D01*
G03X4590054Y-4483100I0J56154D01*
G03X4533900Y-4426946I-56154J0D01*
G03X4477746Y-4483100I0J-56154D01*
G37*
G36*
G01X3880846Y-1625600D02*
G03X3937000Y-1681754I56154J0D01*
G03X3993154Y-1625600I0J56154D01*
G03X3937000Y-1569446I-56154J0D01*
G03X3880846Y-1625600I0J-56154D01*
G37*
G36*
G01X1435100Y-4602754D02*
G03X1491254Y-4546600I0J56154D01*
G03X1435100Y-4490446I-56154J0D01*
G03X1378946Y-4546600I0J-56154D01*
G03X1435100Y-4602754I56154J0D01*
G37*
G36*
G01X1397000Y-3916954D02*
G03X1453154Y-3860800I0J56154D01*
G03X1397000Y-3804646I-56154J0D01*
G03X1340846Y-3860800I0J-56154D01*
G03X1397000Y-3916954I56154J0D01*
G37*
G36*
G01X3060700Y-4653554D02*
G03X3116854Y-4597400I0J56154D01*
G03X3060700Y-4541246I-56154J0D01*
G03X3004546Y-4597400I0J-56154D01*
G03X3060700Y-4653554I56154J0D01*
G37*
G36*
G01X4769846Y-4140200D02*
G03X4826000Y-4196354I56154J0D01*
G03X4882154Y-4140200I0J56154D01*
G03X4826000Y-4084046I-56154J0D01*
G03X4769846Y-4140200I0J-56154D01*
G37*
G36*
G01X2819400Y-6380754D02*
G03X2875554Y-6324600I0J56154D01*
G03X2819400Y-6268446I-56154J0D01*
G03X2763246Y-6324600I0J-56154D01*
G03X2819400Y-6380754I56154J0D01*
G37*
G36*
G01X4769846Y-2817713D02*
G03X4826000Y-2873868I56154J0D01*
G03X4882154Y-2817713I0J56154D01*
G03X4826000Y-2761559I-56154J0D01*
G03X4769846Y-2817713I0J-56154D01*
G37*
G36*
G01X5854700Y-1821454D02*
G03X5910854Y-1765300I0J56154D01*
G03X5854700Y-1709146I-56154J0D01*
G03X5798546Y-1765300I0J-56154D01*
G03X5854700Y-1821454I56154J0D01*
G37*
G36*
G01X1340846Y-2362200D02*
G03X1397000Y-2418354I56154J0D01*
G03X1453154Y-2362200I0J56154D01*
G03X1397000Y-2306046I-56154J0D01*
G03X1340846Y-2362200I0J-56154D01*
G37*
G36*
G01X1879600Y-2418354D02*
G03X1935754Y-2362200I0J56154D01*
G03X1879600Y-2306046I-56154J0D01*
G03X1823446Y-2362200I0J-56154D01*
G03X1879600Y-2418354I56154J0D01*
G37*
G36*
G01X3060700Y-4272554D02*
G03X3116854Y-4216400I0J56154D01*
G03X3060700Y-4160246I-56154J0D01*
G03X3004546Y-4216400I0J-56154D01*
G03X3060700Y-4272554I56154J0D01*
G37*
G36*
G01X4991100Y-6507754D02*
G03X5047254Y-6451600I0J56154D01*
G03X4991100Y-6395446I-56154J0D01*
G03X4934946Y-6451600I0J-56154D01*
G03X4991100Y-6507754I56154J0D01*
G37*
G36*
G01X4127500Y-6507754D02*
G03X4183654Y-6451600I0J56154D01*
G03X4127500Y-6395446I-56154J0D01*
G03X4071346Y-6451600I0J-56154D01*
G03X4127500Y-6507754I56154J0D01*
G37*
G36*
G01X2039346Y-6489700D02*
G03X2095500Y-6545854I56154J0D01*
G03X2151654Y-6489700I0J56154D01*
G03X2095500Y-6433546I-56154J0D01*
G03X2039346Y-6489700I0J-56154D01*
G37*
G36*
G01X6197600Y-20528554D02*
G03X6253754Y-20472400I0J56154D01*
G03X6197600Y-20416246I-56154J0D01*
G03X6141446Y-20472400I0J-56154D01*
G03X6197600Y-20528554I56154J0D01*
G37*
G36*
G01X1447800Y-6749054D02*
G03X1503954Y-6692900I0J56154D01*
G03X1447800Y-6636746I-56154J0D01*
G03X1391646Y-6692900I0J-56154D01*
G03X1447800Y-6749054I56154J0D01*
G37*
G36*
G01X1320800Y-6939554D02*
G03X1376954Y-6883400I0J56154D01*
G03X1320800Y-6827246I-56154J0D01*
G03X1264646Y-6883400I0J-56154D01*
G03X1320800Y-6939554I56154J0D01*
G37*
G36*
G01X1899646Y-9423400D02*
G03X1955800Y-9479554I56154J0D01*
G03X2011954Y-9423400I0J56154D01*
G03X1955800Y-9367246I-56154J0D01*
G03X1899646Y-9423400I0J-56154D01*
G37*
G36*
G01X1193800Y-6876054D02*
G03X1249954Y-6819900I0J56154D01*
G03X1193800Y-6763746I-56154J0D01*
G03X1137646Y-6819900I0J-56154D01*
G03X1193800Y-6876054I56154J0D01*
G37*
G36*
G01X2082800Y-9530354D02*
G03X2138954Y-9474200I0J56154D01*
G03X2082800Y-9418046I-56154J0D01*
G03X2026646Y-9474200I0J-56154D01*
G03X2082800Y-9530354I56154J0D01*
G37*
G36*
G01X2410224Y-6996072D02*
G03X2466378Y-7052226I56154J0D01*
G03X2522532Y-6996072I0J56154D01*
G03X2466378Y-6939918I-56154J0D01*
G03X2410224Y-6996072I0J-56154D01*
G37*
G36*
G01X1163046Y-9563100D02*
G03X1219200Y-9619254I56154J0D01*
G03X1275354Y-9563100I0J56154D01*
G03X1219200Y-9506946I-56154J0D01*
G03X1163046Y-9563100I0J-56154D01*
G37*
G36*
G01X4800600Y-7155454D02*
G03X4856754Y-7099300I0J56154D01*
G03X4800600Y-7043146I-56154J0D01*
G03X4744446Y-7099300I0J-56154D01*
G03X4800600Y-7155454I56154J0D01*
G37*
G36*
G01X2209800Y-9682754D02*
G03X2265954Y-9626600I0J56154D01*
G03X2209800Y-9570446I-56154J0D01*
G03X2153646Y-9626600I0J-56154D01*
G03X2209800Y-9682754I56154J0D01*
G37*
G36*
G01X2166346Y-6565900D02*
G03X2222500Y-6622054I56154J0D01*
G03X2278654Y-6565900I0J56154D01*
G03X2222500Y-6509746I-56154J0D01*
G03X2166346Y-6565900I0J-56154D01*
G37*
G36*
G01X1054100Y-9898654D02*
G03X1110254Y-9842500I0J56154D01*
G03X1054100Y-9786346I-56154J0D01*
G03X997946Y-9842500I0J-56154D01*
G03X1054100Y-9898654I56154J0D01*
G37*
G36*
G01X3398246Y-6642100D02*
G03X3454400Y-6698254I56154J0D01*
G03X3510554Y-6642100I0J56154D01*
G03X3454400Y-6585946I-56154J0D01*
G03X3398246Y-6642100I0J-56154D01*
G37*
G36*
G01X4089400Y-8996954D02*
G03X4145554Y-8940800I0J56154D01*
G03X4089400Y-8884646I-56154J0D01*
G03X4033246Y-8940800I0J-56154D01*
G03X4089400Y-8996954I56154J0D01*
G37*
G36*
G01X3322046Y-9067800D02*
G03X3378200Y-9123954I56154J0D01*
G03X3434354Y-9067800I0J56154D01*
G03X3378200Y-9011646I-56154J0D01*
G03X3322046Y-9067800I0J-56154D01*
G37*
G36*
G01X1066800Y-6749054D02*
G03X1122954Y-6692900I0J56154D01*
G03X1066800Y-6636746I-56154J0D01*
G03X1010646Y-6692900I0J-56154D01*
G03X1066800Y-6749054I56154J0D01*
G37*
G36*
G01X1574800Y-9301754D02*
G03X1630954Y-9245600I0J56154D01*
G03X1574800Y-9189446I-56154J0D01*
G03X1518646Y-9245600I0J-56154D01*
G03X1574800Y-9301754I56154J0D01*
G37*
G36*
G01X1645646Y-9321800D02*
G03X1701800Y-9377954I56154J0D01*
G03X1757954Y-9321800I0J56154D01*
G03X1701800Y-9265646I-56154J0D01*
G03X1645646Y-9321800I0J-56154D01*
G37*
G36*
G01X1955800Y-6749054D02*
G03X2011954Y-6692900I0J56154D01*
G03X1955800Y-6636746I-56154J0D01*
G03X1899646Y-6692900I0J-56154D01*
G03X1955800Y-6749054I56154J0D01*
G37*
G36*
G01X1391646Y-9321800D02*
G03X1447800Y-9377954I56154J0D01*
G03X1503954Y-9321800I0J56154D01*
G03X1447800Y-9265646I-56154J0D01*
G03X1391646Y-9321800I0J-56154D01*
G37*
G36*
G01X1828800Y-9428754D02*
G03X1884954Y-9372600I0J56154D01*
G03X1828800Y-9316446I-56154J0D01*
G03X1772646Y-9372600I0J-56154D01*
G03X1828800Y-9428754I56154J0D01*
G37*
G36*
G01X6446246Y-15773400D02*
G03X6502400Y-15829554I56154J0D01*
G03X6558554Y-15773400I0J56154D01*
G03X6502400Y-15717246I-56154J0D01*
G03X6446246Y-15773400I0J-56154D01*
G37*
G36*
G01X6629400Y-17086854D02*
G03X6685554Y-17030700I0J56154D01*
G03X6629400Y-16974546I-56154J0D01*
G03X6573246Y-17030700I0J-56154D01*
G03X6629400Y-17086854I56154J0D01*
G37*
G36*
G01X7843246Y-7442200D02*
G03X7899400Y-7498354I56154J0D01*
G03X7955554Y-7442200I0J56154D01*
G03X7899400Y-7386046I-56154J0D01*
G03X7843246Y-7442200I0J-56154D01*
G37*
G36*
G01X6573246Y-17538700D02*
G03X6629400Y-17594854I56154J0D01*
G03X6685554Y-17538700I0J56154D01*
G03X6629400Y-17482546I-56154J0D01*
G03X6573246Y-17538700I0J-56154D01*
G37*
G36*
G01X6629400Y-17988554D02*
G03X6685554Y-17932400I0J56154D01*
G03X6629400Y-17876246I-56154J0D01*
G03X6573246Y-17932400I0J-56154D01*
G03X6629400Y-17988554I56154J0D01*
G37*
G36*
G01X6578600Y-18991854D02*
G03X6634754Y-18935700I0J56154D01*
G03X6578600Y-18879546I-56154J0D01*
G03X6522446Y-18935700I0J-56154D01*
G03X6578600Y-18991854I56154J0D01*
G37*
G36*
G01X8407400Y-12235454D02*
G03X8463554Y-12179300I0J56154D01*
G03X8407400Y-12123146I-56154J0D01*
G03X8351246Y-12179300I0J-56154D01*
G03X8407400Y-12235454I56154J0D01*
G37*
G36*
G01X6591300Y-19499854D02*
G03X6647454Y-19443700I0J56154D01*
G03X6591300Y-19387546I-56154J0D01*
G03X6535146Y-19443700I0J-56154D01*
G03X6591300Y-19499854I56154J0D01*
G37*
G36*
G01X6591300Y-20007854D02*
G03X6647454Y-19951700I0J56154D01*
G03X6591300Y-19895546I-56154J0D01*
G03X6535146Y-19951700I0J-56154D01*
G03X6591300Y-20007854I56154J0D01*
G37*
G36*
G01X6805350Y-20361604D02*
G03X6861504Y-20305450I0J56154D01*
G03X6805350Y-20249296I-56154J0D01*
G03X6749196Y-20305450I0J-56154D01*
G03X6805350Y-20361604I56154J0D01*
G37*
G36*
G01X8122646Y-11367795D02*
G03X8178800Y-11423949I56154J0D01*
G03X8234954Y-11367795I0J56154D01*
G03X8178800Y-11311641I-56154J0D01*
G03X8122646Y-11367795I0J-56154D01*
G37*
G36*
G01X8407400Y-11219454D02*
G03X8463554Y-11163300I0J56154D01*
G03X8407400Y-11107146I-56154J0D01*
G03X8351246Y-11163300I0J-56154D01*
G03X8407400Y-11219454I56154J0D01*
G37*
G36*
G01X8407400Y-13124454D02*
G03X8463554Y-13068300I0J56154D01*
G03X8407400Y-13012146I-56154J0D01*
G03X8351246Y-13068300I0J-56154D01*
G03X8407400Y-13124454I56154J0D01*
G37*
G36*
G01X8191500Y-14915154D02*
G03X8247654Y-14859000I0J56154D01*
G03X8191500Y-14802846I-56154J0D01*
G03X8135346Y-14859000I0J-56154D01*
G03X8191500Y-14915154I56154J0D01*
G37*
G36*
G01X8351246Y-13576300D02*
G03X8407400Y-13632454I56154J0D01*
G03X8463554Y-13576300I0J56154D01*
G03X8407400Y-13520146I-56154J0D01*
G03X8351246Y-13576300I0J-56154D01*
G37*
G36*
G01X8407400Y-14140454D02*
G03X8463554Y-14084300I0J56154D01*
G03X8407400Y-14028146I-56154J0D01*
G03X8351246Y-14084300I0J-56154D01*
G03X8407400Y-14140454I56154J0D01*
G37*
G36*
G01X8026400Y-20960354D02*
G03X8082554Y-20904200I0J56154D01*
G03X8026400Y-20848046I-56154J0D01*
G03X7970246Y-20904200I0J-56154D01*
G03X8026400Y-20960354I56154J0D01*
G37*
%LPD*%
G36*
G01X495173Y-4499204D02*
G02X520573Y-4499204I12700J0D01*
G01Y-4615111D01*
G02X495173I-12700J0D01*
G01Y-4499204D01*
G37*
G36*
G01X520573Y-4499204D02*
G02X495173Y-4499204I-12700J0D01*
G01Y-4383296D01*
G02X520573I12700J0D01*
G01Y-4499204D01*
G37*
G36*
G01X9449765Y-744058D02*
G02X9475165Y-744058I12700J0D01*
G01Y-844966D01*
G02X9449765I-12700J0D01*
G01Y-744058D01*
G37*
G36*
G01X9475165Y-744058D02*
G02X9449765Y-744058I-12700J0D01*
G01Y-643150D01*
G02X9475165I12700J0D01*
G01Y-744058D01*
G37*
G36*
G01X10998200Y-982599D02*
G02X10972800Y-982599I-12700J0D01*
G01Y-892941D01*
G02X10998200I12700J0D01*
G01Y-982599D01*
G37*
G36*
G01X10972800Y-982599D02*
G02X10998200Y-982599I12700J0D01*
G01Y-1072257D01*
G02X10972800I-12700J0D01*
G01Y-982599D01*
G37*
G36*
G01X2496490Y-508005D02*
G02X2521890Y-508005I12700J0D01*
G01Y-613913D01*
G02X2496490I-12700J0D01*
G01Y-508005D01*
G37*
G36*
G01X2521890Y-508005D02*
G02X2496490Y-508005I-12700J0D01*
G01Y-402097D01*
G02X2521890I12700J0D01*
G01Y-508005D01*
G37*
G36*
G01X7598230Y-5488573D02*
G02X7572830Y-5488573I-12700J0D01*
G01Y-5377666D01*
G02X7598230I12700J0D01*
G01Y-5488573D01*
G37*
G36*
G01X7572830Y-5488573D02*
G02X7598230Y-5488573I12700J0D01*
G01Y-5599481D01*
G02X7572830I-12700J0D01*
G01Y-5488573D01*
G37*
G36*
G01X12484100Y-4727397D02*
G02X12458700Y-4727397I-12700J0D01*
G01Y-4586489D01*
G02X12484100I12700J0D01*
G01Y-4727397D01*
G37*
G36*
G01X12458700Y-4727397D02*
G02X12484100Y-4727397I12700J0D01*
G01Y-4868305D01*
G02X12458700I-12700J0D01*
G01Y-4727397D01*
G37*
G36*
G01X12407900Y-2006600D02*
G02X12433300Y-2006600I12700J0D01*
G01Y-2117508D01*
G02X12407900I-12700J0D01*
G01Y-2006600D01*
G37*
G36*
G01X12433300Y-2006600D02*
G02X12407900Y-2006600I-12700J0D01*
G01Y-1895692D01*
G02X12433300I12700J0D01*
G01Y-2006600D01*
G37*
G36*
G01X14389799Y-2311400D02*
G02X14364399Y-2311400I-12700J0D01*
G01Y-2206742D01*
G02X14389799I12700J0D01*
G01Y-2311400D01*
G37*
G36*
G01X14364399Y-2311400D02*
G02X14389799Y-2311400I12700J0D01*
G01Y-2416058D01*
G02X14364399I-12700J0D01*
G01Y-2311400D01*
G37*
G36*
G01X7595565Y-1773258D02*
G02X7570165Y-1773258I-12700J0D01*
G01Y-1662350D01*
G02X7595565I12700J0D01*
G01Y-1773258D01*
G37*
G36*
G01X7570165Y-1773258D02*
G02X7595565Y-1773258I12700J0D01*
G01Y-1884166D01*
G02X7570165I-12700J0D01*
G01Y-1773258D01*
G37*
G36*
G01X7594600Y-3632200D02*
G02X7569200Y-3632200I-12700J0D01*
G01Y-3521292D01*
G02X7594600I12700J0D01*
G01Y-3632200D01*
G37*
G36*
G01X7569200Y-3632200D02*
G02X7594600Y-3632200I12700J0D01*
G01Y-3743108D01*
G02X7569200I-12700J0D01*
G01Y-3632200D01*
G37*
G36*
G01X5867400Y-6121400D02*
G02X5842000Y-6121400I-12700J0D01*
G01Y-6016752D01*
G02X5867400I12700J0D01*
G01Y-6121400D01*
G37*
G36*
G01X5842000Y-6121400D02*
G02X5867400Y-6121400I12700J0D01*
G01Y-6226048D01*
G02X5842000I-12700J0D01*
G01Y-6121400D01*
G37*
G36*
G01X12420600Y-1185799D02*
G02X12395200Y-1185799I-12700J0D01*
G01Y-1096141D01*
G02X12420600I12700J0D01*
G01Y-1185799D01*
G37*
G36*
G01X12395200Y-1185799D02*
G02X12420600Y-1185799I12700J0D01*
G01Y-1275457D01*
G02X12395200I-12700J0D01*
G01Y-1185799D01*
G37*
G36*
G01X8928841Y-2634559D02*
G02X8954241Y-2634559I12700J0D01*
G01Y-2735867D01*
G02X8928841I-12700J0D01*
G01Y-2634559D01*
G37*
G36*
G01X8954241Y-2634559D02*
G02X8928841Y-2634559I-12700J0D01*
G01Y-2533251D01*
G02X8954241I12700J0D01*
G01Y-2634559D01*
G37*
G36*
G01X8699500Y-17424400D02*
G02X8674100Y-17424400I-12700J0D01*
G01Y-17322292D01*
G02X8699500I12700J0D01*
G01Y-17424400D01*
G37*
G36*
G01X8674100Y-17424400D02*
G02X8699500Y-17424400I12700J0D01*
G01Y-17526508D01*
G02X8674100I-12700J0D01*
G01Y-17424400D01*
G37*
G36*
G01X6667500Y-13462000D02*
G02X6692900Y-13462000I12700J0D01*
G01Y-13564108D01*
G02X6667500I-12700J0D01*
G01Y-13462000D01*
G37*
G36*
G01X6692900Y-13462000D02*
G02X6667500Y-13462000I-12700J0D01*
G01Y-13359892D01*
G02X6692900I12700J0D01*
G01Y-13462000D01*
G37*
G36*
G01X9462465Y-756758D02*
G02X9462465Y-731358I0J12700D01*
G01X9563373D01*
G02Y-756758I0J-12700D01*
G01X9462465D01*
G37*
G36*
G01X9361557Y-756758D02*
G02X9361557Y-731358I0J12700D01*
G01X9462465D01*
G02Y-756758I0J-12700D01*
G01X9361557D01*
G37*
G36*
G01X391965Y-4511904D02*
G02X391965Y-4486504I0J12700D01*
G01X507873D01*
G02Y-4511904I0J-12700D01*
G01X391965D01*
G37*
G36*
G01X507873Y-4511904D02*
G02X507873Y-4486504I0J12700D01*
G01X623781D01*
G02Y-4511904I0J-12700D01*
G01X507873D01*
G37*
G36*
G01X10769600Y-3404599D02*
G02X10769600Y-3379199I0J12700D01*
G01X10894508D01*
G02Y-3404599I0J-12700D01*
G01X10769600D01*
G37*
G36*
G01X10644692Y-3404599D02*
G02X10644692Y-3379199I0J12700D01*
G01X10769600D01*
G02Y-3404599I0J-12700D01*
G01X10644692D01*
G37*
G36*
G01X10985500Y-995299D02*
G02X10985500Y-969899I0J12700D01*
G01X11075158D01*
G02Y-995299I0J-12700D01*
G01X10985500D01*
G37*
G36*
G01X10895842Y-995299D02*
G02X10895842Y-969899I0J12700D01*
G01X10985500D01*
G02Y-995299I0J-12700D01*
G01X10895842D01*
G37*
G36*
G01X2509190Y-520705D02*
G02X2509190Y-495305I0J12700D01*
G01X2615098D01*
G02Y-520705I0J-12700D01*
G01X2509190D01*
G37*
G36*
G01X2403282Y-520705D02*
G02X2403282Y-495305I0J12700D01*
G01X2509190D01*
G02Y-520705I0J-12700D01*
G01X2403282D01*
G37*
G36*
G01X7474622Y-5501273D02*
G02X7474622Y-5475873I0J12700D01*
G01X7585530D01*
G02Y-5501273I0J-12700D01*
G01X7474622D01*
G37*
G36*
G01X7585530Y-5501273D02*
G02X7585530Y-5475873I0J12700D01*
G01X7696438D01*
G02Y-5501273I0J-12700D01*
G01X7585530D01*
G37*
G36*
G01X12471400Y-4740097D02*
G02X12471400Y-4714697I0J12700D01*
G01X12612308D01*
G02Y-4740097I0J-12700D01*
G01X12471400D01*
G37*
G36*
G01X12330492Y-4740097D02*
G02X12330492Y-4714697I0J12700D01*
G01X12471400D01*
G02Y-4740097I0J-12700D01*
G01X12330492D01*
G37*
G36*
G01X12420600Y-2019300D02*
G02X12420600Y-1993900I0J12700D01*
G01X12531508D01*
G02Y-2019300I0J-12700D01*
G01X12420600D01*
G37*
G36*
G01X12309692Y-2019300D02*
G02X12309692Y-1993900I0J12700D01*
G01X12420600D01*
G02Y-2019300I0J-12700D01*
G01X12309692D01*
G37*
G36*
G01X14272441Y-2324100D02*
G02X14272441Y-2298700I0J12700D01*
G01X14377099D01*
G02Y-2324100I0J-12700D01*
G01X14272441D01*
G37*
G36*
G01X14377099Y-2324100D02*
G02X14377099Y-2298700I0J12700D01*
G01X14481756D01*
G02Y-2324100I0J-12700D01*
G01X14377099D01*
G37*
G36*
G01X7471957Y-1785958D02*
G02X7471957Y-1760558I0J12700D01*
G01X7582865D01*
G02Y-1785958I0J-12700D01*
G01X7471957D01*
G37*
G36*
G01X7582865Y-1785958D02*
G02X7582865Y-1760558I0J12700D01*
G01X7693773D01*
G02Y-1785958I0J-12700D01*
G01X7582865D01*
G37*
G36*
G01X7470992Y-3644900D02*
G02X7470992Y-3619500I0J12700D01*
G01X7581900D01*
G02Y-3644900I0J-12700D01*
G01X7470992D01*
G37*
G36*
G01X7581900Y-3644900D02*
G02X7581900Y-3619500I0J12700D01*
G01X7692808D01*
G02Y-3644900I0J-12700D01*
G01X7581900D01*
G37*
G36*
G01X5750052Y-6134100D02*
G02X5750052Y-6108700I0J12700D01*
G01X5854700D01*
G02Y-6134100I0J-12700D01*
G01X5750052D01*
G37*
G36*
G01X5854700Y-6134100D02*
G02X5854700Y-6108700I0J12700D01*
G01X5959348D01*
G02Y-6134100I0J-12700D01*
G01X5854700D01*
G37*
G36*
G01X12407900Y-1198499D02*
G02X12407900Y-1173099I0J12700D01*
G01X12497558D01*
G02Y-1198499I0J-12700D01*
G01X12407900D01*
G37*
G36*
G01X12318242Y-1198499D02*
G02X12318242Y-1173099I0J12700D01*
G01X12407900D01*
G02Y-1198499I0J-12700D01*
G01X12318242D01*
G37*
G36*
G01X8941541Y-2647259D02*
G02X8941541Y-2621859I0J12700D01*
G01X9042849D01*
G02Y-2647259I0J-12700D01*
G01X8941541D01*
G37*
G36*
G01X8840233Y-2647259D02*
G02X8840233Y-2621859I0J12700D01*
G01X8941541D01*
G02Y-2647259I0J-12700D01*
G01X8840233D01*
G37*
G36*
G01X8686800Y-17437100D02*
G02X8686800Y-17411700I0J12700D01*
G01X8788908D01*
G02Y-17437100I0J-12700D01*
G01X8686800D01*
G37*
G36*
G01X8584692Y-17437100D02*
G02X8584692Y-17411700I0J12700D01*
G01X8686800D01*
G02Y-17437100I0J-12700D01*
G01X8584692D01*
G37*
G36*
G01X6578092Y-13474700D02*
G02X6578092Y-13449300I0J12700D01*
G01X6680200D01*
G02Y-13474700I0J-12700D01*
G01X6578092D01*
G37*
G36*
G01X6680200Y-13474700D02*
G02X6680200Y-13449300I0J12700D01*
G01X6782308D01*
G02Y-13474700I0J-12700D01*
G01X6680200D01*
G37*
G04 PlaneZone End*

G04 Pad Start*
G54D10*
G01X3315005Y-10934700D03*
G01X1764995Y-10934700D03*
G54D11*
G01X1764602Y-11582400D03*
G01X3264599Y-11582400D03*
G54D10*
G01X3315005Y-12433300D03*
G01X1764995Y-12433300D03*
G54D11*
G01X1764602Y-13081000D03*
G01X3264599Y-13081000D03*
G54D10*
G01X3315005Y-13931900D03*
G01X1764995Y-13931900D03*
G54D11*
G01X1764602Y-14579600D03*
G01X3264599Y-14579600D03*
G54D10*
G01X3315005Y-15430500D03*
G01X1764995Y-15430500D03*
G54D11*
G01X1764602Y-16078200D03*
G01X3264599Y-16078200D03*
G54D10*
G01X3315005Y-16929100D03*
G01X1764995Y-16929100D03*
G54D11*
G01X1764602Y-17576800D03*
G01X3264599Y-17576800D03*
G54D10*
G01X3315005Y-18427700D03*
G01X1764995Y-18427700D03*
G54D11*
G01X1764602Y-19075400D03*
G01X3264599Y-19075400D03*
G54D10*
G01X3315005Y-19926300D03*
G01X1764995Y-19926300D03*
G54D11*
G01X1764602Y-20574000D03*
G01X3264599Y-20574000D03*
G54D10*
G01X11670995Y-19837400D03*
G01X13221005Y-19837400D03*
G54D11*
G01X13221399Y-19189700D03*
G01X11721402Y-19189700D03*
G54D10*
G01X11670995Y-18338800D03*
G01X13221005Y-18338800D03*
G54D11*
G01X13221399Y-17691100D03*
G01X11721402Y-17691100D03*
G54D10*
G01X11670995Y-16840200D03*
G01X13221005Y-16840200D03*
G54D11*
G01X13221399Y-16192500D03*
G01X11721402Y-16192500D03*
G54D10*
G01X11670995Y-15341600D03*
G01X13221005Y-15341600D03*
G54D11*
G01X13221399Y-14693900D03*
G01X11721402Y-14693900D03*
G54D10*
G01X11670995Y-13843000D03*
G01X13221005Y-13843000D03*
G54D11*
G01X13221399Y-13195300D03*
G01X11721402Y-13195300D03*
G54D10*
G01X11670995Y-12344400D03*
G01X13221005Y-12344400D03*
G54D11*
G01X13221399Y-11696700D03*
G01X11721402Y-11696700D03*
G54D12*
G01X8686800Y-17424400D03*
G54D11*
G01X8686800Y-17678400D03*
G01X8686800Y-17932400D03*
G01X8686800Y-18186400D03*
G01X8686800Y-18440400D03*
G01X8686800Y-18694400D03*
G01X8686800Y-18948400D03*
G01X8686800Y-19202400D03*
G01X8686800Y-19456400D03*
G54D13*
G01X6680200Y-13462000D03*
G54D11*
G01X6680200Y-13208000D03*
G01X6680200Y-12954000D03*
G01X6680200Y-12700000D03*
G01X6680200Y-12446000D03*
G01X6680200Y-12192000D03*
G01X6680200Y-11938000D03*
G01X6680200Y-11684000D03*
G01X6680200Y-11430000D03*
G54D14*
G01X5410200Y-11696700D03*
G01X3632200Y-10934700D03*
G01X4394200Y-10934700D03*
G01X5410200Y-10934700D03*
G01X5410200Y-13195300D03*
G01X3632200Y-12433300D03*
G01X4394200Y-12433300D03*
G01X5410200Y-12433300D03*
G01X5410200Y-14693900D03*
G01X3632200Y-13931900D03*
G01X4394200Y-13931900D03*
G01X5410200Y-13931900D03*
G01X5410200Y-16192500D03*
G01X3632200Y-15430500D03*
G01X4394200Y-15430500D03*
G01X5410200Y-15430500D03*
G01X5410200Y-17691100D03*
G01X3632200Y-16929100D03*
G01X4394200Y-16929100D03*
G01X5410200Y-16929100D03*
G01X5410200Y-19189700D03*
G01X3632200Y-18427700D03*
G01X4394200Y-18427700D03*
G01X5410200Y-18427700D03*
G01X5410200Y-20688300D03*
G01X3632200Y-19926300D03*
G01X4394200Y-19926300D03*
G01X5410200Y-19926300D03*
G01X9575800Y-19075400D03*
G01X11353800Y-19837400D03*
G01X10591800Y-19837400D03*
G01X9575800Y-19837400D03*
G01X9575800Y-17576800D03*
G01X11353800Y-18338800D03*
G01X10591800Y-18338800D03*
G01X9575800Y-18338800D03*
G01X9575800Y-16078200D03*
G01X11353800Y-16840200D03*
G01X10591800Y-16840200D03*
G01X9575800Y-16840200D03*
G01X9575800Y-14579600D03*
G01X11353800Y-15341600D03*
G01X10591800Y-15341600D03*
G01X9575800Y-15341600D03*
G01X9575800Y-13081000D03*
G01X11353800Y-13843000D03*
G01X10591800Y-13843000D03*
G01X9575800Y-13843000D03*
G01X9575800Y-11582400D03*
G01X11353800Y-12344400D03*
G01X10591800Y-12344400D03*
G01X9575800Y-12344400D03*
G54D15*
G01X14020800Y-8661400D03*
G01X14020800Y-8153400D03*
G54D11*
G01X14020800Y-7049198D03*
G01X14020800Y-5549201D03*
G54D10*
G01X14744700Y-7340905D03*
G01X14744700Y-5790895D03*
G54D16*
G01X5854700Y-6121400D03*
G01X5600700Y-6121400D03*
G01X5346700Y-6121400D03*
G01X5092700Y-6121400D03*
G54D18*
G01X4838700Y-6121400D03*
G54D19*
G01X210693Y-13597699D03*
G01X830707Y-13097700D03*
G54D20*
G01X2259203Y-508005D03*
G54D10*
G01X2509190Y-508005D03*
G01X2759202Y-508005D03*
G01X3009214Y-508005D03*
G01X3259201Y-508005D03*
G01X3509213Y-508005D03*
G01X3759200Y-508005D03*
G01X4009212Y-508005D03*
G01X4259199Y-508005D03*
G01X4509211Y-508005D03*
G01X4759198Y-508005D03*
G01X5009210Y-508005D03*
G01X5259197Y-508005D03*
G54D19*
G01X508127Y-1749196D03*
G01X508000Y-2999207D03*
G01X507898Y-2749194D03*
G01X508051Y-2499208D03*
G01X508076Y-2249195D03*
G01X508102Y-1999209D03*
G01X508000Y-3249193D03*
G01X507975Y-3499206D03*
G01X507949Y-3749192D03*
G01X507924Y-3999154D03*
G01X507898Y-4249191D03*
G54D21*
G01X507873Y-4499204D03*
G54D14*
G01X12471400Y-3197403D03*
G01X12471400Y-3707409D03*
G01X12471400Y-4217391D03*
G01X12471400Y-4727397D03*
G54D22*
G01X14490700Y-4004500D03*
G54D19*
G01X14490700Y-4254513D03*
G01X14490700Y-4504499D03*
G54D23*
G01X13436600Y-4508500D03*
G01X13636600Y-4008501D03*
G54D24*
G01X7331530Y-5488573D03*
G54D25*
G01X7585530Y-5488573D03*
G54D24*
G01X7327900Y-3632200D03*
G54D25*
G01X7581900Y-3632200D03*
G54D24*
G01X7328865Y-1773258D03*
G54D25*
G01X7582865Y-1773258D03*
G54D26*
G01X635000Y-14325600D03*
G01X635000Y-14721599D03*
G01X635000Y-15117598D03*
G01X635000Y-15513598D03*
G01X635000Y-15909597D03*
G01X635000Y-16305596D03*
G01X635000Y-16701595D03*
G01X635000Y-17097594D03*
G54D27*
G01X14363700Y-16789400D03*
G54D26*
G01X14363700Y-16393401D03*
G01X14363700Y-15997402D03*
G01X14363700Y-15601402D03*
G01X14363700Y-15205403D03*
G01X14363700Y-14808200D03*
G01X14363700Y-14412201D03*
G01X14363700Y-14016202D03*
G01X14363700Y-13620202D03*
G01X14363700Y-13224203D03*
G54D28*
G01X9144000Y-7429500D03*
G54D29*
G01X9144000Y-7683500D03*
G01X9144000Y-7937500D03*
G01X9906000Y-7937500D03*
G01X9906000Y-7683500D03*
G01X9906000Y-7429500D03*
G54D30*
G01X11760200Y-6438900D03*
G01X11760200Y-8978895D03*
G54D24*
G01X7331530Y-4967873D03*
G54D25*
G01X7585530Y-4967873D03*
G54D24*
G01X7327900Y-3111500D03*
G54D25*
G01X7581900Y-3111500D03*
G54D31*
G01X10769600Y-3136900D03*
G54D32*
G01X10769600Y-3391899D03*
G01X10769600Y-3646899D03*
G54D24*
G01X7328865Y-1252558D03*
G54D25*
G01X7582865Y-1252558D03*
G54D33*
G01X13627100Y-2311400D03*
G54D34*
G01X14377099Y-2311400D03*
G54D35*
G01X10985500Y-482600D03*
G54D36*
G01X10985500Y-982599D03*
G54D37*
G01X9716464Y-744058D03*
G01X9462465Y-744058D03*
G01X9208465Y-744058D03*
G54D38*
G01X12674600Y-2006600D03*
G54D25*
G01X12420600Y-2006600D03*
G54D38*
G01X12674600Y-2527300D03*
G54D25*
G01X12420600Y-2527300D03*
G54D39*
G01X9195540Y-2634559D03*
G54D40*
G01X8941541Y-2634559D03*
G01X8687541Y-2634559D03*
G54D35*
G01X12407900Y-685800D03*
G54D36*
G01X12407900Y-1185799D03*
G54D41*
G01X10261600Y-4508500D03*
G01X10261600Y-2272504D03*
G54D19*
G01X12611100Y-7708900D03*
G01X12179795Y-7454887D03*
G01X12178805Y-7962913D03*
G04 Pad End*

G04 Via Start*
G54D15*
G01X13804900Y-7950200D03*
G01X14020800Y-8953500D03*
G54D42*
G01X14922500Y-8864600D03*
G01X14922500Y-8534400D03*
G01X14922500Y-8229600D03*
G01X14922500Y-7924800D03*
G01X14922500Y-7620000D03*
G01X14922500Y-7327900D03*
G01X14922500Y-6965950D03*
G54D25*
G01X10223500Y-6731000D03*
G01X10198100Y-8712200D03*
G54D42*
G01X3378200Y-9067800D03*
G01X4089400Y-8940800D03*
G01X2692400Y-6324600D03*
G01X2819400Y-6324600D03*
G01X2667000Y-4470400D03*
G01X2743200Y-4597400D03*
G01X1066800Y-6692900D03*
G01X1447800Y-6692900D03*
G01X3746500Y-6070600D03*
G01X3746500Y-5740400D03*
G01X2120900Y-5524500D03*
G01X1435100Y-4546600D03*
G01X1587500Y-4902200D03*
G01X3098800Y-8712200D03*
G01X6502400Y-16052800D03*
G01X6502400Y-15773400D03*
G01X8712200Y-15989300D03*
G01X5511800Y-8191500D03*
G01X5943600Y-3390900D03*
G01X6959600Y-5499100D03*
G01X4648200Y-6667500D03*
G01X1054100Y-9842500D03*
G01X546100Y-9842500D03*
G01X1955800Y-6692900D03*
G01X3454400Y-6642100D03*
G01X6629400Y-17030700D03*
G01X6629400Y-17538700D03*
G01X6629400Y-17932400D03*
G01X6578600Y-18935700D03*
G01X6591300Y-19443700D03*
G01X6591300Y-19951700D03*
G01X6197600Y-20472400D03*
G01X8026400Y-20904200D03*
G01X6805350Y-20305450D03*
G01X8191500Y-14859000D03*
G01X8407400Y-14084300D03*
G01X8407400Y-13576300D03*
G01X8407400Y-13068300D03*
G01X8407400Y-12179300D03*
G01X8407400Y-11163300D03*
G01X8178800Y-11367795D03*
G01X11595100Y-3746500D03*
G01X11595100Y-3924300D03*
G01X11595100Y-4089400D03*
G01X11595100Y-4254500D03*
G01X11595100Y-4432300D03*
G01X8712200Y-8775700D03*
G01X2209800Y-9626600D03*
G01X7899400Y-7442200D03*
G01X4826000Y-2120900D03*
G01X4826000Y-2817713D03*
G01X4826000Y-3467100D03*
G01X4826000Y-4140200D03*
G01X4826000Y-4813300D03*
G01X5854700Y-1765300D03*
G01X5854700Y-2438400D03*
G01X5854700Y-3111500D03*
G01X5854700Y-3784600D03*
G01X5854700Y-4457700D03*
G01X5943600Y-5207000D03*
G01X1574800Y-9245600D03*
G01X1701800Y-9321800D03*
G01X1828800Y-9372600D03*
G01X1955800Y-9423400D03*
G01X2082800Y-9474200D03*
G01X4089400Y-3759200D03*
G01X1219200Y-9563100D03*
G01X4800600Y-7099300D03*
G01X1447800Y-9321800D03*
G01X1193800Y-6819900D03*
G01X1320800Y-6883400D03*
G01X4114800Y-4584700D03*
G01X1943100Y-5892800D03*
G01X3060700Y-4597400D03*
G01X3060700Y-4216400D03*
G01X3937000Y-6248400D03*
G01X4013200Y-6350000D03*
G01X2466378Y-6996072D03*
G01X4127500Y-6451600D03*
G01X4991100Y-6451600D03*
G01X2070100Y-3073400D03*
G01X1917700Y-3213100D03*
G01X1397000Y-3860800D03*
G01X1397000Y-4267200D03*
G01X1879600Y-2362200D03*
G01X1397000Y-2362200D03*
G01X1638300Y-1651000D03*
G01X1638300Y-2476500D03*
G01X1638300Y-3187700D03*
G01X1638300Y-3975100D03*
G01X1739900Y-3695700D03*
G01X4533900Y-4483100D03*
G01X3695700Y-1841500D03*
G01X2095500Y-6489700D03*
G01X2222500Y-6565900D03*
G01X3937000Y-1625600D03*
G01X3822700Y-1752600D03*
G01X939800Y-6972300D03*
G01X4114800Y-5003800D03*
G01X5511800Y-7645400D03*
G01X215900Y-9842500D03*
G01X101600Y-3022600D03*
G01X1625600Y-7823200D03*
G01X2844800Y-7835900D03*
G01X5511800Y-9829800D03*
G01X4495800Y-9385300D03*
G01X1282700Y-1930400D03*
G01X2857500Y-2705100D03*
G01X4152900Y-2019300D03*
G04 Via End*

M02*
