G04 Layer: BottomSilkscreenLayer*
G04 EasyEDA Pro v2.1.49.573a4102.674264, 2024-03-15 18:46:32*
G04 Gerber Generator version 0.3*
G04 Scale: 100 percent, Rotated: No, Reflected: No*
G04 Dimensions in millimeters*
G04 Leading zeros omitted, absolute positions, 3 integers and 5 decimals*
%FSLAX35Y35*%
%MOMM*%
%ADD10C,0.1524*%
%ADD11C,0.4*%
%ADD12C,0.3*%
G75*


G04 Text Start*
G54D10*
G01X7591537Y-20220087D02*
G01X7656561Y-20220087D01*
G01X7591537Y-20220087D02*
G01X7591537Y-20248027D01*
G01X7594585Y-20257171D01*
G01X7597633Y-20260219D01*
G01X7603983Y-20263521D01*
G01X7610079D01*
G01X7616175Y-20260219D01*
G01X7619223Y-20257171D01*
G01X7622525Y-20248027D01*
G01Y-20220087D01*
G01X7622525Y-20241677D02*
G01X7656561Y-20263521D01*
G01X7591537Y-20299843D02*
G01X7591537Y-20333879D01*
G01X7616175Y-20315337D01*
G01Y-20324481D01*
G01X7619223Y-20330831D01*
G01X7622525Y-20333879D01*
G01X7631669Y-20336927D01*
G01X7638019D01*
G01X7647163Y-20333879D01*
G01X7653513Y-20327783D01*
G01X7656561Y-20318385D01*
G01Y-20308987D01*
G01X7653513Y-20299843D01*
G01X7650211Y-20296795D01*
G01X7644115Y-20293747D01*
G01X7600681Y-20404237D02*
G01X7594585Y-20401189D01*
G01X7591537Y-20391791D01*
G01Y-20385695D01*
G01X7594585Y-20376297D01*
G01X7603983Y-20370201D01*
G01X7619223Y-20367153D01*
G01X7634717D01*
G01X7647163Y-20370201D01*
G01X7653513Y-20376297D01*
G01X7656561Y-20385695D01*
G01Y-20388743D01*
G01X7653513Y-20397887D01*
G01X7647163Y-20404237D01*
G01X7638019Y-20407285D01*
G01X7634717D01*
G01X7625573Y-20404237D01*
G01X7619223Y-20397887D01*
G01X7616175Y-20388743D01*
G01Y-20385695D01*
G01X7619223Y-20376297D01*
G01X7625573Y-20370201D01*
G01X7634717Y-20367153D01*
G01X7985237Y-20220087D02*
G01X8050261Y-20220087D01*
G01X7985237Y-20220087D02*
G01X7985237Y-20248027D01*
G01X7988285Y-20257171D01*
G01X7991333Y-20260219D01*
G01X7997683Y-20263521D01*
G01X8003779D01*
G01X8009875Y-20260219D01*
G01X8012923Y-20257171D01*
G01X8016225Y-20248027D01*
G01Y-20220087D01*
G01X8016225Y-20241677D02*
G01X8050261Y-20263521D01*
G01X7985237Y-20299843D02*
G01X7985237Y-20333879D01*
G01X8009875Y-20315337D01*
G01Y-20324481D01*
G01X8012923Y-20330831D01*
G01X8016225Y-20333879D01*
G01X8025369Y-20336927D01*
G01X8031719D01*
G01X8040863Y-20333879D01*
G01X8047213Y-20327783D01*
G01X8050261Y-20318385D01*
G01Y-20308987D01*
G01X8047213Y-20299843D01*
G01X8043911Y-20296795D01*
G01X8037815Y-20293747D01*
G01X7985237Y-20410333D02*
G01X8050261Y-20379345D01*
G01X7985237Y-20367153D02*
G01X7985237Y-20410333D01*
G01X8378937Y-20220087D02*
G01X8443961Y-20220087D01*
G01X8378937Y-20220087D02*
G01X8378937Y-20248027D01*
G01X8381985Y-20257171D01*
G01X8385033Y-20260219D01*
G01X8391383Y-20263521D01*
G01X8397479D01*
G01X8403575Y-20260219D01*
G01X8406623Y-20257171D01*
G01X8409925Y-20248027D01*
G01Y-20220087D01*
G01X8409925Y-20241677D02*
G01X8443961Y-20263521D01*
G01X8378937Y-20299843D02*
G01X8378937Y-20333879D01*
G01X8403575Y-20315337D01*
G01Y-20324481D01*
G01X8406623Y-20330831D01*
G01X8409925Y-20333879D01*
G01X8419069Y-20336927D01*
G01X8425419D01*
G01X8434563Y-20333879D01*
G01X8440913Y-20327783D01*
G01X8443961Y-20318385D01*
G01Y-20308987D01*
G01X8440913Y-20299843D01*
G01X8437611Y-20296795D01*
G01X8431515Y-20293747D01*
G01X8378937Y-20382393D02*
G01X8381985Y-20373249D01*
G01X8388081Y-20370201D01*
G01X8394431D01*
G01X8400527Y-20373249D01*
G01X8403575Y-20379345D01*
G01X8406623Y-20391791D01*
G01X8409925Y-20401189D01*
G01X8416021Y-20407285D01*
G01X8422117Y-20410333D01*
G01X8431515D01*
G01X8437611Y-20407285D01*
G01X8440913Y-20404237D01*
G01X8443961Y-20394839D01*
G01Y-20382393D01*
G01X8440913Y-20373249D01*
G01X8437611Y-20370201D01*
G01X8431515Y-20367153D01*
G01X8422117D01*
G01X8416021Y-20370201D01*
G01X8409925Y-20376297D01*
G01X8406623Y-20385695D01*
G01X8403575Y-20397887D01*
G01X8400527Y-20404237D01*
G01X8394431Y-20407285D01*
G01X8388081D01*
G01X8381985Y-20404237D01*
G01X8378937Y-20394839D01*
G01Y-20382393D01*
G01X8772637Y-20220087D02*
G01X8837661Y-20220087D01*
G01X8772637Y-20220087D02*
G01X8772637Y-20248027D01*
G01X8775685Y-20257171D01*
G01X8778733Y-20260219D01*
G01X8785083Y-20263521D01*
G01X8791179D01*
G01X8797275Y-20260219D01*
G01X8800323Y-20257171D01*
G01X8803625Y-20248027D01*
G01Y-20220087D01*
G01X8803625Y-20241677D02*
G01X8837661Y-20263521D01*
G01X8772637Y-20299843D02*
G01X8772637Y-20333879D01*
G01X8797275Y-20315337D01*
G01Y-20324481D01*
G01X8800323Y-20330831D01*
G01X8803625Y-20333879D01*
G01X8812769Y-20336927D01*
G01X8819119D01*
G01X8828263Y-20333879D01*
G01X8834613Y-20327783D01*
G01X8837661Y-20318385D01*
G01Y-20308987D01*
G01X8834613Y-20299843D01*
G01X8831311Y-20296795D01*
G01X8825215Y-20293747D01*
G01X8794227Y-20407285D02*
G01X8803625Y-20404237D01*
G01X8809721Y-20397887D01*
G01X8812769Y-20388743D01*
G01Y-20385695D01*
G01X8809721Y-20376297D01*
G01X8803625Y-20370201D01*
G01X8794227Y-20367153D01*
G01X8791179D01*
G01X8781781Y-20370201D01*
G01X8775685Y-20376297D01*
G01X8772637Y-20385695D01*
G01Y-20388743D01*
G01X8775685Y-20397887D01*
G01X8781781Y-20404237D01*
G01X8794227Y-20407285D01*
G01X8809721D01*
G01X8825215Y-20404237D01*
G01X8834613Y-20397887D01*
G01X8837661Y-20388743D01*
G01Y-20382393D01*
G01X8834613Y-20373249D01*
G01X8828263Y-20370201D01*
G01X8905763Y-16495613D02*
G01X8840739Y-16495613D01*
G01X8905763Y-16495613D02*
G01X8905763Y-16467673D01*
G01X8902715Y-16458529D01*
G01X8899667Y-16455481D01*
G01X8893317Y-16452179D01*
G01X8887221D01*
G01X8881125Y-16455481D01*
G01X8878077Y-16458529D01*
G01X8874775Y-16467673D01*
G01Y-16495613D01*
G01X8874775Y-16474023D02*
G01X8840739Y-16452179D01*
G01X8905763Y-16391219D02*
G01X8862583Y-16421953D01*
G01Y-16375725D01*
G01X8905763Y-16391219D02*
G01X8840739Y-16391219D01*
G01X8905763Y-16326957D02*
G01X8902715Y-16336355D01*
G01X8893317Y-16342451D01*
G01X8878077Y-16345499D01*
G01X8868679D01*
G01X8853185Y-16342451D01*
G01X8843787Y-16336355D01*
G01X8840739Y-16326957D01*
G01Y-16320861D01*
G01X8843787Y-16311463D01*
G01X8853185Y-16305367D01*
G01X8868679Y-16302319D01*
G01X8878077D01*
G01X8893317Y-16305367D01*
G01X8902715Y-16311463D01*
G01X8905763Y-16320861D01*
G01Y-16326957D01*
G01X8499363Y-16495613D02*
G01X8434339Y-16495613D01*
G01X8499363Y-16495613D02*
G01X8499363Y-16467673D01*
G01X8496315Y-16458529D01*
G01X8493267Y-16455481D01*
G01X8486917Y-16452179D01*
G01X8480821D01*
G01X8474725Y-16455481D01*
G01X8471677Y-16458529D01*
G01X8468375Y-16467673D01*
G01Y-16495613D01*
G01X8468375Y-16474023D02*
G01X8434339Y-16452179D01*
G01X8499363Y-16391219D02*
G01X8456183Y-16421953D01*
G01Y-16375725D01*
G01X8499363Y-16391219D02*
G01X8434339Y-16391219D01*
G01X8486917Y-16345499D02*
G01X8490219Y-16339403D01*
G01X8499363Y-16330259D01*
G01X8434339D01*
G01X8092963Y-16495613D02*
G01X8027939Y-16495613D01*
G01X8092963Y-16495613D02*
G01X8092963Y-16467673D01*
G01X8089915Y-16458529D01*
G01X8086867Y-16455481D01*
G01X8080517Y-16452179D01*
G01X8074421D01*
G01X8068325Y-16455481D01*
G01X8065277Y-16458529D01*
G01X8061975Y-16467673D01*
G01Y-16495613D01*
G01X8061975Y-16474023D02*
G01X8027939Y-16452179D01*
G01X8092963Y-16391219D02*
G01X8049783Y-16421953D01*
G01Y-16375725D01*
G01X8092963Y-16391219D02*
G01X8027939Y-16391219D01*
G01X8077469Y-16342451D02*
G01X8080517Y-16342451D01*
G01X8086867Y-16339403D01*
G01X8089915Y-16336355D01*
G01X8092963Y-16330259D01*
G01Y-16317813D01*
G01X8089915Y-16311463D01*
G01X8086867Y-16308415D01*
G01X8080517Y-16305367D01*
G01X8074421D01*
G01X8068325Y-16308415D01*
G01X8058927Y-16314765D01*
G01X8027939Y-16345499D01*
G01Y-16302319D01*
G01X6988063Y-10920313D02*
G01X6923039Y-10920313D01*
G01X6988063Y-10920313D02*
G01X6988063Y-10892373D01*
G01X6985015Y-10883229D01*
G01X6981967Y-10880181D01*
G01X6975617Y-10876879D01*
G01X6969521D01*
G01X6963425Y-10880181D01*
G01X6960377Y-10883229D01*
G01X6957075Y-10892373D01*
G01Y-10920313D01*
G01X6957075Y-10898723D02*
G01X6923039Y-10876879D01*
G01X6988063Y-10815919D02*
G01X6944883Y-10846653D01*
G01Y-10800425D01*
G01X6988063Y-10815919D02*
G01X6923039Y-10815919D01*
G01X6988063Y-10739465D02*
G01X6944883Y-10770199D01*
G01Y-10723971D01*
G01X6988063Y-10739465D02*
G01X6923039Y-10739465D01*
G01X6505463Y-10920313D02*
G01X6440439Y-10920313D01*
G01X6505463Y-10920313D02*
G01X6505463Y-10892373D01*
G01X6502415Y-10883229D01*
G01X6499367Y-10880181D01*
G01X6493017Y-10876879D01*
G01X6486921D01*
G01X6480825Y-10880181D01*
G01X6477777Y-10883229D01*
G01X6474475Y-10892373D01*
G01Y-10920313D01*
G01X6474475Y-10898723D02*
G01X6440439Y-10876879D01*
G01X6505463Y-10815919D02*
G01X6462283Y-10846653D01*
G01Y-10800425D01*
G01X6505463Y-10815919D02*
G01X6440439Y-10815919D01*
G01X6496319Y-10733115D02*
G01X6502415Y-10736163D01*
G01X6505463Y-10745561D01*
G01Y-10751657D01*
G01X6502415Y-10761055D01*
G01X6493017Y-10767151D01*
G01X6477777Y-10770199D01*
G01X6462283D01*
G01X6449837Y-10767151D01*
G01X6443487Y-10761055D01*
G01X6440439Y-10751657D01*
G01Y-10748609D01*
G01X6443487Y-10739465D01*
G01X6449837Y-10733115D01*
G01X6458981Y-10730067D01*
G01X6462283D01*
G01X6471427Y-10733115D01*
G01X6477777Y-10739465D01*
G01X6480825Y-10748609D01*
G01Y-10751657D01*
G01X6477777Y-10761055D01*
G01X6471427Y-10767151D01*
G01X6462283Y-10770199D01*
G01X6016737Y-14035187D02*
G01X6081761Y-14035187D01*
G01X6016737Y-14035187D02*
G01X6016737Y-14063127D01*
G01X6019785Y-14072271D01*
G01X6022833Y-14075319D01*
G01X6029183Y-14078621D01*
G01X6035279D01*
G01X6041375Y-14075319D01*
G01X6044423Y-14072271D01*
G01X6047725Y-14063127D01*
G01Y-14035187D01*
G01X6047725Y-14056777D02*
G01X6081761Y-14078621D01*
G01X6016737Y-14139581D02*
G01X6059917Y-14108847D01*
G01Y-14155075D01*
G01X6016737Y-14139581D02*
G01X6081761Y-14139581D01*
G01X6016737Y-14228481D02*
G01X6081761Y-14197493D01*
G01X6016737Y-14185301D02*
G01X6016737Y-14228481D01*
G01X6219937Y-14606687D02*
G01X6284961Y-14606687D01*
G01X6219937Y-14606687D02*
G01X6219937Y-14634627D01*
G01X6222985Y-14643771D01*
G01X6226033Y-14646819D01*
G01X6232383Y-14650121D01*
G01X6238479D01*
G01X6244575Y-14646819D01*
G01X6247623Y-14643771D01*
G01X6250925Y-14634627D01*
G01Y-14606687D01*
G01X6250925Y-14628277D02*
G01X6284961Y-14650121D01*
G01X6219937Y-14711081D02*
G01X6263117Y-14680347D01*
G01Y-14726575D01*
G01X6219937Y-14711081D02*
G01X6284961Y-14711081D01*
G01X6219937Y-14772041D02*
G01X6222985Y-14762897D01*
G01X6229081Y-14759849D01*
G01X6235431D01*
G01X6241527Y-14762897D01*
G01X6244575Y-14768993D01*
G01X6247623Y-14781439D01*
G01X6250925Y-14790837D01*
G01X6257021Y-14796933D01*
G01X6263117Y-14799981D01*
G01X6272515D01*
G01X6278611Y-14796933D01*
G01X6281913Y-14793885D01*
G01X6284961Y-14784487D01*
G01Y-14772041D01*
G01X6281913Y-14762897D01*
G01X6278611Y-14759849D01*
G01X6272515Y-14756801D01*
G01X6263117D01*
G01X6257021Y-14759849D01*
G01X6250925Y-14765945D01*
G01X6247623Y-14775343D01*
G01X6244575Y-14787535D01*
G01X6241527Y-14793885D01*
G01X6235431Y-14796933D01*
G01X6229081D01*
G01X6222985Y-14793885D01*
G01X6219937Y-14784487D01*
G01Y-14772041D01*
G01X6410437Y-14035187D02*
G01X6475461Y-14035187D01*
G01X6410437Y-14035187D02*
G01X6410437Y-14063127D01*
G01X6413485Y-14072271D01*
G01X6416533Y-14075319D01*
G01X6422883Y-14078621D01*
G01X6428979D01*
G01X6435075Y-14075319D01*
G01X6438123Y-14072271D01*
G01X6441425Y-14063127D01*
G01Y-14035187D01*
G01X6441425Y-14056777D02*
G01X6475461Y-14078621D01*
G01X6410437Y-14139581D02*
G01X6453617Y-14108847D01*
G01Y-14155075D01*
G01X6410437Y-14139581D02*
G01X6475461Y-14139581D01*
G01X6432027Y-14225433D02*
G01X6441425Y-14222385D01*
G01X6447521Y-14216035D01*
G01X6450569Y-14206891D01*
G01Y-14203843D01*
G01X6447521Y-14194445D01*
G01X6441425Y-14188349D01*
G01X6432027Y-14185301D01*
G01X6428979D01*
G01X6419581Y-14188349D01*
G01X6413485Y-14194445D01*
G01X6410437Y-14203843D01*
G01Y-14206891D01*
G01X6413485Y-14216035D01*
G01X6419581Y-14222385D01*
G01X6432027Y-14225433D01*
G01X6447521D01*
G01X6463015Y-14222385D01*
G01X6472413Y-14216035D01*
G01X6475461Y-14206891D01*
G01Y-14200541D01*
G01X6472413Y-14191397D01*
G01X6466063Y-14188349D01*
G01X6626337Y-14606687D02*
G01X6691361Y-14606687D01*
G01X6626337Y-14606687D02*
G01X6626337Y-14634627D01*
G01X6629385Y-14643771D01*
G01X6632433Y-14646819D01*
G01X6638783Y-14650121D01*
G01X6644879D01*
G01X6650975Y-14646819D01*
G01X6654023Y-14643771D01*
G01X6657325Y-14634627D01*
G01Y-14606687D01*
G01X6657325Y-14628277D02*
G01X6691361Y-14650121D01*
G01X6626337Y-14717431D02*
G01X6626337Y-14686443D01*
G01X6654023Y-14683395D01*
G01X6650975Y-14686443D01*
G01X6647927Y-14695587D01*
G01Y-14704985D01*
G01X6650975Y-14714383D01*
G01X6657325Y-14720479D01*
G01X6666469Y-14723527D01*
G01X6672819D01*
G01X6681963Y-14720479D01*
G01X6688313Y-14714383D01*
G01X6691361Y-14704985D01*
G01Y-14695587D01*
G01X6688313Y-14686443D01*
G01X6685011Y-14683395D01*
G01X6678915Y-14680347D01*
G01X6626337Y-14772295D02*
G01X6629385Y-14762897D01*
G01X6638783Y-14756801D01*
G01X6654023Y-14753753D01*
G01X6663421D01*
G01X6678915Y-14756801D01*
G01X6688313Y-14762897D01*
G01X6691361Y-14772295D01*
G01Y-14778391D01*
G01X6688313Y-14787789D01*
G01X6678915Y-14793885D01*
G01X6663421Y-14796933D01*
G01X6654023D01*
G01X6638783Y-14793885D01*
G01X6629385Y-14787789D01*
G01X6626337Y-14778391D01*
G01Y-14772295D01*
G01X7487211Y-20603082D02*
G01X7440729Y-20603082D01*
G01X7431585Y-20600034D01*
G01X7425235Y-20593684D01*
G01X7422187Y-20584540D01*
G01Y-20578190D01*
G01X7425235Y-20569046D01*
G01X7431585Y-20562950D01*
G01X7440729Y-20559648D01*
G01X7487211D01*
G01X7487211Y-20498688D02*
G01X7444031Y-20529422D01*
G01Y-20483194D01*
G01X7487211Y-20498688D02*
G01X7422187Y-20498688D01*
G01X7487211Y-20446872D02*
G01X7487211Y-20412836D01*
G01X7462573Y-20431378D01*
G01Y-20422234D01*
G01X7459525Y-20415884D01*
G01X7456223Y-20412836D01*
G01X7447079Y-20409788D01*
G01X7440729D01*
G01X7431585Y-20412836D01*
G01X7425235Y-20418932D01*
G01X7422187Y-20428330D01*
G01Y-20437728D01*
G01X7425235Y-20446872D01*
G01X7428537Y-20449920D01*
G01X7434633Y-20452968D01*
G01X7487211Y-18190082D02*
G01X7440729Y-18190082D01*
G01X7431585Y-18187034D01*
G01X7425235Y-18180684D01*
G01X7422187Y-18171540D01*
G01Y-18165190D01*
G01X7425235Y-18156046D01*
G01X7431585Y-18149950D01*
G01X7440729Y-18146648D01*
G01X7487211D01*
G01X7465621Y-18076290D02*
G01X7456223Y-18079338D01*
G01X7450127Y-18085688D01*
G01X7447079Y-18094832D01*
G01Y-18097880D01*
G01X7450127Y-18107278D01*
G01X7456223Y-18113374D01*
G01X7465621Y-18116422D01*
G01X7468669D01*
G01X7478067Y-18113374D01*
G01X7484163Y-18107278D01*
G01X7487211Y-18097880D01*
G01Y-18094832D01*
G01X7484163Y-18085688D01*
G01X7478067Y-18079338D01*
G01X7465621Y-18076290D01*
G01X7450127D01*
G01X7434633Y-18079338D01*
G01X7425235Y-18085688D01*
G01X7422187Y-18094832D01*
G01Y-18101182D01*
G01X7425235Y-18110326D01*
G01X7431585Y-18113374D01*
G01X7498789Y-10511918D02*
G01X7545271Y-10511918D01*
G01X7554415Y-10514966D01*
G01X7560765Y-10521316D01*
G01X7563813Y-10530460D01*
G01Y-10536810D01*
G01X7560765Y-10545954D01*
G01X7554415Y-10552050D01*
G01X7545271Y-10555352D01*
G01X7498789D01*
G01X7511235Y-10585578D02*
G01X7507933Y-10591674D01*
G01X7498789Y-10600818D01*
G01X7563813D01*
G01X7498789Y-10649586D02*
G01X7501837Y-10640188D01*
G01X7511235Y-10634092D01*
G01X7526475Y-10631044D01*
G01X7535873D01*
G01X7551367Y-10634092D01*
G01X7560765Y-10640188D01*
G01X7563813Y-10649586D01*
G01Y-10655682D01*
G01X7560765Y-10665080D01*
G01X7551367Y-10671176D01*
G01X7535873Y-10674224D01*
G01X7526475D01*
G01X7511235Y-10671176D01*
G01X7501837Y-10665080D01*
G01X7498789Y-10655682D01*
G01Y-10649586D01*
G01X7498789Y-12924918D02*
G01X7545271Y-12924918D01*
G01X7554415Y-12927966D01*
G01X7560765Y-12934316D01*
G01X7563813Y-12943460D01*
G01Y-12949810D01*
G01X7560765Y-12958954D01*
G01X7554415Y-12965050D01*
G01X7545271Y-12968352D01*
G01X7498789D01*
G01X7511235Y-12998578D02*
G01X7507933Y-13004674D01*
G01X7498789Y-13013818D01*
G01X7563813D01*
G01X7511235Y-13044044D02*
G01X7507933Y-13050140D01*
G01X7498789Y-13059284D01*
G01X7563813D01*
G04 Text End*

G04 PolygonModel Start*
G01X7889509Y-20443820D02*
G01X7889509Y-20572313D01*
G01X7889509Y-20572313D02*
G01X7706091Y-20572313D01*
G01X7706091Y-20572313D02*
G01X7706091Y-20443820D01*
G01X7889509Y-20348580D02*
G01X7889509Y-20220087D01*
G01X7889509Y-20220087D02*
G01X7706091Y-20220087D01*
G01X7706091Y-20220087D02*
G01X7706091Y-20348580D01*
G01X8283209Y-20443820D02*
G01X8283209Y-20572313D01*
G01X8283209Y-20572313D02*
G01X8099791Y-20572313D01*
G01X8099791Y-20572313D02*
G01X8099791Y-20443820D01*
G01X8283209Y-20348580D02*
G01X8283209Y-20220087D01*
G01X8283209Y-20220087D02*
G01X8099791Y-20220087D01*
G01X8099791Y-20220087D02*
G01X8099791Y-20348580D01*
G01X8676909Y-20443820D02*
G01X8676909Y-20572313D01*
G01X8676909Y-20572313D02*
G01X8493491Y-20572313D01*
G01X8493491Y-20572313D02*
G01X8493491Y-20443820D01*
G01X8676909Y-20348580D02*
G01X8676909Y-20220087D01*
G01X8676909Y-20220087D02*
G01X8493491Y-20220087D01*
G01X8493491Y-20220087D02*
G01X8493491Y-20348580D01*
G01X9070609Y-20443820D02*
G01X9070609Y-20572313D01*
G01X9070609Y-20572313D02*
G01X8887191Y-20572313D01*
G01X8887191Y-20572313D02*
G01X8887191Y-20443820D01*
G01X9070609Y-20348580D02*
G01X9070609Y-20220087D01*
G01X9070609Y-20220087D02*
G01X8887191Y-20220087D01*
G01X8887191Y-20220087D02*
G01X8887191Y-20348580D01*
G01X8607791Y-16271880D02*
G01X8607791Y-16143387D01*
G01X8607791Y-16143387D02*
G01X8791209Y-16143387D01*
G01X8791209Y-16143387D02*
G01X8791209Y-16271880D01*
G01X8607791Y-16367120D02*
G01X8607791Y-16495613D01*
G01X8607791Y-16495613D02*
G01X8791209Y-16495613D01*
G01X8791209Y-16495613D02*
G01X8791209Y-16367120D01*
G01X8201391Y-16271880D02*
G01X8201391Y-16143387D01*
G01X8201391Y-16143387D02*
G01X8384809Y-16143387D01*
G01X8384809Y-16143387D02*
G01X8384809Y-16271880D01*
G01X8201391Y-16367120D02*
G01X8201391Y-16495613D01*
G01X8201391Y-16495613D02*
G01X8384809Y-16495613D01*
G01X8384809Y-16495613D02*
G01X8384809Y-16367120D01*
G01X7794991Y-16271880D02*
G01X7794991Y-16143387D01*
G01X7794991Y-16143387D02*
G01X7978409Y-16143387D01*
G01X7978409Y-16143387D02*
G01X7978409Y-16271880D01*
G01X7794991Y-16367120D02*
G01X7794991Y-16495613D01*
G01X7794991Y-16495613D02*
G01X7978409Y-16495613D01*
G01X7978409Y-16495613D02*
G01X7978409Y-16367120D01*
G01X6690091Y-10696580D02*
G01X6690091Y-10568087D01*
G01X6690091Y-10568087D02*
G01X6873509Y-10568087D01*
G01X6873509Y-10568087D02*
G01X6873509Y-10696580D01*
G01X6690091Y-10791820D02*
G01X6690091Y-10920313D01*
G01X6690091Y-10920313D02*
G01X6873509Y-10920313D01*
G01X6873509Y-10920313D02*
G01X6873509Y-10791820D01*
G01X6207491Y-10696580D02*
G01X6207491Y-10568087D01*
G01X6207491Y-10568087D02*
G01X6390909Y-10568087D01*
G01X6390909Y-10568087D02*
G01X6390909Y-10696580D01*
G01X6207491Y-10791820D02*
G01X6207491Y-10920313D01*
G01X6207491Y-10920313D02*
G01X6390909Y-10920313D01*
G01X6390909Y-10920313D02*
G01X6390909Y-10791820D01*
G01X6314709Y-14258920D02*
G01X6314709Y-14387413D01*
G01X6314709Y-14387413D02*
G01X6131291Y-14387413D01*
G01X6131291Y-14387413D02*
G01X6131291Y-14258920D01*
G01X6314709Y-14163680D02*
G01X6314709Y-14035187D01*
G01X6314709Y-14035187D02*
G01X6131291Y-14035187D01*
G01X6131291Y-14035187D02*
G01X6131291Y-14163680D01*
G01X6517909Y-14830420D02*
G01X6517909Y-14958913D01*
G01X6517909Y-14958913D02*
G01X6334491Y-14958913D01*
G01X6334491Y-14958913D02*
G01X6334491Y-14830420D01*
G01X6517909Y-14735180D02*
G01X6517909Y-14606687D01*
G01X6517909Y-14606687D02*
G01X6334491Y-14606687D01*
G01X6334491Y-14606687D02*
G01X6334491Y-14735180D01*
G01X6708409Y-14258920D02*
G01X6708409Y-14387413D01*
G01X6708409Y-14387413D02*
G01X6524991Y-14387413D01*
G01X6524991Y-14387413D02*
G01X6524991Y-14258920D01*
G01X6708409Y-14163680D02*
G01X6708409Y-14035187D01*
G01X6708409Y-14035187D02*
G01X6524991Y-14035187D01*
G01X6524991Y-14035187D02*
G01X6524991Y-14163680D01*
G01X6924309Y-14830420D02*
G01X6924309Y-14958913D01*
G01X6924309Y-14958913D02*
G01X6740891Y-14958913D01*
G01X6740891Y-14958913D02*
G01X6740891Y-14830420D01*
G01X6924309Y-14735180D02*
G01X6924309Y-14606687D01*
G01X6924309Y-14606687D02*
G01X6740891Y-14606687D01*
G01X6740891Y-14606687D02*
G01X6740891Y-14735180D01*
G01X6529680Y-20568318D02*
G01X7084720Y-20568318D01*
G01X7084720Y-20568318D02*
G01X7084720Y-18573082D01*
G01X7084720Y-18573082D02*
G01X6529680Y-18573082D01*
G01X6529680Y-18573082D02*
G01X6529680Y-20568318D01*
G01X6529680Y-18155318D02*
G01X7084720Y-18155318D01*
G01X7084720Y-18155318D02*
G01X7084720Y-16160082D01*
G01X7084720Y-16160082D02*
G01X6529680Y-16160082D01*
G01X6529680Y-16160082D02*
G01X6529680Y-18155318D01*
G01X8456320Y-10546682D02*
G01X7901280Y-10546682D01*
G01X7901280Y-10546682D02*
G01X7901280Y-12541918D01*
G01X7901280Y-12541918D02*
G01X8456320Y-12541918D01*
G01X8456320Y-12541918D02*
G01X8456320Y-10546682D01*
G01X8456320Y-12959682D02*
G01X7901280Y-12959682D01*
G01X7901280Y-12959682D02*
G01X7901280Y-14954918D01*
G01X7901280Y-14954918D02*
G01X8456320Y-14954918D01*
G01X8456320Y-14954918D02*
G01X8456320Y-12959682D01*
G04 PolygonModel End*

G04 Circle Start*
G54D11*
G01X6577200Y-20500701D02*
G03X6617200Y-20500701I20000J0D01*
G03X6577200I-20000J0D01*
G54D12*
G01X6412200Y-20580701D02*
G03X6442202Y-20580701I15001J0D01*
G03X6412200I-15001J0D01*
G54D11*
G01X6577200Y-18087701D02*
G03X6617200Y-18087701I20000J0D01*
G03X6577200I-20000J0D01*
G54D12*
G01X6412200Y-18167701D02*
G03X6442202Y-18167701I15001J0D01*
G03X6412200I-15001J0D01*
G54D11*
G01X8368800Y-10614299D02*
G03X8408800Y-10614299I20000J0D01*
G03X8368800I-20000J0D01*
G54D12*
G01X8543798Y-10534299D02*
G03X8573800Y-10534299I15001J0D01*
G03X8543798I-15001J0D01*
G54D11*
G01X8368800Y-13027299D02*
G03X8408800Y-13027299I20000J0D01*
G03X8368800I-20000J0D01*
G54D12*
G01X8543798Y-12947299D02*
G03X8573800Y-12947299I15001J0D01*
G03X8543798I-15001J0D01*
G04 Circle End*

M02*
