G04 Layer: BottomPasteMaskLayer*
G04 EasyEDA Pro v2.1.49.573a4102.674264, 2024-03-15 18:46:32*
G04 Gerber Generator version 0.3*
G04 Scale: 100 percent, Rotated: No, Reflected: No*
G04 Dimensions in millimeters*
G04 Leading zeros omitted, absolute positions, 3 integers and 5 decimals*
%FSLAX35Y35*%
%MOMM*%
%ADD10R,2.59999X1.4224*%
%ADD11R,2.59999X1.4224*%
G75*


G04 PolygonModel Start*
G36*
G01X7861800Y-20226198D02*
G01X7733802Y-20226198D01*
G01X7728801Y-20231199D01*
G01Y-20346200D01*
G01X7733802Y-20351199D01*
G01X7774805Y-20351702D01*
G01Y-20306701D01*
G01X7819804D01*
G01Y-20350701D01*
G01X7861800Y-20351199D01*
G01X7866802Y-20346200D01*
G01Y-20231199D01*
G01X7861800Y-20226198D01*
G37*
G36*
G01X7861800Y-20441199D02*
G01X7819804Y-20441201D01*
G01Y-20485699D01*
G01X7774805D01*
G01Y-20441702D01*
G01X7733802Y-20441199D01*
G01X7728801Y-20446200D01*
G01Y-20561198D01*
G01X7733802Y-20566200D01*
G01X7861800D01*
G01X7866802Y-20561198D01*
G01Y-20446200D01*
G01X7861800Y-20441199D01*
G37*
G36*
G01X8255500Y-20226198D02*
G01X8127502Y-20226198D01*
G01X8122501Y-20231199D01*
G01Y-20346200D01*
G01X8127502Y-20351199D01*
G01X8168505Y-20351702D01*
G01Y-20306701D01*
G01X8213504D01*
G01Y-20350701D01*
G01X8255500Y-20351199D01*
G01X8260502Y-20346200D01*
G01Y-20231199D01*
G01X8255500Y-20226198D01*
G37*
G36*
G01X8255500Y-20441199D02*
G01X8213504Y-20441201D01*
G01Y-20485699D01*
G01X8168505D01*
G01Y-20441702D01*
G01X8127502Y-20441199D01*
G01X8122501Y-20446200D01*
G01Y-20561198D01*
G01X8127502Y-20566200D01*
G01X8255500D01*
G01X8260502Y-20561198D01*
G01Y-20446200D01*
G01X8255500Y-20441199D01*
G37*
G36*
G01X8649200Y-20226198D02*
G01X8521202Y-20226198D01*
G01X8516201Y-20231199D01*
G01Y-20346200D01*
G01X8521202Y-20351199D01*
G01X8562205Y-20351702D01*
G01Y-20306701D01*
G01X8607204D01*
G01Y-20350701D01*
G01X8649200Y-20351199D01*
G01X8654202Y-20346200D01*
G01Y-20231199D01*
G01X8649200Y-20226198D01*
G37*
G36*
G01X8649200Y-20441199D02*
G01X8607204Y-20441201D01*
G01Y-20485699D01*
G01X8562205D01*
G01Y-20441702D01*
G01X8521202Y-20441199D01*
G01X8516201Y-20446200D01*
G01Y-20561198D01*
G01X8521202Y-20566200D01*
G01X8649200D01*
G01X8654202Y-20561198D01*
G01Y-20446200D01*
G01X8649200Y-20441199D01*
G37*
G36*
G01X9042900Y-20226198D02*
G01X8914902Y-20226198D01*
G01X8909901Y-20231199D01*
G01Y-20346200D01*
G01X8914902Y-20351199D01*
G01X8955905Y-20351702D01*
G01Y-20306701D01*
G01X9000904D01*
G01Y-20350701D01*
G01X9042900Y-20351199D01*
G01X9047902Y-20346200D01*
G01Y-20231199D01*
G01X9042900Y-20226198D01*
G37*
G36*
G01X9042900Y-20441199D02*
G01X9000904Y-20441201D01*
G01Y-20485699D01*
G01X8955905D01*
G01Y-20441702D01*
G01X8914902Y-20441199D01*
G01X8909901Y-20446200D01*
G01Y-20561198D01*
G01X8914902Y-20566200D01*
G01X9042900D01*
G01X9047902Y-20561198D01*
G01Y-20446200D01*
G01X9042900Y-20441199D01*
G37*
G36*
G01X8635500Y-16489502D02*
G01X8763498Y-16489502D01*
G01X8768499Y-16484501D01*
G01Y-16369500D01*
G01X8763498Y-16364501D01*
G01X8722495Y-16363998D01*
G01Y-16408999D01*
G01X8677496D01*
G01Y-16364999D01*
G01X8635500Y-16364501D01*
G01X8630498Y-16369500D01*
G01Y-16484501D01*
G01X8635500Y-16489502D01*
G37*
G36*
G01X8635500Y-16274501D02*
G01X8677496Y-16274499D01*
G01Y-16230001D01*
G01X8722495D01*
G01Y-16273998D01*
G01X8763498Y-16274501D01*
G01X8768499Y-16269500D01*
G01Y-16154502D01*
G01X8763498Y-16149500D01*
G01X8635500D01*
G01X8630498Y-16154502D01*
G01Y-16269500D01*
G01X8635500Y-16274501D01*
G37*
G36*
G01X8229100Y-16489502D02*
G01X8357098Y-16489502D01*
G01X8362099Y-16484501D01*
G01Y-16369500D01*
G01X8357098Y-16364501D01*
G01X8316095Y-16363998D01*
G01Y-16408999D01*
G01X8271096D01*
G01Y-16364999D01*
G01X8229100Y-16364501D01*
G01X8224098Y-16369500D01*
G01Y-16484501D01*
G01X8229100Y-16489502D01*
G37*
G36*
G01X8229100Y-16274501D02*
G01X8271096Y-16274499D01*
G01Y-16230001D01*
G01X8316095D01*
G01Y-16273998D01*
G01X8357098Y-16274501D01*
G01X8362099Y-16269500D01*
G01Y-16154502D01*
G01X8357098Y-16149500D01*
G01X8229100D01*
G01X8224098Y-16154502D01*
G01Y-16269500D01*
G01X8229100Y-16274501D01*
G37*
G36*
G01X7822700Y-16489502D02*
G01X7950698Y-16489502D01*
G01X7955699Y-16484501D01*
G01Y-16369500D01*
G01X7950698Y-16364501D01*
G01X7909695Y-16363998D01*
G01Y-16408999D01*
G01X7864696D01*
G01Y-16364999D01*
G01X7822700Y-16364501D01*
G01X7817698Y-16369500D01*
G01Y-16484501D01*
G01X7822700Y-16489502D01*
G37*
G36*
G01X7822700Y-16274501D02*
G01X7864696Y-16274499D01*
G01Y-16230001D01*
G01X7909695D01*
G01Y-16273998D01*
G01X7950698Y-16274501D01*
G01X7955699Y-16269500D01*
G01Y-16154502D01*
G01X7950698Y-16149500D01*
G01X7822700D01*
G01X7817698Y-16154502D01*
G01Y-16269500D01*
G01X7822700Y-16274501D01*
G37*
G36*
G01X6717800Y-10914202D02*
G01X6845798Y-10914202D01*
G01X6850799Y-10909201D01*
G01Y-10794200D01*
G01X6845798Y-10789201D01*
G01X6804795Y-10788698D01*
G01Y-10833699D01*
G01X6759796D01*
G01Y-10789699D01*
G01X6717800Y-10789201D01*
G01X6712798Y-10794200D01*
G01Y-10909201D01*
G01X6717800Y-10914202D01*
G37*
G36*
G01X6717800Y-10699201D02*
G01X6759796Y-10699199D01*
G01Y-10654701D01*
G01X6804795D01*
G01Y-10698698D01*
G01X6845798Y-10699201D01*
G01X6850799Y-10694200D01*
G01Y-10579202D01*
G01X6845798Y-10574200D01*
G01X6717800D01*
G01X6712798Y-10579202D01*
G01Y-10694200D01*
G01X6717800Y-10699201D01*
G37*
G36*
G01X6235200Y-10914202D02*
G01X6363198Y-10914202D01*
G01X6368199Y-10909201D01*
G01Y-10794200D01*
G01X6363198Y-10789201D01*
G01X6322195Y-10788698D01*
G01Y-10833699D01*
G01X6277196D01*
G01Y-10789699D01*
G01X6235200Y-10789201D01*
G01X6230198Y-10794200D01*
G01Y-10909201D01*
G01X6235200Y-10914202D01*
G37*
G36*
G01X6235200Y-10699201D02*
G01X6277196Y-10699199D01*
G01Y-10654701D01*
G01X6322195D01*
G01Y-10698698D01*
G01X6363198Y-10699201D01*
G01X6368199Y-10694200D01*
G01Y-10579202D01*
G01X6363198Y-10574200D01*
G01X6235200D01*
G01X6230198Y-10579202D01*
G01Y-10694200D01*
G01X6235200Y-10699201D01*
G37*
G36*
G01X6287000Y-14041298D02*
G01X6159002Y-14041298D01*
G01X6154001Y-14046299D01*
G01Y-14161300D01*
G01X6159002Y-14166299D01*
G01X6200005Y-14166802D01*
G01Y-14121801D01*
G01X6245004D01*
G01Y-14165801D01*
G01X6287000Y-14166299D01*
G01X6292002Y-14161300D01*
G01Y-14046299D01*
G01X6287000Y-14041298D01*
G37*
G36*
G01X6287000Y-14256299D02*
G01X6245004Y-14256301D01*
G01Y-14300799D01*
G01X6200005D01*
G01Y-14256802D01*
G01X6159002Y-14256299D01*
G01X6154001Y-14261300D01*
G01Y-14376298D01*
G01X6159002Y-14381300D01*
G01X6287000D01*
G01X6292002Y-14376298D01*
G01Y-14261300D01*
G01X6287000Y-14256299D01*
G37*
G36*
G01X6490200Y-14612798D02*
G01X6362202Y-14612798D01*
G01X6357201Y-14617799D01*
G01Y-14732800D01*
G01X6362202Y-14737799D01*
G01X6403205Y-14738302D01*
G01Y-14693301D01*
G01X6448204D01*
G01Y-14737301D01*
G01X6490200Y-14737799D01*
G01X6495202Y-14732800D01*
G01Y-14617799D01*
G01X6490200Y-14612798D01*
G37*
G36*
G01X6490200Y-14827799D02*
G01X6448204Y-14827801D01*
G01Y-14872299D01*
G01X6403205D01*
G01Y-14828302D01*
G01X6362202Y-14827799D01*
G01X6357201Y-14832800D01*
G01Y-14947798D01*
G01X6362202Y-14952800D01*
G01X6490200D01*
G01X6495202Y-14947798D01*
G01Y-14832800D01*
G01X6490200Y-14827799D01*
G37*
G36*
G01X6680700Y-14041298D02*
G01X6552702Y-14041298D01*
G01X6547701Y-14046299D01*
G01Y-14161300D01*
G01X6552702Y-14166299D01*
G01X6593705Y-14166802D01*
G01Y-14121801D01*
G01X6638704D01*
G01Y-14165801D01*
G01X6680700Y-14166299D01*
G01X6685702Y-14161300D01*
G01Y-14046299D01*
G01X6680700Y-14041298D01*
G37*
G36*
G01X6680700Y-14256299D02*
G01X6638704Y-14256301D01*
G01Y-14300799D01*
G01X6593705D01*
G01Y-14256802D01*
G01X6552702Y-14256299D01*
G01X6547701Y-14261300D01*
G01Y-14376298D01*
G01X6552702Y-14381300D01*
G01X6680700D01*
G01X6685702Y-14376298D01*
G01Y-14261300D01*
G01X6680700Y-14256299D01*
G37*
G36*
G01X6896600Y-14612798D02*
G01X6768602Y-14612798D01*
G01X6763601Y-14617799D01*
G01Y-14732800D01*
G01X6768602Y-14737799D01*
G01X6809605Y-14738302D01*
G01Y-14693301D01*
G01X6854604D01*
G01Y-14737301D01*
G01X6896600Y-14737799D01*
G01X6901602Y-14732800D01*
G01Y-14617799D01*
G01X6896600Y-14612798D01*
G37*
G36*
G01X6896600Y-14827799D02*
G01X6854604Y-14827801D01*
G01Y-14872299D01*
G01X6809605D01*
G01Y-14828302D01*
G01X6768602Y-14827799D01*
G01X6763601Y-14832800D01*
G01Y-14947798D01*
G01X6768602Y-14952800D01*
G01X6896600D01*
G01X6901602Y-14947798D01*
G01Y-14832800D01*
G01X6896600Y-14827799D01*
G37*
G04 PolygonModel End*

G04 Pad Start*
G54D10*
G01X6369202Y-20459700D03*
G01X6369202Y-20205700D03*
G01X6369202Y-19951700D03*
G01X6369202Y-19697700D03*
G01X6369202Y-19443700D03*
G01X6369202Y-19189700D03*
G01X6369202Y-18935700D03*
G01X6369202Y-18681700D03*
G01X7245198Y-18681700D03*
G01X7245198Y-18935700D03*
G01X7245198Y-19189700D03*
G01X7245198Y-19443700D03*
G01X7245198Y-19697700D03*
G01X7245198Y-19951700D03*
G01X7245198Y-20205700D03*
G01X7245198Y-20459700D03*
G01X6369202Y-18046700D03*
G01X6369202Y-17792700D03*
G01X6369202Y-17538700D03*
G01X6369202Y-17284700D03*
G01X6369202Y-17030700D03*
G01X6369202Y-16776700D03*
G01X6369202Y-16522700D03*
G01X6369202Y-16268700D03*
G01X7245198Y-16268700D03*
G01X7245198Y-16522700D03*
G01X7245198Y-16776700D03*
G01X7245198Y-17030700D03*
G01X7245198Y-17284700D03*
G01X7245198Y-17538700D03*
G01X7245198Y-17792700D03*
G01X7245198Y-18046700D03*
G54D11*
G01X8616798Y-10655300D03*
G01X8616798Y-10909300D03*
G01X8616798Y-11163300D03*
G01X8616798Y-11417300D03*
G01X8616798Y-11671300D03*
G01X8616798Y-11925300D03*
G01X8616798Y-12179300D03*
G01X8616798Y-12433300D03*
G01X7740802Y-12433300D03*
G01X7740802Y-12179300D03*
G01X7740802Y-11925300D03*
G01X7740802Y-11671300D03*
G01X7740802Y-11417300D03*
G01X7740802Y-11163300D03*
G01X7740802Y-10909300D03*
G01X7740802Y-10655300D03*
G01X8616798Y-13068300D03*
G01X8616798Y-13322300D03*
G01X8616798Y-13576300D03*
G01X8616798Y-13830300D03*
G01X8616798Y-14084300D03*
G01X8616798Y-14338300D03*
G01X8616798Y-14592300D03*
G01X8616798Y-14846300D03*
G01X7740802Y-14846300D03*
G01X7740802Y-14592300D03*
G01X7740802Y-14338300D03*
G01X7740802Y-14084300D03*
G01X7740802Y-13830300D03*
G01X7740802Y-13576300D03*
G01X7740802Y-13322300D03*
G01X7740802Y-13068300D03*
G04 Pad End*

M02*
