G04 Layer: DrillDrawingLayer*
G04 EasyEDA Pro v2.1.49.573a4102.674264, 2024-03-15 18:46:32*
G04 Gerber Generator version 0.3*
G04 Scale: 100 percent, Rotated: No, Reflected: No*
G04 Dimensions in millimeters*
G04 Leading zeros omitted, absolute positions, 3 integers and 5 decimals*
%FSLAX35Y35*%
%MOMM*%
%ADD10C,0.0254*%
G75*


G04 Image Start*
G36*
G01X13784986Y-7930286D02*
G01X13784986Y-7933893D01*
G01X13788593D01*
G01X13821207D01*
G01Y-7966507D01*
G01X13788593D01*
G01Y-7933893D01*
G01X13784986D01*
G01Y-7970114D01*
G01X13824864D01*
G01Y-7930286D01*
G37*
G36*
G01X14000886Y-8933586D02*
G01X14000886Y-8937193D01*
G01X14004493D01*
G01X14037107D01*
G01Y-8969807D01*
G01X14004493D01*
G01Y-8937193D01*
G01X14000886D01*
G01Y-8973414D01*
G01X14040764D01*
G01Y-8933586D01*
G37*
G36*
G01X10223500Y-6711036D02*
G01X10221468Y-6711188D01*
G01X10219487Y-6711442D01*
G01X10217556Y-6711950D01*
G01X10215728Y-6712610D01*
G01X10214000Y-6713474D01*
G01X10212375Y-6714490D01*
G01X10210800Y-6715608D01*
G01X10209378Y-6716878D01*
G01X10208108Y-6718300D01*
G01X10206990Y-6719875D01*
G01X10205974Y-6721500D01*
G01X10205110Y-6723228D01*
G01X10204450Y-6725056D01*
G01X10203942Y-6726987D01*
G01X10203688Y-6728968D01*
G01X10203586Y-6731000D01*
G01X10206888D01*
G01X10206990Y-6729324D01*
G01X10207244Y-6727647D01*
G01X10207650Y-6726072D01*
G01X10208209Y-6724548D01*
G01X10208870Y-6723075D01*
G01X10209733Y-6721704D01*
G01X10210698Y-6720434D01*
G01X10211765Y-6719265D01*
G01X10212934Y-6718198D01*
G01X10214204Y-6717233D01*
G01X10215575Y-6716370D01*
G01X10217048Y-6715709D01*
G01X10218572Y-6715150D01*
G01X10220147Y-6714744D01*
G01X10221824Y-6714490D01*
G01X10223500Y-6714388D01*
G01X10225176Y-6714490D01*
G01X10226853Y-6714744D01*
G01X10228428Y-6715150D01*
G01X10229952Y-6715709D01*
G01X10231425Y-6716370D01*
G01X10232796Y-6717233D01*
G01X10234066Y-6718198D01*
G01X10235235Y-6719265D01*
G01X10236302Y-6720434D01*
G01X10237267Y-6721704D01*
G01X10238130Y-6723075D01*
G01X10238791Y-6724548D01*
G01X10239350Y-6726072D01*
G01X10239756Y-6727647D01*
G01X10240010Y-6729324D01*
G01X10240112Y-6731000D01*
G01X10240010Y-6732676D01*
G01X10239756Y-6734353D01*
G01X10239350Y-6735928D01*
G01X10238791Y-6737452D01*
G01X10238130Y-6738925D01*
G01X10237267Y-6740296D01*
G01X10236302Y-6741566D01*
G01X10235235Y-6742735D01*
G01X10234066Y-6743802D01*
G01X10232796Y-6744767D01*
G01X10231425Y-6745630D01*
G01X10229952Y-6746291D01*
G01X10228428Y-6746850D01*
G01X10226853Y-6747256D01*
G01X10225176Y-6747510D01*
G01X10223500Y-6747612D01*
G01X10221824Y-6747510D01*
G01X10220147Y-6747256D01*
G01X10218572Y-6746850D01*
G01X10217048Y-6746291D01*
G01X10215575Y-6745630D01*
G01X10214204Y-6744767D01*
G01X10212934Y-6743802D01*
G01X10211765Y-6742735D01*
G01X10210698Y-6741566D01*
G01X10209733Y-6740296D01*
G01X10208870Y-6738925D01*
G01X10208209Y-6737452D01*
G01X10207650Y-6735928D01*
G01X10207244Y-6734353D01*
G01X10206990Y-6732676D01*
G01X10206888Y-6731000D01*
G01X10203586D01*
G01X10203688Y-6733032D01*
G01X10203942Y-6735013D01*
G01X10204450Y-6736944D01*
G01X10205110Y-6738772D01*
G01X10205974Y-6740500D01*
G01X10206990Y-6742125D01*
G01X10208108Y-6743700D01*
G01X10209378Y-6745122D01*
G01X10210800Y-6746392D01*
G01X10212375Y-6747510D01*
G01X10214000Y-6748526D01*
G01X10215728Y-6749390D01*
G01X10217556Y-6750050D01*
G01X10219487Y-6750558D01*
G01X10221468Y-6750812D01*
G01X10223500Y-6750914D01*
G01X10225532Y-6750812D01*
G01X10227513Y-6750558D01*
G01X10229444Y-6750050D01*
G01X10231272Y-6749390D01*
G01X10233000Y-6748526D01*
G01X10234625Y-6747510D01*
G01X10236200Y-6746392D01*
G01X10237622Y-6745122D01*
G01X10238892Y-6743700D01*
G01X10240010Y-6742125D01*
G01X10241026Y-6740500D01*
G01X10241890Y-6738772D01*
G01X10242550Y-6736944D01*
G01X10243058Y-6735013D01*
G01X10243312Y-6733032D01*
G01X10243414Y-6731000D01*
G01X10243312Y-6728968D01*
G01X10243058Y-6726987D01*
G01X10242550Y-6725056D01*
G01X10241890Y-6723228D01*
G01X10241026Y-6721500D01*
G01X10240010Y-6719875D01*
G01X10238892Y-6718300D01*
G01X10237622Y-6716878D01*
G01X10236200Y-6715608D01*
G01X10234625Y-6714490D01*
G01X10233000Y-6713474D01*
G01X10231272Y-6712610D01*
G01X10229444Y-6711950D01*
G01X10227513Y-6711442D01*
G01X10225532Y-6711188D01*
G37*
G36*
G01X10198100Y-8692236D02*
G01X10196068Y-8692388D01*
G01X10194087Y-8692642D01*
G01X10192156Y-8693150D01*
G01X10190328Y-8693810D01*
G01X10188600Y-8694674D01*
G01X10186975Y-8695690D01*
G01X10185400Y-8696808D01*
G01X10183978Y-8698078D01*
G01X10182708Y-8699500D01*
G01X10181590Y-8701075D01*
G01X10180574Y-8702700D01*
G01X10179710Y-8704428D01*
G01X10179050Y-8706256D01*
G01X10178542Y-8708187D01*
G01X10178288Y-8710168D01*
G01X10178186Y-8712200D01*
G01X10181488D01*
G01X10181590Y-8710524D01*
G01X10181844Y-8708847D01*
G01X10182250Y-8707272D01*
G01X10182809Y-8705748D01*
G01X10183470Y-8704275D01*
G01X10184333Y-8702904D01*
G01X10185298Y-8701634D01*
G01X10186365Y-8700465D01*
G01X10187534Y-8699398D01*
G01X10188804Y-8698433D01*
G01X10190175Y-8697570D01*
G01X10191648Y-8696909D01*
G01X10193172Y-8696350D01*
G01X10194747Y-8695944D01*
G01X10196424Y-8695690D01*
G01X10198100Y-8695588D01*
G01X10199776Y-8695690D01*
G01X10201453Y-8695944D01*
G01X10203028Y-8696350D01*
G01X10204552Y-8696909D01*
G01X10206025Y-8697570D01*
G01X10207396Y-8698433D01*
G01X10208666Y-8699398D01*
G01X10209835Y-8700465D01*
G01X10210902Y-8701634D01*
G01X10211867Y-8702904D01*
G01X10212730Y-8704275D01*
G01X10213391Y-8705748D01*
G01X10213950Y-8707272D01*
G01X10214356Y-8708847D01*
G01X10214610Y-8710524D01*
G01X10214712Y-8712200D01*
G01X10214610Y-8713876D01*
G01X10214356Y-8715553D01*
G01X10213950Y-8717128D01*
G01X10213391Y-8718652D01*
G01X10212730Y-8720125D01*
G01X10211867Y-8721496D01*
G01X10210902Y-8722766D01*
G01X10209835Y-8723935D01*
G01X10208666Y-8725002D01*
G01X10207396Y-8725967D01*
G01X10206025Y-8726830D01*
G01X10204552Y-8727491D01*
G01X10203028Y-8728050D01*
G01X10201453Y-8728456D01*
G01X10199776Y-8728710D01*
G01X10198100Y-8728812D01*
G01X10196424Y-8728710D01*
G01X10194747Y-8728456D01*
G01X10193172Y-8728050D01*
G01X10191648Y-8727491D01*
G01X10190175Y-8726830D01*
G01X10188804Y-8725967D01*
G01X10187534Y-8725002D01*
G01X10186365Y-8723935D01*
G01X10185298Y-8722766D01*
G01X10184333Y-8721496D01*
G01X10183470Y-8720125D01*
G01X10182809Y-8718652D01*
G01X10182250Y-8717128D01*
G01X10181844Y-8715553D01*
G01X10181590Y-8713876D01*
G01X10181488Y-8712200D01*
G01X10178186D01*
G01X10178288Y-8714232D01*
G01X10178542Y-8716213D01*
G01X10179050Y-8718144D01*
G01X10179710Y-8719972D01*
G01X10180574Y-8721700D01*
G01X10181590Y-8723325D01*
G01X10182708Y-8724900D01*
G01X10183978Y-8726322D01*
G01X10185400Y-8727592D01*
G01X10186975Y-8728710D01*
G01X10188600Y-8729726D01*
G01X10190328Y-8730590D01*
G01X10192156Y-8731250D01*
G01X10194087Y-8731758D01*
G01X10196068Y-8732012D01*
G01X10198100Y-8732114D01*
G01X10200132Y-8732012D01*
G01X10202113Y-8731758D01*
G01X10204044Y-8731250D01*
G01X10205872Y-8730590D01*
G01X10207600Y-8729726D01*
G01X10209225Y-8728710D01*
G01X10210800Y-8727592D01*
G01X10212222Y-8726322D01*
G01X10213492Y-8724900D01*
G01X10214610Y-8723325D01*
G01X10215626Y-8721700D01*
G01X10216490Y-8719972D01*
G01X10217150Y-8718144D01*
G01X10217658Y-8716213D01*
G01X10217912Y-8714232D01*
G01X10218014Y-8712200D01*
G01X10217912Y-8710168D01*
G01X10217658Y-8708187D01*
G01X10217150Y-8706256D01*
G01X10216490Y-8704428D01*
G01X10215626Y-8702700D01*
G01X10214610Y-8701075D01*
G01X10213492Y-8699500D01*
G01X10212222Y-8698078D01*
G01X10210800Y-8696808D01*
G01X10209225Y-8695690D01*
G01X10207600Y-8694674D01*
G01X10205872Y-8693810D01*
G01X10204044Y-8693150D01*
G01X10202113Y-8692642D01*
G01X10200132Y-8692388D01*
G37*
G36*
G01X14000886Y-8644128D02*
G01X14002817Y-8647481D01*
G01X14006627D01*
G01X14034973D01*
G01X14027912Y-8659724D01*
G01X14020800Y-8672017D01*
G01X14013688Y-8659724D01*
G01X14006627Y-8647481D01*
G01X14002817D01*
G01X14020800Y-8678672D01*
G01X14030757Y-8661400D01*
G01X14040764Y-8644128D01*
G37*
G36*
G01X14000886Y-8136128D02*
G01X14002817Y-8139481D01*
G01X14006627D01*
G01X14034973D01*
G01X14027912Y-8151724D01*
G01X14020800Y-8164017D01*
G01X14013688Y-8151724D01*
G01X14006627Y-8139481D01*
G01X14002817D01*
G01X14020800Y-8170672D01*
G01X14030757Y-8153400D01*
G01X14040764Y-8136128D01*
G37*
G36*
G01X13436600Y-4485488D02*
G01X13430860Y-4498543D01*
G01X13416686Y-4496968D01*
G01X13425068Y-4508500D01*
G01X13419785Y-4515764D01*
G01X13424002D01*
G01X13427862Y-4510532D01*
G01X13429336Y-4508500D01*
G01X13427862Y-4506468D01*
G01X13424002Y-4501236D01*
G01X13430453Y-4501896D01*
G01X13432942Y-4502201D01*
G01X13433958Y-4499915D01*
G01X13436600Y-4493920D01*
G01X13439242Y-4499915D01*
G01X13440258Y-4502201D01*
G01X13442747Y-4501947D01*
G01X13449198Y-4501236D01*
G01X13445338Y-4506468D01*
G01X13443864Y-4508500D01*
G01X13445338Y-4510532D01*
G01X13449198Y-4515764D01*
G01X13442747Y-4515104D01*
G01X13440258Y-4514799D01*
G01X13439242Y-4517085D01*
G01X13436600Y-4523080D01*
G01X13433958Y-4517085D01*
G01X13432942Y-4514799D01*
G01X13430453Y-4515104D01*
G01X13424002Y-4515764D01*
G01X13419785D01*
G01X13416686Y-4520032D01*
G01X13430860Y-4518457D01*
G01X13436600Y-4531512D01*
G01X13442340Y-4518457D01*
G01X13456564Y-4520032D01*
G01X13448132Y-4508500D01*
G01X13456564Y-4496968D01*
G01X13442340Y-4498543D01*
G37*
G36*
G01X13636600Y-3985463D02*
G01X13630859Y-3998519D01*
G01X13616686Y-3996995D01*
G01X13625068Y-4008476D01*
G01X13619734Y-4015791D01*
G01X13624001D01*
G01X13627862Y-4010508D01*
G01X13629335Y-4008476D01*
G01X13627862Y-4006494D01*
G01X13624001Y-4001211D01*
G01X13630453Y-4001922D01*
G01X13632942Y-4002176D01*
G01X13636600Y-3993947D01*
G01X13640257Y-4002176D01*
G01X13642746Y-4001922D01*
G01X13649198Y-4001211D01*
G01X13645337Y-4006494D01*
G01X13643864Y-4008476D01*
G01X13645337Y-4010508D01*
G01X13649198Y-4015791D01*
G01X13642746Y-4015080D01*
G01X13640257Y-4014826D01*
G01X13636600Y-4023055D01*
G01X13632942Y-4014826D01*
G01X13630453Y-4015080D01*
G01X13624001Y-4015791D01*
G01X13619734D01*
G01X13616686Y-4020007D01*
G01X13630859Y-4018483D01*
G01X13636600Y-4031539D01*
G01X13642340Y-4018483D01*
G01X13656564Y-4020007D01*
G01X13648131Y-4008476D01*
G01X13656564Y-3996995D01*
G01X13642340Y-3998519D01*
G37*
G36*
G01X11740286Y-6418936D02*
G01X11743385Y-6425743D01*
G01X11747043D01*
G01X11758828Y-6431128D01*
G01X11760200Y-6431788D01*
G01X11761572Y-6431128D01*
G01X11773357Y-6425743D01*
G01X11767972Y-6437528D01*
G01X11767312Y-6438900D01*
G01X11767972Y-6440272D01*
G01X11773357Y-6452057D01*
G01X11761572Y-6446672D01*
G01X11760200Y-6446012D01*
G01X11758828Y-6446672D01*
G01X11747043Y-6452057D01*
G01X11752428Y-6440272D01*
G01X11753088Y-6438900D01*
G01X11752428Y-6437528D01*
G01X11747043Y-6425743D01*
G01X11743385D01*
G01X11749430Y-6438900D01*
G01X11740286Y-6458864D01*
G01X11760200Y-6449670D01*
G01X11780114Y-6458864D01*
G01X11770970Y-6438900D01*
G01X11780114Y-6418936D01*
G01X11760200Y-6428130D01*
G37*
G36*
G01X11740286Y-8958936D02*
G01X11743385Y-8965743D01*
G01X11747043D01*
G01X11758828Y-8971128D01*
G01X11760200Y-8971788D01*
G01X11761572Y-8971128D01*
G01X11773357Y-8965743D01*
G01X11767972Y-8977528D01*
G01X11767312Y-8978900D01*
G01X11767972Y-8980272D01*
G01X11773357Y-8992057D01*
G01X11761572Y-8986672D01*
G01X11760200Y-8986012D01*
G01X11758828Y-8986672D01*
G01X11747043Y-8992057D01*
G01X11752428Y-8980272D01*
G01X11753088Y-8978900D01*
G01X11752428Y-8977528D01*
G01X11747043Y-8965743D01*
G01X11743385D01*
G01X11749430Y-8978900D01*
G01X11740286Y-8998814D01*
G01X11760200Y-8989670D01*
G01X11780114Y-8998814D01*
G01X11770970Y-8978900D01*
G01X11780114Y-8958936D01*
G01X11760200Y-8968130D01*
G37*
G36*
G01X13618058Y-2291436D02*
G01X13618058Y-2302358D01*
G01X13607186D01*
G01Y-2317140D01*
G01X13610488D01*
G01Y-2305660D01*
G01X13621360D01*
G01Y-2294788D01*
G01X13632840D01*
G01Y-2305660D01*
G01X13643712D01*
G01Y-2317140D01*
G01X13632840D01*
G01Y-2328012D01*
G01X13621360D01*
G01Y-2317140D01*
G01X13610488D01*
G01X13607186D01*
G01Y-2320442D01*
G01X13618058D01*
G01Y-2331314D01*
G01X13636142D01*
G01Y-2320442D01*
G01X13647064D01*
G01Y-2302358D01*
G01X13636142D01*
G01Y-2291436D01*
G37*
G36*
G01X14368018Y-2291436D02*
G01X14368018Y-2302358D01*
G01X14357147D01*
G01Y-2317140D01*
G01X14360500D01*
G01Y-2305660D01*
G01X14371371D01*
G01Y-2294788D01*
G01X14382852D01*
G01Y-2305660D01*
G01X14393723D01*
G01Y-2317140D01*
G01X14382852D01*
G01Y-2328012D01*
G01X14371371D01*
G01Y-2317140D01*
G01X14360500D01*
G01X14357147D01*
G01Y-2320442D01*
G01X14368018D01*
G01Y-2331314D01*
G01X14386154D01*
G01Y-2320442D01*
G01X14397025D01*
G01Y-2302358D01*
G01X14386154D01*
G01Y-2291436D01*
G37*
G36*
G01X10241686Y-4488536D02*
G01X10241686Y-4492193D01*
G01X10245293D01*
G01X10253929D01*
G01X10261600Y-4507535D01*
G01X10269271Y-4492193D01*
G01X10277907D01*
G01Y-4500829D01*
G01X10262565Y-4508500D01*
G01X10277907Y-4516171D01*
G01Y-4524807D01*
G01X10269271D01*
G01X10261600Y-4509465D01*
G01X10253929Y-4524807D01*
G01X10245293D01*
G01Y-4516171D01*
G01X10260635Y-4508500D01*
G01X10245293Y-4500829D01*
G01Y-4492193D01*
G01X10241686D01*
G01Y-4503064D01*
G01X10252558Y-4508500D01*
G01X10241686Y-4513936D01*
G01Y-4528414D01*
G01X10256164D01*
G01X10261600Y-4517542D01*
G01X10267036Y-4528414D01*
G01X10281564D01*
G01Y-4513936D01*
G01X10270642Y-4508500D01*
G01X10281564Y-4503064D01*
G01Y-4488536D01*
G01X10267036D01*
G01X10261600Y-4499458D01*
G01X10256164Y-4488536D01*
G37*
G36*
G01X10241686Y-2252574D02*
G01X10241686Y-2256180D01*
G01X10245293D01*
G01X10253929D01*
G01X10258349Y-2265070D01*
G01X10261600Y-2271522D01*
G01X10264851Y-2265070D01*
G01X10269271Y-2256180D01*
G01X10277907D01*
G01Y-2264816D01*
G01X10269068Y-2269287D01*
G01X10262565Y-2272487D01*
G01X10277907Y-2280158D01*
G01Y-2288794D01*
G01X10269271D01*
G01X10261600Y-2273452D01*
G01X10253929Y-2288794D01*
G01X10245293D01*
G01Y-2280158D01*
G01X10260635Y-2272487D01*
G01X10254132Y-2269287D01*
G01X10245293Y-2264816D01*
G01Y-2256180D01*
G01X10241686D01*
G01Y-2267052D01*
G01X10252558Y-2272487D01*
G01X10241686Y-2277923D01*
G01Y-2292452D01*
G01X10256164D01*
G01X10261600Y-2281580D01*
G01X10267036Y-2292452D01*
G01X10281564D01*
G01Y-2277923D01*
G01X10270642Y-2272487D01*
G01X10281564Y-2267052D01*
G01Y-2252574D01*
G01X10267036D01*
G01X10261600Y-2263445D01*
G01X10256164Y-2252574D01*
G37*
G36*
G01X10769600Y-3116936D02*
G01X10749686Y-3136900D01*
G01X10754004D01*
G01X10769600Y-3121304D01*
G01X10785196Y-3136900D01*
G01X10769600Y-3152496D01*
G01X10754004Y-3136900D01*
G01X10749686D01*
G01X10769600Y-3156814D01*
G01X10789514Y-3136900D01*
G37*
G36*
G01X10769600Y-3371952D02*
G01X10749686Y-3391916D01*
G01X10754004D01*
G01X10769600Y-3376320D01*
G01X10785196Y-3391916D01*
G01X10769600Y-3407512D01*
G01X10754004Y-3391916D01*
G01X10749686D01*
G01X10769600Y-3411830D01*
G01X10789514Y-3391916D01*
G37*
G36*
G01X10769600Y-3626968D02*
G01X10749686Y-3646881D01*
G01X10754004D01*
G01X10769600Y-3631286D01*
G01X10785196Y-3646881D01*
G01X10769600Y-3662477D01*
G01X10754004Y-3646881D01*
G01X10749686D01*
G01X10769600Y-3666846D01*
G01X10789514Y-3646881D01*
G37*
G36*
G01X10965586Y-462636D02*
G01X10965586Y-466293D01*
G01X10969193D01*
G01X11001807D01*
G01Y-498907D01*
G01X10969193D01*
G01Y-466293D01*
G01X10965586D01*
G01Y-502514D01*
G01X11005464D01*
G01Y-462636D01*
G37*
G36*
G01X10972800Y-469900D02*
G01X10972800Y-473558D01*
G01X10976458D01*
G01X10994542D01*
G01Y-491642D01*
G01X10976458D01*
G01Y-473558D01*
G01X10972800D01*
G01Y-495300D01*
G01X10998200D01*
G01Y-469900D01*
G37*
G36*
G01X10965586Y-962660D02*
G01X10965586Y-966267D01*
G01X10969193D01*
G01X11001807D01*
G01Y-998931D01*
G01X10969193D01*
G01Y-966267D01*
G01X10965586D01*
G01Y-1002538D01*
G01X11005464D01*
G01Y-962660D01*
G37*
G36*
G01X10972800Y-969924D02*
G01X10972800Y-973531D01*
G01X10976458D01*
G01X10994542D01*
G01Y-991667D01*
G01X10976458D01*
G01Y-973531D01*
G01X10972800D01*
G01Y-995274D01*
G01X10998200D01*
G01Y-969924D01*
G37*
G36*
G01X12387986Y-665836D02*
G01X12387986Y-669493D01*
G01X12391593D01*
G01X12424207D01*
G01Y-702107D01*
G01X12391593D01*
G01Y-669493D01*
G01X12387986D01*
G01Y-705714D01*
G01X12427864D01*
G01Y-665836D01*
G37*
G36*
G01X12395200Y-673100D02*
G01X12395200Y-676758D01*
G01X12398858D01*
G01X12416942D01*
G01Y-694842D01*
G01X12398858D01*
G01Y-676758D01*
G01X12395200D01*
G01Y-698500D01*
G01X12420600D01*
G01Y-673100D01*
G37*
G36*
G01X12387986Y-1165860D02*
G01X12387986Y-1169467D01*
G01X12391593D01*
G01X12424207D01*
G01Y-1202131D01*
G01X12391593D01*
G01Y-1169467D01*
G01X12387986D01*
G01Y-1205738D01*
G01X12427864D01*
G01Y-1165860D01*
G37*
G36*
G01X12395200Y-1173124D02*
G01X12395200Y-1176731D01*
G01X12398858D01*
G01X12416942D01*
G01Y-1194867D01*
G01X12398858D01*
G01Y-1176731D01*
G01X12395200D01*
G01Y-1198474D01*
G01X12420600D01*
G01Y-1173124D01*
G37*

G04 Text Start*
G54D10*
G01X5854721Y-6110323D02*
G01X5846253Y-6132477D01*
G01X5854721Y-6110323D02*
G01X5863147Y-6132477D01*
G01X5849418Y-6125078D02*
G01X5859982Y-6125078D01*
G01X5600721Y-6110323D02*
G01X5592253Y-6132477D01*
G01X5600721Y-6110323D02*
G01X5609147Y-6132477D01*
G01X5595418Y-6125078D02*
G01X5605982Y-6125078D01*
G01X5346721Y-6110323D02*
G01X5338253Y-6132477D01*
G01X5346721Y-6110323D02*
G01X5355147Y-6132477D01*
G01X5341418Y-6125078D02*
G01X5351982Y-6125078D01*
G01X5092721Y-6110323D02*
G01X5084253Y-6132477D01*
G01X5092721Y-6110323D02*
G01X5101147Y-6132477D01*
G01X5087418Y-6125078D02*
G01X5097982Y-6125078D01*
G01X4838721Y-6110323D02*
G01X4830253Y-6132477D01*
G01X4838721Y-6110323D02*
G01X4847147Y-6132477D01*
G01X4833418Y-6125078D02*
G01X4843982Y-6125078D01*
G01X14483301Y-4003987D02*
G01X14492796Y-4003987D01*
G01X14495961Y-4005014D01*
G01X14497030Y-4006083D01*
G01X14498099Y-4008179D01*
G01Y-4011344D01*
G01X14497030Y-4013482D01*
G01X14495961Y-4014551D01*
G01X14492796Y-4015578D01*
G01X14483301D01*
G01X14483301Y-3993423D02*
G01X14492796Y-3993423D01*
G01X14495961Y-3994450D01*
G01X14497030Y-3995519D01*
G01X14498099Y-3997657D01*
G01Y-3999753D01*
G01X14497030Y-4001849D01*
G01X14495961Y-4002918D01*
G01X14492796Y-4003987D01*
G01X14483301Y-3993423D02*
G01X14483301Y-4015578D01*
G01X14483301Y-4253987D02*
G01X14492796Y-4253987D01*
G01X14495961Y-4255013D01*
G01X14497030Y-4256082D01*
G01X14498099Y-4258178D01*
G01Y-4261343D01*
G01X14497030Y-4263482D01*
G01X14495961Y-4264551D01*
G01X14492796Y-4265577D01*
G01X14483301D01*
G01X14483301Y-4243423D02*
G01X14492796Y-4243423D01*
G01X14495961Y-4244449D01*
G01X14497030Y-4245518D01*
G01X14498099Y-4247657D01*
G01Y-4249753D01*
G01X14497030Y-4251848D01*
G01X14495961Y-4252918D01*
G01X14492796Y-4253987D01*
G01X14483301Y-4243423D02*
G01X14483301Y-4265577D01*
G01X14483301Y-4503986D02*
G01X14492796Y-4503986D01*
G01X14495961Y-4505013D01*
G01X14497030Y-4506082D01*
G01X14498099Y-4508178D01*
G01Y-4511343D01*
G01X14497030Y-4513481D01*
G01X14495961Y-4514550D01*
G01X14492796Y-4515577D01*
G01X14483301D01*
G01X14483301Y-4493422D02*
G01X14492796Y-4493422D01*
G01X14495961Y-4494449D01*
G01X14497030Y-4495518D01*
G01X14498099Y-4497656D01*
G01Y-4499752D01*
G01X14497030Y-4501848D01*
G01X14495961Y-4502917D01*
G01X14492796Y-4503986D01*
G01X14483301Y-4493422D02*
G01X14483301Y-4515577D01*
G01X9136601Y-7428987D02*
G01X9146096Y-7428987D01*
G01X9149261Y-7430013D01*
G01X9150330Y-7431082D01*
G01X9151399Y-7433178D01*
G01Y-7436343D01*
G01X9150330Y-7438482D01*
G01X9149261Y-7439551D01*
G01X9146096Y-7440577D01*
G01X9136601D01*
G01X9136601Y-7418423D02*
G01X9146096Y-7418423D01*
G01X9149261Y-7419449D01*
G01X9150330Y-7420518D01*
G01X9151399Y-7422657D01*
G01Y-7424753D01*
G01X9150330Y-7426848D01*
G01X9149261Y-7427918D01*
G01X9146096Y-7428987D01*
G01X9136601Y-7418423D02*
G01X9136601Y-7440577D01*
G01X9136601Y-7682987D02*
G01X9146096Y-7682987D01*
G01X9149261Y-7684013D01*
G01X9150330Y-7685082D01*
G01X9151399Y-7687178D01*
G01Y-7690343D01*
G01X9150330Y-7692482D01*
G01X9149261Y-7693551D01*
G01X9146096Y-7694577D01*
G01X9136601D01*
G01X9136601Y-7672423D02*
G01X9146096Y-7672423D01*
G01X9149261Y-7673449D01*
G01X9150330Y-7674518D01*
G01X9151399Y-7676657D01*
G01Y-7678753D01*
G01X9150330Y-7680848D01*
G01X9149261Y-7681918D01*
G01X9146096Y-7682987D01*
G01X9136601Y-7672423D02*
G01X9136601Y-7694577D01*
G01X9136601Y-7936987D02*
G01X9146096Y-7936987D01*
G01X9149261Y-7938013D01*
G01X9150330Y-7939082D01*
G01X9151399Y-7941178D01*
G01Y-7944343D01*
G01X9150330Y-7946482D01*
G01X9149261Y-7947551D01*
G01X9146096Y-7948577D01*
G01X9136601D01*
G01X9136601Y-7926423D02*
G01X9146096Y-7926423D01*
G01X9149261Y-7927449D01*
G01X9150330Y-7928518D01*
G01X9151399Y-7930657D01*
G01Y-7932753D01*
G01X9150330Y-7934848D01*
G01X9149261Y-7935918D01*
G01X9146096Y-7936987D01*
G01X9136601Y-7926423D02*
G01X9136601Y-7948577D01*
G01X9898601Y-7936987D02*
G01X9908096Y-7936987D01*
G01X9911261Y-7938013D01*
G01X9912330Y-7939082D01*
G01X9913399Y-7941178D01*
G01Y-7944343D01*
G01X9912330Y-7946482D01*
G01X9911261Y-7947551D01*
G01X9908096Y-7948577D01*
G01X9898601D01*
G01X9898601Y-7926423D02*
G01X9908096Y-7926423D01*
G01X9911261Y-7927449D01*
G01X9912330Y-7928518D01*
G01X9913399Y-7930657D01*
G01Y-7932753D01*
G01X9912330Y-7934848D01*
G01X9911261Y-7935918D01*
G01X9908096Y-7936987D01*
G01X9898601Y-7926423D02*
G01X9898601Y-7948577D01*
G01X9898601Y-7682987D02*
G01X9908096Y-7682987D01*
G01X9911261Y-7684013D01*
G01X9912330Y-7685082D01*
G01X9913399Y-7687178D01*
G01Y-7690343D01*
G01X9912330Y-7692482D01*
G01X9911261Y-7693551D01*
G01X9908096Y-7694577D01*
G01X9898601D01*
G01X9898601Y-7672423D02*
G01X9908096Y-7672423D01*
G01X9911261Y-7673449D01*
G01X9912330Y-7674518D01*
G01X9913399Y-7676657D01*
G01Y-7678753D01*
G01X9912330Y-7680848D01*
G01X9911261Y-7681918D01*
G01X9908096Y-7682987D01*
G01X9898601Y-7672423D02*
G01X9898601Y-7694577D01*
G01X9898601Y-7428987D02*
G01X9908096Y-7428987D01*
G01X9911261Y-7430013D01*
G01X9912330Y-7431082D01*
G01X9913399Y-7433178D01*
G01Y-7436343D01*
G01X9912330Y-7438482D01*
G01X9911261Y-7439551D01*
G01X9908096Y-7440577D01*
G01X9898601D01*
G01X9898601Y-7418423D02*
G01X9908096Y-7418423D01*
G01X9911261Y-7419449D01*
G01X9912330Y-7420518D01*
G01X9913399Y-7422657D01*
G01Y-7424753D01*
G01X9912330Y-7426848D01*
G01X9911261Y-7427918D01*
G01X9908096Y-7428987D01*
G01X9898601Y-7418423D02*
G01X9898601Y-7440577D01*
G01X12603701Y-7708387D02*
G01X12613196Y-7708387D01*
G01X12616361Y-7709413D01*
G01X12617430Y-7710482D01*
G01X12618499Y-7712578D01*
G01Y-7715743D01*
G01X12617430Y-7717882D01*
G01X12616361Y-7718951D01*
G01X12613196Y-7719977D01*
G01X12603701D01*
G01X12603701Y-7697823D02*
G01X12613196Y-7697823D01*
G01X12616361Y-7698849D01*
G01X12617430Y-7699918D01*
G01X12618499Y-7702057D01*
G01Y-7704153D01*
G01X12617430Y-7706248D01*
G01X12616361Y-7707318D01*
G01X12613196Y-7708387D01*
G01X12603701Y-7697823D02*
G01X12603701Y-7719977D01*
G01X12172406Y-7454399D02*
G01X12181901Y-7454399D01*
G01X12185066Y-7455426D01*
G01X12186135Y-7456495D01*
G01X12187205Y-7458591D01*
G01Y-7461756D01*
G01X12186135Y-7463894D01*
G01X12185066Y-7464963D01*
G01X12181901Y-7465990D01*
G01X12172406D01*
G01X12172406Y-7443835D02*
G01X12181901Y-7443835D01*
G01X12185066Y-7444862D01*
G01X12186135Y-7445931D01*
G01X12187205Y-7448070D01*
G01Y-7450165D01*
G01X12186135Y-7452261D01*
G01X12185066Y-7453330D01*
G01X12181901Y-7454399D01*
G01X12172406Y-7443835D02*
G01X12172406Y-7465990D01*
G01X12171406Y-7962399D02*
G01X12180900Y-7962399D01*
G01X12184065Y-7963426D01*
G01X12185135Y-7964495D01*
G01X12186204Y-7966591D01*
G01Y-7969756D01*
G01X12185135Y-7971894D01*
G01X12184065Y-7972963D01*
G01X12180900Y-7973990D01*
G01X12171406D01*
G01X12171406Y-7951835D02*
G01X12180900Y-7951835D01*
G01X12184065Y-7952862D01*
G01X12185135Y-7953931D01*
G01X12186204Y-7956070D01*
G01Y-7958165D01*
G01X12185135Y-7960261D01*
G01X12184065Y-7961330D01*
G01X12180900Y-7962399D01*
G01X12171406Y-7951835D02*
G01X12171406Y-7973990D01*
G01X642912Y-14319783D02*
G01X641886Y-14317688D01*
G01X639747Y-14315549D01*
G01X637652Y-14314523D01*
G01X633418D01*
G01X631322Y-14315549D01*
G01X629183Y-14317688D01*
G01X628157Y-14319783D01*
G01X627088Y-14322948D01*
G01Y-14328252D01*
G01X628157Y-14331417D01*
G01X629183Y-14333512D01*
G01X631322Y-14335651D01*
G01X633418Y-14336677D01*
G01X637652D01*
G01X639747Y-14335651D01*
G01X641886Y-14333512D01*
G01X642912Y-14331417D01*
G01X642912Y-14715783D02*
G01X641886Y-14713687D01*
G01X639747Y-14711548D01*
G01X637652Y-14710522D01*
G01X633418D01*
G01X631322Y-14711548D01*
G01X629183Y-14713687D01*
G01X628157Y-14715783D01*
G01X627088Y-14718948D01*
G01Y-14724251D01*
G01X628157Y-14727416D01*
G01X629183Y-14729512D01*
G01X631322Y-14731650D01*
G01X633418Y-14732676D01*
G01X637652D01*
G01X639747Y-14731650D01*
G01X641886Y-14729512D01*
G01X642912Y-14727416D01*
G01X642912Y-15111782D02*
G01X641886Y-15109686D01*
G01X639747Y-15107548D01*
G01X637652Y-15106521D01*
G01X633418D01*
G01X631322Y-15107548D01*
G01X629183Y-15109686D01*
G01X628157Y-15111782D01*
G01X627088Y-15114947D01*
G01Y-15120250D01*
G01X628157Y-15123415D01*
G01X629183Y-15125511D01*
G01X631322Y-15127649D01*
G01X633418Y-15128676D01*
G01X637652D01*
G01X639747Y-15127649D01*
G01X641886Y-15125511D01*
G01X642912Y-15123415D01*
G01X642912Y-15507781D02*
G01X641886Y-15505685D01*
G01X639747Y-15503547D01*
G01X637652Y-15502520D01*
G01X633418D01*
G01X631322Y-15503547D01*
G01X629183Y-15505685D01*
G01X628157Y-15507781D01*
G01X627088Y-15510946D01*
G01Y-15516249D01*
G01X628157Y-15519414D01*
G01X629183Y-15521510D01*
G01X631322Y-15523648D01*
G01X633418Y-15524675D01*
G01X637652D01*
G01X639747Y-15523648D01*
G01X641886Y-15521510D01*
G01X642912Y-15519414D01*
G01X642912Y-15903780D02*
G01X641886Y-15901685D01*
G01X639747Y-15899546D01*
G01X637652Y-15898520D01*
G01X633418D01*
G01X631322Y-15899546D01*
G01X629183Y-15901685D01*
G01X628157Y-15903780D01*
G01X627088Y-15906945D01*
G01Y-15912249D01*
G01X628157Y-15915413D01*
G01X629183Y-15917509D01*
G01X631322Y-15919648D01*
G01X633418Y-15920674D01*
G01X637652D01*
G01X639747Y-15919648D01*
G01X641886Y-15917509D01*
G01X642912Y-15915413D01*
G01X642912Y-16299779D02*
G01X641886Y-16297684D01*
G01X639747Y-16295545D01*
G01X637652Y-16294519D01*
G01X633418D01*
G01X631322Y-16295545D01*
G01X629183Y-16297684D01*
G01X628157Y-16299779D01*
G01X627088Y-16302944D01*
G01Y-16308248D01*
G01X628157Y-16311413D01*
G01X629183Y-16313508D01*
G01X631322Y-16315647D01*
G01X633418Y-16316673D01*
G01X637652D01*
G01X639747Y-16315647D01*
G01X641886Y-16313508D01*
G01X642912Y-16311413D01*
G01X642912Y-16695779D02*
G01X641886Y-16693683D01*
G01X639747Y-16691544D01*
G01X637652Y-16690518D01*
G01X633418D01*
G01X631322Y-16691544D01*
G01X629183Y-16693683D01*
G01X628157Y-16695779D01*
G01X627088Y-16698944D01*
G01Y-16704247D01*
G01X628157Y-16707412D01*
G01X629183Y-16709508D01*
G01X631322Y-16711646D01*
G01X633418Y-16712672D01*
G01X637652D01*
G01X639747Y-16711646D01*
G01X641886Y-16709508D01*
G01X642912Y-16707412D01*
G01X642912Y-17091778D02*
G01X641886Y-17089682D01*
G01X639747Y-17087544D01*
G01X637652Y-17086517D01*
G01X633418D01*
G01X631322Y-17087544D01*
G01X629183Y-17089682D01*
G01X628157Y-17091778D01*
G01X627088Y-17094943D01*
G01Y-17100246D01*
G01X628157Y-17103411D01*
G01X629183Y-17105507D01*
G01X631322Y-17107645D01*
G01X633418Y-17108672D01*
G01X637652D01*
G01X639747Y-17107645D01*
G01X641886Y-17105507D01*
G01X642912Y-17103411D01*
G01X14371612Y-16783583D02*
G01X14370586Y-16781488D01*
G01X14368447Y-16779349D01*
G01X14366352Y-16778323D01*
G01X14362118D01*
G01X14360022Y-16779349D01*
G01X14357883Y-16781488D01*
G01X14356857Y-16783583D01*
G01X14355788Y-16786748D01*
G01Y-16792052D01*
G01X14356857Y-16795217D01*
G01X14357883Y-16797312D01*
G01X14360022Y-16799451D01*
G01X14362118Y-16800477D01*
G01X14366352D01*
G01X14368447Y-16799451D01*
G01X14370586Y-16797312D01*
G01X14371612Y-16795217D01*
G01X14371612Y-16387584D02*
G01X14370586Y-16385488D01*
G01X14368447Y-16383350D01*
G01X14366352Y-16382324D01*
G01X14362118D01*
G01X14360022Y-16383350D01*
G01X14357883Y-16385488D01*
G01X14356857Y-16387584D01*
G01X14355788Y-16390749D01*
G01Y-16396052D01*
G01X14356857Y-16399217D01*
G01X14357883Y-16401313D01*
G01X14360022Y-16403452D01*
G01X14362118Y-16404478D01*
G01X14366352D01*
G01X14368447Y-16403452D01*
G01X14370586Y-16401313D01*
G01X14371612Y-16399217D01*
G01X14371612Y-15991585D02*
G01X14370586Y-15989489D01*
G01X14368447Y-15987351D01*
G01X14366352Y-15986324D01*
G01X14362118D01*
G01X14360022Y-15987351D01*
G01X14357883Y-15989489D01*
G01X14356857Y-15991585D01*
G01X14355788Y-15994750D01*
G01Y-16000053D01*
G01X14356857Y-16003218D01*
G01X14357883Y-16005314D01*
G01X14360022Y-16007452D01*
G01X14362118Y-16008479D01*
G01X14366352D01*
G01X14368447Y-16007452D01*
G01X14370586Y-16005314D01*
G01X14371612Y-16003218D01*
G01X14371612Y-15595586D02*
G01X14370586Y-15593490D01*
G01X14368447Y-15591352D01*
G01X14366352Y-15590325D01*
G01X14362118D01*
G01X14360022Y-15591352D01*
G01X14357883Y-15593490D01*
G01X14356857Y-15595586D01*
G01X14355788Y-15598751D01*
G01Y-15604054D01*
G01X14356857Y-15607219D01*
G01X14357883Y-15609315D01*
G01X14360022Y-15611453D01*
G01X14362118Y-15612480D01*
G01X14366352D01*
G01X14368447Y-15611453D01*
G01X14370586Y-15609315D01*
G01X14371612Y-15607219D01*
G01X14371612Y-15199587D02*
G01X14370586Y-15197491D01*
G01X14368447Y-15195352D01*
G01X14366352Y-15194326D01*
G01X14362118D01*
G01X14360022Y-15195352D01*
G01X14357883Y-15197491D01*
G01X14356857Y-15199587D01*
G01X14355788Y-15202751D01*
G01Y-15208055D01*
G01X14356857Y-15211220D01*
G01X14357883Y-15213315D01*
G01X14360022Y-15215454D01*
G01X14362118Y-15216480D01*
G01X14366352D01*
G01X14368447Y-15215454D01*
G01X14370586Y-15213315D01*
G01X14371612Y-15211220D01*
G01X14371612Y-14802383D02*
G01X14370586Y-14800288D01*
G01X14368447Y-14798149D01*
G01X14366352Y-14797123D01*
G01X14362118D01*
G01X14360022Y-14798149D01*
G01X14357883Y-14800288D01*
G01X14356857Y-14802383D01*
G01X14355788Y-14805548D01*
G01Y-14810852D01*
G01X14356857Y-14814017D01*
G01X14357883Y-14816112D01*
G01X14360022Y-14818251D01*
G01X14362118Y-14819277D01*
G01X14366352D01*
G01X14368447Y-14818251D01*
G01X14370586Y-14816112D01*
G01X14371612Y-14814017D01*
G01X14371612Y-14406384D02*
G01X14370586Y-14404288D01*
G01X14368447Y-14402150D01*
G01X14366352Y-14401124D01*
G01X14362118D01*
G01X14360022Y-14402150D01*
G01X14357883Y-14404288D01*
G01X14356857Y-14406384D01*
G01X14355788Y-14409549D01*
G01Y-14414852D01*
G01X14356857Y-14418017D01*
G01X14357883Y-14420113D01*
G01X14360022Y-14422252D01*
G01X14362118Y-14423278D01*
G01X14366352D01*
G01X14368447Y-14422252D01*
G01X14370586Y-14420113D01*
G01X14371612Y-14418017D01*
G01X14371612Y-14010385D02*
G01X14370586Y-14008289D01*
G01X14368447Y-14006151D01*
G01X14366352Y-14005124D01*
G01X14362118D01*
G01X14360022Y-14006151D01*
G01X14357883Y-14008289D01*
G01X14356857Y-14010385D01*
G01X14355788Y-14013550D01*
G01Y-14018853D01*
G01X14356857Y-14022018D01*
G01X14357883Y-14024114D01*
G01X14360022Y-14026252D01*
G01X14362118Y-14027279D01*
G01X14366352D01*
G01X14368447Y-14026252D01*
G01X14370586Y-14024114D01*
G01X14371612Y-14022018D01*
G01X14371612Y-13614386D02*
G01X14370586Y-13612290D01*
G01X14368447Y-13610152D01*
G01X14366352Y-13609125D01*
G01X14362118D01*
G01X14360022Y-13610152D01*
G01X14357883Y-13612290D01*
G01X14356857Y-13614386D01*
G01X14355788Y-13617551D01*
G01Y-13622854D01*
G01X14356857Y-13626019D01*
G01X14357883Y-13628115D01*
G01X14360022Y-13630253D01*
G01X14362118Y-13631280D01*
G01X14366352D01*
G01X14368447Y-13630253D01*
G01X14370586Y-13628115D01*
G01X14371612Y-13626019D01*
G01X14371612Y-13218387D02*
G01X14370586Y-13216291D01*
G01X14368447Y-13214152D01*
G01X14366352Y-13213126D01*
G01X14362118D01*
G01X14360022Y-13214152D01*
G01X14357883Y-13216291D01*
G01X14356857Y-13218387D01*
G01X14355788Y-13221551D01*
G01Y-13226855D01*
G01X14356857Y-13230020D01*
G01X14357883Y-13232115D01*
G01X14360022Y-13234254D01*
G01X14362118Y-13235280D01*
G01X14366352D01*
G01X14368447Y-13234254D01*
G01X14370586Y-13232115D01*
G01X14371612Y-13230020D01*
G01X3307601Y-10923623D02*
G01X3315000Y-10923623D01*
G01X3318165Y-10924649D01*
G01X3320260Y-10926788D01*
G01X3321330Y-10928883D01*
G01X3322399Y-10932048D01*
G01Y-10937352D01*
G01X3321330Y-10940517D01*
G01X3320260Y-10942612D01*
G01X3318165Y-10944751D01*
G01X3315000Y-10945777D01*
G01X3307601D01*
G01X3307601Y-10923623D02*
G01X3307601Y-10945777D01*
G01X1757601Y-10923623D02*
G01X1765000Y-10923623D01*
G01X1768165Y-10924649D01*
G01X1770261Y-10926788D01*
G01X1771330Y-10928883D01*
G01X1772399Y-10932048D01*
G01Y-10937352D01*
G01X1771330Y-10940517D01*
G01X1770261Y-10942612D01*
G01X1768165Y-10944751D01*
G01X1765000Y-10945777D01*
G01X1757601D01*
G01X1757601Y-10923623D02*
G01X1757601Y-10945777D01*
G01X3307601Y-12422223D02*
G01X3315000Y-12422223D01*
G01X3318165Y-12423249D01*
G01X3320260Y-12425388D01*
G01X3321330Y-12427483D01*
G01X3322399Y-12430648D01*
G01Y-12435952D01*
G01X3321330Y-12439117D01*
G01X3320260Y-12441212D01*
G01X3318165Y-12443351D01*
G01X3315000Y-12444377D01*
G01X3307601D01*
G01X3307601Y-12422223D02*
G01X3307601Y-12444377D01*
G01X1757601Y-12422223D02*
G01X1765000Y-12422223D01*
G01X1768165Y-12423249D01*
G01X1770261Y-12425388D01*
G01X1771330Y-12427483D01*
G01X1772399Y-12430648D01*
G01Y-12435952D01*
G01X1771330Y-12439117D01*
G01X1770261Y-12441212D01*
G01X1768165Y-12443351D01*
G01X1765000Y-12444377D01*
G01X1757601D01*
G01X1757601Y-12422223D02*
G01X1757601Y-12444377D01*
G01X3307601Y-13920823D02*
G01X3315000Y-13920823D01*
G01X3318165Y-13921849D01*
G01X3320260Y-13923988D01*
G01X3321330Y-13926083D01*
G01X3322399Y-13929248D01*
G01Y-13934552D01*
G01X3321330Y-13937717D01*
G01X3320260Y-13939812D01*
G01X3318165Y-13941951D01*
G01X3315000Y-13942977D01*
G01X3307601D01*
G01X3307601Y-13920823D02*
G01X3307601Y-13942977D01*
G01X1757601Y-13920823D02*
G01X1765000Y-13920823D01*
G01X1768165Y-13921849D01*
G01X1770261Y-13923988D01*
G01X1771330Y-13926083D01*
G01X1772399Y-13929248D01*
G01Y-13934552D01*
G01X1771330Y-13937717D01*
G01X1770261Y-13939812D01*
G01X1768165Y-13941951D01*
G01X1765000Y-13942977D01*
G01X1757601D01*
G01X1757601Y-13920823D02*
G01X1757601Y-13942977D01*
G01X3307601Y-15419423D02*
G01X3315000Y-15419423D01*
G01X3318165Y-15420449D01*
G01X3320260Y-15422588D01*
G01X3321330Y-15424683D01*
G01X3322399Y-15427848D01*
G01Y-15433152D01*
G01X3321330Y-15436317D01*
G01X3320260Y-15438412D01*
G01X3318165Y-15440551D01*
G01X3315000Y-15441577D01*
G01X3307601D01*
G01X3307601Y-15419423D02*
G01X3307601Y-15441577D01*
G01X1757601Y-15419423D02*
G01X1765000Y-15419423D01*
G01X1768165Y-15420449D01*
G01X1770261Y-15422588D01*
G01X1771330Y-15424683D01*
G01X1772399Y-15427848D01*
G01Y-15433152D01*
G01X1771330Y-15436317D01*
G01X1770261Y-15438412D01*
G01X1768165Y-15440551D01*
G01X1765000Y-15441577D01*
G01X1757601D01*
G01X1757601Y-15419423D02*
G01X1757601Y-15441577D01*
G01X3307601Y-16918023D02*
G01X3315000Y-16918023D01*
G01X3318165Y-16919049D01*
G01X3320260Y-16921188D01*
G01X3321330Y-16923283D01*
G01X3322399Y-16926448D01*
G01Y-16931752D01*
G01X3321330Y-16934917D01*
G01X3320260Y-16937012D01*
G01X3318165Y-16939151D01*
G01X3315000Y-16940177D01*
G01X3307601D01*
G01X3307601Y-16918023D02*
G01X3307601Y-16940177D01*
G01X1757601Y-16918023D02*
G01X1765000Y-16918023D01*
G01X1768165Y-16919049D01*
G01X1770261Y-16921188D01*
G01X1771330Y-16923283D01*
G01X1772399Y-16926448D01*
G01Y-16931752D01*
G01X1771330Y-16934917D01*
G01X1770261Y-16937012D01*
G01X1768165Y-16939151D01*
G01X1765000Y-16940177D01*
G01X1757601D01*
G01X1757601Y-16918023D02*
G01X1757601Y-16940177D01*
G01X3307601Y-18416623D02*
G01X3315000Y-18416623D01*
G01X3318165Y-18417649D01*
G01X3320260Y-18419788D01*
G01X3321330Y-18421883D01*
G01X3322399Y-18425048D01*
G01Y-18430352D01*
G01X3321330Y-18433517D01*
G01X3320260Y-18435612D01*
G01X3318165Y-18437751D01*
G01X3315000Y-18438777D01*
G01X3307601D01*
G01X3307601Y-18416623D02*
G01X3307601Y-18438777D01*
G01X1757601Y-18416623D02*
G01X1765000Y-18416623D01*
G01X1768165Y-18417649D01*
G01X1770261Y-18419788D01*
G01X1771330Y-18421883D01*
G01X1772399Y-18425048D01*
G01Y-18430352D01*
G01X1771330Y-18433517D01*
G01X1770261Y-18435612D01*
G01X1768165Y-18437751D01*
G01X1765000Y-18438777D01*
G01X1757601D01*
G01X1757601Y-18416623D02*
G01X1757601Y-18438777D01*
G01X3307601Y-19915223D02*
G01X3315000Y-19915223D01*
G01X3318165Y-19916249D01*
G01X3320260Y-19918388D01*
G01X3321330Y-19920483D01*
G01X3322399Y-19923648D01*
G01Y-19928952D01*
G01X3321330Y-19932117D01*
G01X3320260Y-19934212D01*
G01X3318165Y-19936351D01*
G01X3315000Y-19937377D01*
G01X3307601D01*
G01X3307601Y-19915223D02*
G01X3307601Y-19937377D01*
G01X1757601Y-19915223D02*
G01X1765000Y-19915223D01*
G01X1768165Y-19916249D01*
G01X1770261Y-19918388D01*
G01X1771330Y-19920483D01*
G01X1772399Y-19923648D01*
G01Y-19928952D01*
G01X1771330Y-19932117D01*
G01X1770261Y-19934212D01*
G01X1768165Y-19936351D01*
G01X1765000Y-19937377D01*
G01X1757601D01*
G01X1757601Y-19915223D02*
G01X1757601Y-19937377D01*
G01X11663601Y-19826323D02*
G01X11671000Y-19826323D01*
G01X11674165Y-19827349D01*
G01X11676261Y-19829488D01*
G01X11677330Y-19831583D01*
G01X11678399Y-19834748D01*
G01Y-19840052D01*
G01X11677330Y-19843217D01*
G01X11676261Y-19845312D01*
G01X11674165Y-19847451D01*
G01X11671000Y-19848477D01*
G01X11663601D01*
G01X11663601Y-19826323D02*
G01X11663601Y-19848477D01*
G01X13213601Y-19826323D02*
G01X13221000Y-19826323D01*
G01X13224165Y-19827349D01*
G01X13226260Y-19829488D01*
G01X13227330Y-19831583D01*
G01X13228399Y-19834748D01*
G01Y-19840052D01*
G01X13227330Y-19843217D01*
G01X13226260Y-19845312D01*
G01X13224165Y-19847451D01*
G01X13221000Y-19848477D01*
G01X13213601D01*
G01X13213601Y-19826323D02*
G01X13213601Y-19848477D01*
G01X11663601Y-18327723D02*
G01X11671000Y-18327723D01*
G01X11674165Y-18328749D01*
G01X11676261Y-18330888D01*
G01X11677330Y-18332983D01*
G01X11678399Y-18336148D01*
G01Y-18341452D01*
G01X11677330Y-18344617D01*
G01X11676261Y-18346712D01*
G01X11674165Y-18348851D01*
G01X11671000Y-18349877D01*
G01X11663601D01*
G01X11663601Y-18327723D02*
G01X11663601Y-18349877D01*
G01X13213601Y-18327723D02*
G01X13221000Y-18327723D01*
G01X13224165Y-18328749D01*
G01X13226260Y-18330888D01*
G01X13227330Y-18332983D01*
G01X13228399Y-18336148D01*
G01Y-18341452D01*
G01X13227330Y-18344617D01*
G01X13226260Y-18346712D01*
G01X13224165Y-18348851D01*
G01X13221000Y-18349877D01*
G01X13213601D01*
G01X13213601Y-18327723D02*
G01X13213601Y-18349877D01*
G01X11663601Y-16829123D02*
G01X11671000Y-16829123D01*
G01X11674165Y-16830149D01*
G01X11676261Y-16832288D01*
G01X11677330Y-16834383D01*
G01X11678399Y-16837548D01*
G01Y-16842852D01*
G01X11677330Y-16846017D01*
G01X11676261Y-16848112D01*
G01X11674165Y-16850251D01*
G01X11671000Y-16851277D01*
G01X11663601D01*
G01X11663601Y-16829123D02*
G01X11663601Y-16851277D01*
G01X13213601Y-16829123D02*
G01X13221000Y-16829123D01*
G01X13224165Y-16830149D01*
G01X13226260Y-16832288D01*
G01X13227330Y-16834383D01*
G01X13228399Y-16837548D01*
G01Y-16842852D01*
G01X13227330Y-16846017D01*
G01X13226260Y-16848112D01*
G01X13224165Y-16850251D01*
G01X13221000Y-16851277D01*
G01X13213601D01*
G01X13213601Y-16829123D02*
G01X13213601Y-16851277D01*
G01X11663601Y-15330523D02*
G01X11671000Y-15330523D01*
G01X11674165Y-15331549D01*
G01X11676261Y-15333688D01*
G01X11677330Y-15335783D01*
G01X11678399Y-15338948D01*
G01Y-15344252D01*
G01X11677330Y-15347417D01*
G01X11676261Y-15349512D01*
G01X11674165Y-15351651D01*
G01X11671000Y-15352677D01*
G01X11663601D01*
G01X11663601Y-15330523D02*
G01X11663601Y-15352677D01*
G01X13213601Y-15330523D02*
G01X13221000Y-15330523D01*
G01X13224165Y-15331549D01*
G01X13226260Y-15333688D01*
G01X13227330Y-15335783D01*
G01X13228399Y-15338948D01*
G01Y-15344252D01*
G01X13227330Y-15347417D01*
G01X13226260Y-15349512D01*
G01X13224165Y-15351651D01*
G01X13221000Y-15352677D01*
G01X13213601D01*
G01X13213601Y-15330523D02*
G01X13213601Y-15352677D01*
G01X11663601Y-13831923D02*
G01X11671000Y-13831923D01*
G01X11674165Y-13832949D01*
G01X11676261Y-13835088D01*
G01X11677330Y-13837183D01*
G01X11678399Y-13840348D01*
G01Y-13845652D01*
G01X11677330Y-13848817D01*
G01X11676261Y-13850912D01*
G01X11674165Y-13853051D01*
G01X11671000Y-13854077D01*
G01X11663601D01*
G01X11663601Y-13831923D02*
G01X11663601Y-13854077D01*
G01X13213601Y-13831923D02*
G01X13221000Y-13831923D01*
G01X13224165Y-13832949D01*
G01X13226260Y-13835088D01*
G01X13227330Y-13837183D01*
G01X13228399Y-13840348D01*
G01Y-13845652D01*
G01X13227330Y-13848817D01*
G01X13226260Y-13850912D01*
G01X13224165Y-13853051D01*
G01X13221000Y-13854077D01*
G01X13213601D01*
G01X13213601Y-13831923D02*
G01X13213601Y-13854077D01*
G01X11663601Y-12333323D02*
G01X11671000Y-12333323D01*
G01X11674165Y-12334349D01*
G01X11676261Y-12336488D01*
G01X11677330Y-12338583D01*
G01X11678399Y-12341748D01*
G01Y-12347052D01*
G01X11677330Y-12350217D01*
G01X11676261Y-12352312D01*
G01X11674165Y-12354451D01*
G01X11671000Y-12355477D01*
G01X11663601D01*
G01X11663601Y-12333323D02*
G01X11663601Y-12355477D01*
G01X13213601Y-12333323D02*
G01X13221000Y-12333323D01*
G01X13224165Y-12334349D01*
G01X13226260Y-12336488D01*
G01X13227330Y-12338583D01*
G01X13228399Y-12341748D01*
G01Y-12347052D01*
G01X13227330Y-12350217D01*
G01X13226260Y-12352312D01*
G01X13224165Y-12354451D01*
G01X13221000Y-12355477D01*
G01X13213601D01*
G01X13213601Y-12333323D02*
G01X13213601Y-12355477D01*
G01X14737301Y-7329822D02*
G01X14744700Y-7329822D01*
G01X14747865Y-7330849D01*
G01X14749961Y-7332987D01*
G01X14751030Y-7335083D01*
G01X14752099Y-7338248D01*
G01Y-7343551D01*
G01X14751030Y-7346716D01*
G01X14749961Y-7348812D01*
G01X14747865Y-7350950D01*
G01X14744700Y-7351977D01*
G01X14737301D01*
G01X14737301Y-7329822D02*
G01X14737301Y-7351977D01*
G01X14737301Y-5779823D02*
G01X14744700Y-5779823D01*
G01X14747865Y-5780850D01*
G01X14749961Y-5782988D01*
G01X14751030Y-5785084D01*
G01X14752099Y-5788249D01*
G01Y-5793552D01*
G01X14751030Y-5796717D01*
G01X14749961Y-5798813D01*
G01X14747865Y-5800951D01*
G01X14744700Y-5801978D01*
G01X14737301D01*
G01X14737301Y-5779823D02*
G01X14737301Y-5801978D01*
G01X1757724Y-11571323D02*
G01X1757724Y-11593477D01*
G01X1757724Y-11571323D02*
G01X1771453Y-11571323D01*
G01X1757724Y-11581887D02*
G01X1766193Y-11581887D01*
G01X1757724Y-11593477D02*
G01X1771453Y-11593477D01*
G01X3257721Y-11571323D02*
G01X3257721Y-11593477D01*
G01X3257721Y-11571323D02*
G01X3271450Y-11571323D01*
G01X3257721Y-11581887D02*
G01X3266190Y-11581887D01*
G01X3257721Y-11593477D02*
G01X3271450Y-11593477D01*
G01X1757724Y-13069923D02*
G01X1757724Y-13092077D01*
G01X1757724Y-13069923D02*
G01X1771453Y-13069923D01*
G01X1757724Y-13080487D02*
G01X1766193Y-13080487D01*
G01X1757724Y-13092077D02*
G01X1771453Y-13092077D01*
G01X3257721Y-13069923D02*
G01X3257721Y-13092077D01*
G01X3257721Y-13069923D02*
G01X3271450Y-13069923D01*
G01X3257721Y-13080487D02*
G01X3266190Y-13080487D01*
G01X3257721Y-13092077D02*
G01X3271450Y-13092077D01*
G01X1757724Y-14568523D02*
G01X1757724Y-14590677D01*
G01X1757724Y-14568523D02*
G01X1771453Y-14568523D01*
G01X1757724Y-14579087D02*
G01X1766193Y-14579087D01*
G01X1757724Y-14590677D02*
G01X1771453Y-14590677D01*
G01X3257721Y-14568523D02*
G01X3257721Y-14590677D01*
G01X3257721Y-14568523D02*
G01X3271450Y-14568523D01*
G01X3257721Y-14579087D02*
G01X3266190Y-14579087D01*
G01X3257721Y-14590677D02*
G01X3271450Y-14590677D01*
G01X1757724Y-16067123D02*
G01X1757724Y-16089277D01*
G01X1757724Y-16067123D02*
G01X1771453Y-16067123D01*
G01X1757724Y-16077687D02*
G01X1766193Y-16077687D01*
G01X1757724Y-16089277D02*
G01X1771453Y-16089277D01*
G01X3257721Y-16067123D02*
G01X3257721Y-16089277D01*
G01X3257721Y-16067123D02*
G01X3271450Y-16067123D01*
G01X3257721Y-16077687D02*
G01X3266190Y-16077687D01*
G01X3257721Y-16089277D02*
G01X3271450Y-16089277D01*
G01X1757724Y-17565723D02*
G01X1757724Y-17587877D01*
G01X1757724Y-17565723D02*
G01X1771453Y-17565723D01*
G01X1757724Y-17576287D02*
G01X1766193Y-17576287D01*
G01X1757724Y-17587877D02*
G01X1771453Y-17587877D01*
G01X3257721Y-17565723D02*
G01X3257721Y-17587877D01*
G01X3257721Y-17565723D02*
G01X3271450Y-17565723D01*
G01X3257721Y-17576287D02*
G01X3266190Y-17576287D01*
G01X3257721Y-17587877D02*
G01X3271450Y-17587877D01*
G01X1757724Y-19064323D02*
G01X1757724Y-19086477D01*
G01X1757724Y-19064323D02*
G01X1771453Y-19064323D01*
G01X1757724Y-19074887D02*
G01X1766193Y-19074887D01*
G01X1757724Y-19086477D02*
G01X1771453Y-19086477D01*
G01X3257721Y-19064323D02*
G01X3257721Y-19086477D01*
G01X3257721Y-19064323D02*
G01X3271450Y-19064323D01*
G01X3257721Y-19074887D02*
G01X3266190Y-19074887D01*
G01X3257721Y-19086477D02*
G01X3271450Y-19086477D01*
G01X1757724Y-20562923D02*
G01X1757724Y-20585077D01*
G01X1757724Y-20562923D02*
G01X1771453Y-20562923D01*
G01X1757724Y-20573487D02*
G01X1766193Y-20573487D01*
G01X1757724Y-20585077D02*
G01X1771453Y-20585077D01*
G01X3257721Y-20562923D02*
G01X3257721Y-20585077D01*
G01X3257721Y-20562923D02*
G01X3271450Y-20562923D01*
G01X3257721Y-20573487D02*
G01X3266190Y-20573487D01*
G01X3257721Y-20585077D02*
G01X3271450Y-20585077D01*
G01X13214547Y-19178623D02*
G01X13214547Y-19200777D01*
G01X13214547Y-19178623D02*
G01X13228276Y-19178623D01*
G01X13214547Y-19189187D02*
G01X13223015Y-19189187D01*
G01X13214547Y-19200777D02*
G01X13228276Y-19200777D01*
G01X11714550Y-19178623D02*
G01X11714550Y-19200777D01*
G01X11714550Y-19178623D02*
G01X11728279Y-19178623D01*
G01X11714550Y-19189187D02*
G01X11723018Y-19189187D01*
G01X11714550Y-19200777D02*
G01X11728279Y-19200777D01*
G01X13214547Y-17680023D02*
G01X13214547Y-17702177D01*
G01X13214547Y-17680023D02*
G01X13228276Y-17680023D01*
G01X13214547Y-17690587D02*
G01X13223015Y-17690587D01*
G01X13214547Y-17702177D02*
G01X13228276Y-17702177D01*
G01X11714550Y-17680023D02*
G01X11714550Y-17702177D01*
G01X11714550Y-17680023D02*
G01X11728279Y-17680023D01*
G01X11714550Y-17690587D02*
G01X11723018Y-17690587D01*
G01X11714550Y-17702177D02*
G01X11728279Y-17702177D01*
G01X13214547Y-16181423D02*
G01X13214547Y-16203577D01*
G01X13214547Y-16181423D02*
G01X13228276Y-16181423D01*
G01X13214547Y-16191987D02*
G01X13223015Y-16191987D01*
G01X13214547Y-16203577D02*
G01X13228276Y-16203577D01*
G01X11714550Y-16181423D02*
G01X11714550Y-16203577D01*
G01X11714550Y-16181423D02*
G01X11728279Y-16181423D01*
G01X11714550Y-16191987D02*
G01X11723018Y-16191987D01*
G01X11714550Y-16203577D02*
G01X11728279Y-16203577D01*
G01X13214547Y-14682823D02*
G01X13214547Y-14704977D01*
G01X13214547Y-14682823D02*
G01X13228276Y-14682823D01*
G01X13214547Y-14693387D02*
G01X13223015Y-14693387D01*
G01X13214547Y-14704977D02*
G01X13228276Y-14704977D01*
G01X11714550Y-14682823D02*
G01X11714550Y-14704977D01*
G01X11714550Y-14682823D02*
G01X11728279Y-14682823D01*
G01X11714550Y-14693387D02*
G01X11723018Y-14693387D01*
G01X11714550Y-14704977D02*
G01X11728279Y-14704977D01*
G01X13214547Y-13184223D02*
G01X13214547Y-13206377D01*
G01X13214547Y-13184223D02*
G01X13228276Y-13184223D01*
G01X13214547Y-13194787D02*
G01X13223015Y-13194787D01*
G01X13214547Y-13206377D02*
G01X13228276Y-13206377D01*
G01X11714550Y-13184223D02*
G01X11714550Y-13206377D01*
G01X11714550Y-13184223D02*
G01X11728279Y-13184223D01*
G01X11714550Y-13194787D02*
G01X11723018Y-13194787D01*
G01X11714550Y-13206377D02*
G01X11728279Y-13206377D01*
G01X13214547Y-11685623D02*
G01X13214547Y-11707777D01*
G01X13214547Y-11685623D02*
G01X13228276Y-11685623D01*
G01X13214547Y-11696187D02*
G01X13223015Y-11696187D01*
G01X13214547Y-11707777D02*
G01X13228276Y-11707777D01*
G01X11714550Y-11685623D02*
G01X11714550Y-11707777D01*
G01X11714550Y-11685623D02*
G01X11728279Y-11685623D01*
G01X11714550Y-11696187D02*
G01X11723018Y-11696187D01*
G01X11714550Y-11707777D02*
G01X11728279Y-11707777D01*
G01X14013936Y-7038134D02*
G01X14013936Y-7060288D01*
G01X14013936Y-7038134D02*
G01X14027664Y-7038134D01*
G01X14013936Y-7048698D02*
G01X14022404Y-7048698D01*
G01X14013936Y-7060288D02*
G01X14027664Y-7060288D01*
G01X14013936Y-5538137D02*
G01X14013936Y-5560291D01*
G01X14013936Y-5538137D02*
G01X14027664Y-5538137D01*
G01X14013936Y-5548701D02*
G01X14022404Y-5548701D01*
G01X14013936Y-5560291D02*
G01X14027664Y-5560291D01*
G01X5403336Y-11685623D02*
G01X5403336Y-11707777D01*
G01X5403336Y-11685623D02*
G01X5417064Y-11685623D01*
G01X5403336Y-11696187D02*
G01X5411804Y-11696187D01*
G01X3625336Y-10923623D02*
G01X3625336Y-10945777D01*
G01X3625336Y-10923623D02*
G01X3639064Y-10923623D01*
G01X3625336Y-10934187D02*
G01X3633804Y-10934187D01*
G01X4387336Y-10923623D02*
G01X4387336Y-10945777D01*
G01X4387336Y-10923623D02*
G01X4401064Y-10923623D01*
G01X4387336Y-10934187D02*
G01X4395804Y-10934187D01*
G01X5403336Y-10923623D02*
G01X5403336Y-10945777D01*
G01X5403336Y-10923623D02*
G01X5417064Y-10923623D01*
G01X5403336Y-10934187D02*
G01X5411804Y-10934187D01*
G01X5403336Y-13184223D02*
G01X5403336Y-13206377D01*
G01X5403336Y-13184223D02*
G01X5417064Y-13184223D01*
G01X5403336Y-13194787D02*
G01X5411804Y-13194787D01*
G01X3625336Y-12422223D02*
G01X3625336Y-12444377D01*
G01X3625336Y-12422223D02*
G01X3639064Y-12422223D01*
G01X3625336Y-12432787D02*
G01X3633804Y-12432787D01*
G01X4387336Y-12422223D02*
G01X4387336Y-12444377D01*
G01X4387336Y-12422223D02*
G01X4401064Y-12422223D01*
G01X4387336Y-12432787D02*
G01X4395804Y-12432787D01*
G01X5403336Y-12422223D02*
G01X5403336Y-12444377D01*
G01X5403336Y-12422223D02*
G01X5417064Y-12422223D01*
G01X5403336Y-12432787D02*
G01X5411804Y-12432787D01*
G01X5403336Y-14682823D02*
G01X5403336Y-14704977D01*
G01X5403336Y-14682823D02*
G01X5417064Y-14682823D01*
G01X5403336Y-14693387D02*
G01X5411804Y-14693387D01*
G01X3625336Y-13920823D02*
G01X3625336Y-13942977D01*
G01X3625336Y-13920823D02*
G01X3639064Y-13920823D01*
G01X3625336Y-13931387D02*
G01X3633804Y-13931387D01*
G01X4387336Y-13920823D02*
G01X4387336Y-13942977D01*
G01X4387336Y-13920823D02*
G01X4401064Y-13920823D01*
G01X4387336Y-13931387D02*
G01X4395804Y-13931387D01*
G01X5403336Y-13920823D02*
G01X5403336Y-13942977D01*
G01X5403336Y-13920823D02*
G01X5417064Y-13920823D01*
G01X5403336Y-13931387D02*
G01X5411804Y-13931387D01*
G01X5403336Y-16181423D02*
G01X5403336Y-16203577D01*
G01X5403336Y-16181423D02*
G01X5417064Y-16181423D01*
G01X5403336Y-16191987D02*
G01X5411804Y-16191987D01*
G01X3625336Y-15419423D02*
G01X3625336Y-15441577D01*
G01X3625336Y-15419423D02*
G01X3639064Y-15419423D01*
G01X3625336Y-15429987D02*
G01X3633804Y-15429987D01*
G01X4387336Y-15419423D02*
G01X4387336Y-15441577D01*
G01X4387336Y-15419423D02*
G01X4401064Y-15419423D01*
G01X4387336Y-15429987D02*
G01X4395804Y-15429987D01*
G01X5403336Y-15419423D02*
G01X5403336Y-15441577D01*
G01X5403336Y-15419423D02*
G01X5417064Y-15419423D01*
G01X5403336Y-15429987D02*
G01X5411804Y-15429987D01*
G01X5403336Y-17680023D02*
G01X5403336Y-17702177D01*
G01X5403336Y-17680023D02*
G01X5417064Y-17680023D01*
G01X5403336Y-17690587D02*
G01X5411804Y-17690587D01*
G01X3625336Y-16918023D02*
G01X3625336Y-16940177D01*
G01X3625336Y-16918023D02*
G01X3639064Y-16918023D01*
G01X3625336Y-16928587D02*
G01X3633804Y-16928587D01*
G01X4387336Y-16918023D02*
G01X4387336Y-16940177D01*
G01X4387336Y-16918023D02*
G01X4401064Y-16918023D01*
G01X4387336Y-16928587D02*
G01X4395804Y-16928587D01*
G01X5403336Y-16918023D02*
G01X5403336Y-16940177D01*
G01X5403336Y-16918023D02*
G01X5417064Y-16918023D01*
G01X5403336Y-16928587D02*
G01X5411804Y-16928587D01*
G01X5403336Y-19178623D02*
G01X5403336Y-19200777D01*
G01X5403336Y-19178623D02*
G01X5417064Y-19178623D01*
G01X5403336Y-19189187D02*
G01X5411804Y-19189187D01*
G01X3625336Y-18416623D02*
G01X3625336Y-18438777D01*
G01X3625336Y-18416623D02*
G01X3639064Y-18416623D01*
G01X3625336Y-18427187D02*
G01X3633804Y-18427187D01*
G01X4387336Y-18416623D02*
G01X4387336Y-18438777D01*
G01X4387336Y-18416623D02*
G01X4401064Y-18416623D01*
G01X4387336Y-18427187D02*
G01X4395804Y-18427187D01*
G01X5403336Y-18416623D02*
G01X5403336Y-18438777D01*
G01X5403336Y-18416623D02*
G01X5417064Y-18416623D01*
G01X5403336Y-18427187D02*
G01X5411804Y-18427187D01*
G01X5403336Y-20677223D02*
G01X5403336Y-20699377D01*
G01X5403336Y-20677223D02*
G01X5417064Y-20677223D01*
G01X5403336Y-20687787D02*
G01X5411804Y-20687787D01*
G01X3625336Y-19915223D02*
G01X3625336Y-19937377D01*
G01X3625336Y-19915223D02*
G01X3639064Y-19915223D01*
G01X3625336Y-19925787D02*
G01X3633804Y-19925787D01*
G01X4387336Y-19915223D02*
G01X4387336Y-19937377D01*
G01X4387336Y-19915223D02*
G01X4401064Y-19915223D01*
G01X4387336Y-19925787D02*
G01X4395804Y-19925787D01*
G01X5403336Y-19915223D02*
G01X5403336Y-19937377D01*
G01X5403336Y-19915223D02*
G01X5417064Y-19915223D01*
G01X5403336Y-19925787D02*
G01X5411804Y-19925787D01*
G01X9568936Y-19064323D02*
G01X9568936Y-19086477D01*
G01X9568936Y-19064323D02*
G01X9582664Y-19064323D01*
G01X9568936Y-19074887D02*
G01X9577404Y-19074887D01*
G01X11346936Y-19826323D02*
G01X11346936Y-19848477D01*
G01X11346936Y-19826323D02*
G01X11360664Y-19826323D01*
G01X11346936Y-19836887D02*
G01X11355404Y-19836887D01*
G01X10584936Y-19826323D02*
G01X10584936Y-19848477D01*
G01X10584936Y-19826323D02*
G01X10598664Y-19826323D01*
G01X10584936Y-19836887D02*
G01X10593404Y-19836887D01*
G01X9568936Y-19826323D02*
G01X9568936Y-19848477D01*
G01X9568936Y-19826323D02*
G01X9582664Y-19826323D01*
G01X9568936Y-19836887D02*
G01X9577404Y-19836887D01*
G01X9568936Y-17565723D02*
G01X9568936Y-17587877D01*
G01X9568936Y-17565723D02*
G01X9582664Y-17565723D01*
G01X9568936Y-17576287D02*
G01X9577404Y-17576287D01*
G01X11346936Y-18327723D02*
G01X11346936Y-18349877D01*
G01X11346936Y-18327723D02*
G01X11360664Y-18327723D01*
G01X11346936Y-18338287D02*
G01X11355404Y-18338287D01*
G01X10584936Y-18327723D02*
G01X10584936Y-18349877D01*
G01X10584936Y-18327723D02*
G01X10598664Y-18327723D01*
G01X10584936Y-18338287D02*
G01X10593404Y-18338287D01*
G01X9568936Y-18327723D02*
G01X9568936Y-18349877D01*
G01X9568936Y-18327723D02*
G01X9582664Y-18327723D01*
G01X9568936Y-18338287D02*
G01X9577404Y-18338287D01*
G01X9568936Y-16067123D02*
G01X9568936Y-16089277D01*
G01X9568936Y-16067123D02*
G01X9582664Y-16067123D01*
G01X9568936Y-16077687D02*
G01X9577404Y-16077687D01*
G01X11346936Y-16829123D02*
G01X11346936Y-16851277D01*
G01X11346936Y-16829123D02*
G01X11360664Y-16829123D01*
G01X11346936Y-16839687D02*
G01X11355404Y-16839687D01*
G01X10584936Y-16829123D02*
G01X10584936Y-16851277D01*
G01X10584936Y-16829123D02*
G01X10598664Y-16829123D01*
G01X10584936Y-16839687D02*
G01X10593404Y-16839687D01*
G01X9568936Y-16829123D02*
G01X9568936Y-16851277D01*
G01X9568936Y-16829123D02*
G01X9582664Y-16829123D01*
G01X9568936Y-16839687D02*
G01X9577404Y-16839687D01*
G01X9568936Y-14568523D02*
G01X9568936Y-14590677D01*
G01X9568936Y-14568523D02*
G01X9582664Y-14568523D01*
G01X9568936Y-14579087D02*
G01X9577404Y-14579087D01*
G01X11346936Y-15330523D02*
G01X11346936Y-15352677D01*
G01X11346936Y-15330523D02*
G01X11360664Y-15330523D01*
G01X11346936Y-15341087D02*
G01X11355404Y-15341087D01*
G01X10584936Y-15330523D02*
G01X10584936Y-15352677D01*
G01X10584936Y-15330523D02*
G01X10598664Y-15330523D01*
G01X10584936Y-15341087D02*
G01X10593404Y-15341087D01*
G01X9568936Y-15330523D02*
G01X9568936Y-15352677D01*
G01X9568936Y-15330523D02*
G01X9582664Y-15330523D01*
G01X9568936Y-15341087D02*
G01X9577404Y-15341087D01*
G01X9568936Y-13069923D02*
G01X9568936Y-13092077D01*
G01X9568936Y-13069923D02*
G01X9582664Y-13069923D01*
G01X9568936Y-13080487D02*
G01X9577404Y-13080487D01*
G01X11346936Y-13831923D02*
G01X11346936Y-13854077D01*
G01X11346936Y-13831923D02*
G01X11360664Y-13831923D01*
G01X11346936Y-13842487D02*
G01X11355404Y-13842487D01*
G01X10584936Y-13831923D02*
G01X10584936Y-13854077D01*
G01X10584936Y-13831923D02*
G01X10598664Y-13831923D01*
G01X10584936Y-13842487D02*
G01X10593404Y-13842487D01*
G01X9568936Y-13831923D02*
G01X9568936Y-13854077D01*
G01X9568936Y-13831923D02*
G01X9582664Y-13831923D01*
G01X9568936Y-13842487D02*
G01X9577404Y-13842487D01*
G01X9568936Y-11571323D02*
G01X9568936Y-11593477D01*
G01X9568936Y-11571323D02*
G01X9582664Y-11571323D01*
G01X9568936Y-11581887D02*
G01X9577404Y-11581887D01*
G01X11346936Y-12333323D02*
G01X11346936Y-12355477D01*
G01X11346936Y-12333323D02*
G01X11360664Y-12333323D01*
G01X11346936Y-12343887D02*
G01X11355404Y-12343887D01*
G01X10584936Y-12333323D02*
G01X10584936Y-12355477D01*
G01X10584936Y-12333323D02*
G01X10598664Y-12333323D01*
G01X10584936Y-12343887D02*
G01X10593404Y-12343887D01*
G01X9568936Y-12333323D02*
G01X9568936Y-12355477D01*
G01X9568936Y-12333323D02*
G01X9582664Y-12333323D01*
G01X9568936Y-12343887D02*
G01X9577404Y-12343887D01*
G01X12464536Y-3186323D02*
G01X12464536Y-3208477D01*
G01X12464536Y-3186323D02*
G01X12478264Y-3186323D01*
G01X12464536Y-3196887D02*
G01X12473004Y-3196887D01*
G01X12464536Y-3696322D02*
G01X12464536Y-3718476D01*
G01X12464536Y-3696322D02*
G01X12478264Y-3696322D01*
G01X12464536Y-3706886D02*
G01X12473004Y-3706886D01*
G01X12464536Y-4206324D02*
G01X12464536Y-4228478D01*
G01X12464536Y-4206324D02*
G01X12478264Y-4206324D01*
G01X12464536Y-4216888D02*
G01X12473004Y-4216888D01*
G01X12464536Y-4716323D02*
G01X12464536Y-4738477D01*
G01X12464536Y-4716323D02*
G01X12478264Y-4716323D01*
G01X12464536Y-4726887D02*
G01X12473004Y-4726887D01*
G01X8694712Y-17418583D02*
G01X8693686Y-17416488D01*
G01X8691547Y-17414349D01*
G01X8689452Y-17413323D01*
G01X8685218D01*
G01X8683122Y-17414349D01*
G01X8680983Y-17416488D01*
G01X8679957Y-17418583D01*
G01X8678888Y-17421748D01*
G01Y-17427052D01*
G01X8679957Y-17430217D01*
G01X8680983Y-17432312D01*
G01X8683122Y-17434451D01*
G01X8685218Y-17435477D01*
G01X8689452D01*
G01X8691547Y-17434451D01*
G01X8693686Y-17432312D01*
G01X8694712Y-17430217D01*
G01Y-17427052D01*
G01X8689452Y-17427052D02*
G01X8694712Y-17427052D01*
G01X8694712Y-17672583D02*
G01X8693686Y-17670488D01*
G01X8691547Y-17668349D01*
G01X8689452Y-17667323D01*
G01X8685218D01*
G01X8683122Y-17668349D01*
G01X8680983Y-17670488D01*
G01X8679957Y-17672583D01*
G01X8678888Y-17675748D01*
G01Y-17681052D01*
G01X8679957Y-17684217D01*
G01X8680983Y-17686312D01*
G01X8683122Y-17688451D01*
G01X8685218Y-17689477D01*
G01X8689452D01*
G01X8691547Y-17688451D01*
G01X8693686Y-17686312D01*
G01X8694712Y-17684217D01*
G01Y-17681052D01*
G01X8689452Y-17681052D02*
G01X8694712Y-17681052D01*
G01X8694712Y-17926583D02*
G01X8693686Y-17924488D01*
G01X8691547Y-17922349D01*
G01X8689452Y-17921323D01*
G01X8685218D01*
G01X8683122Y-17922349D01*
G01X8680983Y-17924488D01*
G01X8679957Y-17926583D01*
G01X8678888Y-17929748D01*
G01Y-17935052D01*
G01X8679957Y-17938217D01*
G01X8680983Y-17940312D01*
G01X8683122Y-17942451D01*
G01X8685218Y-17943477D01*
G01X8689452D01*
G01X8691547Y-17942451D01*
G01X8693686Y-17940312D01*
G01X8694712Y-17938217D01*
G01Y-17935052D01*
G01X8689452Y-17935052D02*
G01X8694712Y-17935052D01*
G01X8694712Y-18180583D02*
G01X8693686Y-18178488D01*
G01X8691547Y-18176349D01*
G01X8689452Y-18175323D01*
G01X8685218D01*
G01X8683122Y-18176349D01*
G01X8680983Y-18178488D01*
G01X8679957Y-18180583D01*
G01X8678888Y-18183748D01*
G01Y-18189052D01*
G01X8679957Y-18192217D01*
G01X8680983Y-18194312D01*
G01X8683122Y-18196451D01*
G01X8685218Y-18197477D01*
G01X8689452D01*
G01X8691547Y-18196451D01*
G01X8693686Y-18194312D01*
G01X8694712Y-18192217D01*
G01Y-18189052D01*
G01X8689452Y-18189052D02*
G01X8694712Y-18189052D01*
G01X8694712Y-18434583D02*
G01X8693686Y-18432488D01*
G01X8691547Y-18430349D01*
G01X8689452Y-18429323D01*
G01X8685218D01*
G01X8683122Y-18430349D01*
G01X8680983Y-18432488D01*
G01X8679957Y-18434583D01*
G01X8678888Y-18437748D01*
G01Y-18443052D01*
G01X8679957Y-18446217D01*
G01X8680983Y-18448312D01*
G01X8683122Y-18450451D01*
G01X8685218Y-18451477D01*
G01X8689452D01*
G01X8691547Y-18450451D01*
G01X8693686Y-18448312D01*
G01X8694712Y-18446217D01*
G01Y-18443052D01*
G01X8689452Y-18443052D02*
G01X8694712Y-18443052D01*
G01X8694712Y-18688583D02*
G01X8693686Y-18686488D01*
G01X8691547Y-18684349D01*
G01X8689452Y-18683323D01*
G01X8685218D01*
G01X8683122Y-18684349D01*
G01X8680983Y-18686488D01*
G01X8679957Y-18688583D01*
G01X8678888Y-18691748D01*
G01Y-18697052D01*
G01X8679957Y-18700217D01*
G01X8680983Y-18702312D01*
G01X8683122Y-18704451D01*
G01X8685218Y-18705477D01*
G01X8689452D01*
G01X8691547Y-18704451D01*
G01X8693686Y-18702312D01*
G01X8694712Y-18700217D01*
G01Y-18697052D01*
G01X8689452Y-18697052D02*
G01X8694712Y-18697052D01*
G01X8694712Y-18942583D02*
G01X8693686Y-18940488D01*
G01X8691547Y-18938349D01*
G01X8689452Y-18937323D01*
G01X8685218D01*
G01X8683122Y-18938349D01*
G01X8680983Y-18940488D01*
G01X8679957Y-18942583D01*
G01X8678888Y-18945748D01*
G01Y-18951052D01*
G01X8679957Y-18954217D01*
G01X8680983Y-18956312D01*
G01X8683122Y-18958451D01*
G01X8685218Y-18959477D01*
G01X8689452D01*
G01X8691547Y-18958451D01*
G01X8693686Y-18956312D01*
G01X8694712Y-18954217D01*
G01Y-18951052D01*
G01X8689452Y-18951052D02*
G01X8694712Y-18951052D01*
G01X8694712Y-19196583D02*
G01X8693686Y-19194488D01*
G01X8691547Y-19192349D01*
G01X8689452Y-19191323D01*
G01X8685218D01*
G01X8683122Y-19192349D01*
G01X8680983Y-19194488D01*
G01X8679957Y-19196583D01*
G01X8678888Y-19199748D01*
G01Y-19205052D01*
G01X8679957Y-19208217D01*
G01X8680983Y-19210312D01*
G01X8683122Y-19212451D01*
G01X8685218Y-19213477D01*
G01X8689452D01*
G01X8691547Y-19212451D01*
G01X8693686Y-19210312D01*
G01X8694712Y-19208217D01*
G01Y-19205052D01*
G01X8689452Y-19205052D02*
G01X8694712Y-19205052D01*
G01X8694712Y-19450583D02*
G01X8693686Y-19448488D01*
G01X8691547Y-19446349D01*
G01X8689452Y-19445323D01*
G01X8685218D01*
G01X8683122Y-19446349D01*
G01X8680983Y-19448488D01*
G01X8679957Y-19450583D01*
G01X8678888Y-19453748D01*
G01Y-19459052D01*
G01X8679957Y-19462217D01*
G01X8680983Y-19464312D01*
G01X8683122Y-19466451D01*
G01X8685218Y-19467477D01*
G01X8689452D01*
G01X8691547Y-19466451D01*
G01X8693686Y-19464312D01*
G01X8694712Y-19462217D01*
G01Y-19459052D01*
G01X8689452Y-19459052D02*
G01X8694712Y-19459052D01*
G01X6688112Y-13456183D02*
G01X6687086Y-13454088D01*
G01X6684947Y-13451949D01*
G01X6682852Y-13450923D01*
G01X6678618D01*
G01X6676522Y-13451949D01*
G01X6674383Y-13454088D01*
G01X6673357Y-13456183D01*
G01X6672288Y-13459348D01*
G01Y-13464652D01*
G01X6673357Y-13467817D01*
G01X6674383Y-13469912D01*
G01X6676522Y-13472051D01*
G01X6678618Y-13473077D01*
G01X6682852D01*
G01X6684947Y-13472051D01*
G01X6687086Y-13469912D01*
G01X6688112Y-13467817D01*
G01Y-13464652D01*
G01X6682852Y-13464652D02*
G01X6688112Y-13464652D01*
G01X6688112Y-13202183D02*
G01X6687086Y-13200088D01*
G01X6684947Y-13197949D01*
G01X6682852Y-13196923D01*
G01X6678618D01*
G01X6676522Y-13197949D01*
G01X6674383Y-13200088D01*
G01X6673357Y-13202183D01*
G01X6672288Y-13205348D01*
G01Y-13210652D01*
G01X6673357Y-13213817D01*
G01X6674383Y-13215912D01*
G01X6676522Y-13218051D01*
G01X6678618Y-13219077D01*
G01X6682852D01*
G01X6684947Y-13218051D01*
G01X6687086Y-13215912D01*
G01X6688112Y-13213817D01*
G01Y-13210652D01*
G01X6682852Y-13210652D02*
G01X6688112Y-13210652D01*
G01X6688112Y-12948183D02*
G01X6687086Y-12946088D01*
G01X6684947Y-12943949D01*
G01X6682852Y-12942923D01*
G01X6678618D01*
G01X6676522Y-12943949D01*
G01X6674383Y-12946088D01*
G01X6673357Y-12948183D01*
G01X6672288Y-12951348D01*
G01Y-12956652D01*
G01X6673357Y-12959817D01*
G01X6674383Y-12961912D01*
G01X6676522Y-12964051D01*
G01X6678618Y-12965077D01*
G01X6682852D01*
G01X6684947Y-12964051D01*
G01X6687086Y-12961912D01*
G01X6688112Y-12959817D01*
G01Y-12956652D01*
G01X6682852Y-12956652D02*
G01X6688112Y-12956652D01*
G01X6688112Y-12694183D02*
G01X6687086Y-12692088D01*
G01X6684947Y-12689949D01*
G01X6682852Y-12688923D01*
G01X6678618D01*
G01X6676522Y-12689949D01*
G01X6674383Y-12692088D01*
G01X6673357Y-12694183D01*
G01X6672288Y-12697348D01*
G01Y-12702652D01*
G01X6673357Y-12705817D01*
G01X6674383Y-12707912D01*
G01X6676522Y-12710051D01*
G01X6678618Y-12711077D01*
G01X6682852D01*
G01X6684947Y-12710051D01*
G01X6687086Y-12707912D01*
G01X6688112Y-12705817D01*
G01Y-12702652D01*
G01X6682852Y-12702652D02*
G01X6688112Y-12702652D01*
G01X6688112Y-12440183D02*
G01X6687086Y-12438088D01*
G01X6684947Y-12435949D01*
G01X6682852Y-12434923D01*
G01X6678618D01*
G01X6676522Y-12435949D01*
G01X6674383Y-12438088D01*
G01X6673357Y-12440183D01*
G01X6672288Y-12443348D01*
G01Y-12448652D01*
G01X6673357Y-12451817D01*
G01X6674383Y-12453912D01*
G01X6676522Y-12456051D01*
G01X6678618Y-12457077D01*
G01X6682852D01*
G01X6684947Y-12456051D01*
G01X6687086Y-12453912D01*
G01X6688112Y-12451817D01*
G01Y-12448652D01*
G01X6682852Y-12448652D02*
G01X6688112Y-12448652D01*
G01X6688112Y-12186183D02*
G01X6687086Y-12184088D01*
G01X6684947Y-12181949D01*
G01X6682852Y-12180923D01*
G01X6678618D01*
G01X6676522Y-12181949D01*
G01X6674383Y-12184088D01*
G01X6673357Y-12186183D01*
G01X6672288Y-12189348D01*
G01Y-12194652D01*
G01X6673357Y-12197817D01*
G01X6674383Y-12199912D01*
G01X6676522Y-12202051D01*
G01X6678618Y-12203077D01*
G01X6682852D01*
G01X6684947Y-12202051D01*
G01X6687086Y-12199912D01*
G01X6688112Y-12197817D01*
G01Y-12194652D01*
G01X6682852Y-12194652D02*
G01X6688112Y-12194652D01*
G01X6688112Y-11932183D02*
G01X6687086Y-11930088D01*
G01X6684947Y-11927949D01*
G01X6682852Y-11926923D01*
G01X6678618D01*
G01X6676522Y-11927949D01*
G01X6674383Y-11930088D01*
G01X6673357Y-11932183D01*
G01X6672288Y-11935348D01*
G01Y-11940652D01*
G01X6673357Y-11943817D01*
G01X6674383Y-11945912D01*
G01X6676522Y-11948051D01*
G01X6678618Y-11949077D01*
G01X6682852D01*
G01X6684947Y-11948051D01*
G01X6687086Y-11945912D01*
G01X6688112Y-11943817D01*
G01Y-11940652D01*
G01X6682852Y-11940652D02*
G01X6688112Y-11940652D01*
G01X6688112Y-11678183D02*
G01X6687086Y-11676088D01*
G01X6684947Y-11673949D01*
G01X6682852Y-11672923D01*
G01X6678618D01*
G01X6676522Y-11673949D01*
G01X6674383Y-11676088D01*
G01X6673357Y-11678183D01*
G01X6672288Y-11681348D01*
G01Y-11686652D01*
G01X6673357Y-11689817D01*
G01X6674383Y-11691912D01*
G01X6676522Y-11694051D01*
G01X6678618Y-11695077D01*
G01X6682852D01*
G01X6684947Y-11694051D01*
G01X6687086Y-11691912D01*
G01X6688112Y-11689817D01*
G01Y-11686652D01*
G01X6682852Y-11686652D02*
G01X6688112Y-11686652D01*
G01X6688112Y-11424183D02*
G01X6687086Y-11422088D01*
G01X6684947Y-11419949D01*
G01X6682852Y-11418923D01*
G01X6678618D01*
G01X6676522Y-11419949D01*
G01X6674383Y-11422088D01*
G01X6673357Y-11424183D01*
G01X6672288Y-11427348D01*
G01Y-11432652D01*
G01X6673357Y-11435817D01*
G01X6674383Y-11437912D01*
G01X6676522Y-11440051D01*
G01X6678618Y-11441077D01*
G01X6682852D01*
G01X6684947Y-11440051D01*
G01X6687086Y-11437912D01*
G01X6688112Y-11435817D01*
G01Y-11432652D01*
G01X6682852Y-11432652D02*
G01X6688112Y-11432652D01*
G01X218613Y-13591883D02*
G01X217586Y-13589787D01*
G01X215448Y-13587649D01*
G01X213352Y-13586622D01*
G01X209118D01*
G01X207022Y-13587649D01*
G01X204884Y-13589787D01*
G01X203858Y-13591883D01*
G01X202788Y-13595048D01*
G01Y-13600351D01*
G01X203858Y-13603516D01*
G01X204884Y-13605612D01*
G01X207022Y-13607750D01*
G01X209118Y-13608777D01*
G01X213352D01*
G01X215448Y-13607750D01*
G01X217586Y-13605612D01*
G01X218613Y-13603516D01*
G01Y-13600351D01*
G01X213352Y-13600351D02*
G01X218613Y-13600351D01*
G01X838612Y-13091884D02*
G01X837585Y-13089788D01*
G01X835447Y-13087650D01*
G01X833351Y-13086623D01*
G01X829117D01*
G01X827021Y-13087650D01*
G01X824883Y-13089788D01*
G01X823856Y-13091884D01*
G01X822787Y-13095049D01*
G01Y-13100352D01*
G01X823856Y-13103517D01*
G01X824883Y-13105613D01*
G01X827021Y-13107751D01*
G01X829117Y-13108778D01*
G01X833351D01*
G01X835447Y-13107751D01*
G01X837585Y-13105613D01*
G01X838612Y-13103517D01*
G01Y-13100352D01*
G01X833351Y-13100352D02*
G01X838612Y-13100352D01*
G01X2267115Y-502194D02*
G01X2266089Y-500098D01*
G01X2263950Y-497959D01*
G01X2261855Y-496933D01*
G01X2257621D01*
G01X2255525Y-497959D01*
G01X2253386Y-500098D01*
G01X2252360Y-502194D01*
G01X2251291Y-505358D01*
G01Y-510662D01*
G01X2252360Y-513827D01*
G01X2253386Y-515922D01*
G01X2255525Y-518061D01*
G01X2257621Y-519087D01*
G01X2261855D01*
G01X2263950Y-518061D01*
G01X2266089Y-515922D01*
G01X2267115Y-513827D01*
G01Y-510662D01*
G01X2261855Y-510662D02*
G01X2267115Y-510662D01*
G01X2517089Y-502194D02*
G01X2516063Y-500098D01*
G01X2513924Y-497959D01*
G01X2511829Y-496933D01*
G01X2507595D01*
G01X2505499Y-497959D01*
G01X2503360Y-500098D01*
G01X2502334Y-502194D01*
G01X2501265Y-505358D01*
G01Y-510662D01*
G01X2502334Y-513827D01*
G01X2503360Y-515922D01*
G01X2505499Y-518061D01*
G01X2507595Y-519087D01*
G01X2511829D01*
G01X2513924Y-518061D01*
G01X2516063Y-515922D01*
G01X2517089Y-513827D01*
G01Y-510662D01*
G01X2511829Y-510662D02*
G01X2517089Y-510662D01*
G01X2767114Y-502194D02*
G01X2766088Y-500098D01*
G01X2763949Y-497959D01*
G01X2761854Y-496933D01*
G01X2757620D01*
G01X2755524Y-497959D01*
G01X2753385Y-500098D01*
G01X2752359Y-502194D01*
G01X2751290Y-505358D01*
G01Y-510662D01*
G01X2752359Y-513827D01*
G01X2753385Y-515922D01*
G01X2755524Y-518061D01*
G01X2757620Y-519087D01*
G01X2761854D01*
G01X2763949Y-518061D01*
G01X2766088Y-515922D01*
G01X2767114Y-513827D01*
G01Y-510662D01*
G01X2761854Y-510662D02*
G01X2767114Y-510662D01*
G01X3017137Y-502194D02*
G01X3016110Y-500098D01*
G01X3013972Y-497959D01*
G01X3011876Y-496933D01*
G01X3007642D01*
G01X3005546Y-497959D01*
G01X3003408Y-500098D01*
G01X3002381Y-502194D01*
G01X3001312Y-505358D01*
G01Y-510662D01*
G01X3002381Y-513827D01*
G01X3003408Y-515922D01*
G01X3005546Y-518061D01*
G01X3007642Y-519087D01*
G01X3011876D01*
G01X3013972Y-518061D01*
G01X3016110Y-515922D01*
G01X3017137Y-513827D01*
G01Y-510662D01*
G01X3011876Y-510662D02*
G01X3017137Y-510662D01*
G01X3267111Y-502194D02*
G01X3266084Y-500098D01*
G01X3263946Y-497959D01*
G01X3261850Y-496933D01*
G01X3257616D01*
G01X3255520Y-497959D01*
G01X3253382Y-500098D01*
G01X3252355Y-502194D01*
G01X3251286Y-505358D01*
G01Y-510662D01*
G01X3252355Y-513827D01*
G01X3253382Y-515922D01*
G01X3255520Y-518061D01*
G01X3257616Y-519087D01*
G01X3261850D01*
G01X3263946Y-518061D01*
G01X3266084Y-515922D01*
G01X3267111Y-513827D01*
G01Y-510662D01*
G01X3261850Y-510662D02*
G01X3267111Y-510662D01*
G01X3517136Y-502194D02*
G01X3516109Y-500098D01*
G01X3513971Y-497959D01*
G01X3511875Y-496933D01*
G01X3507641D01*
G01X3505545Y-497959D01*
G01X3503407Y-500098D01*
G01X3502380Y-502194D01*
G01X3501311Y-505358D01*
G01Y-510662D01*
G01X3502380Y-513827D01*
G01X3503407Y-515922D01*
G01X3505545Y-518061D01*
G01X3507641Y-519087D01*
G01X3511875D01*
G01X3513971Y-518061D01*
G01X3516109Y-515922D01*
G01X3517136Y-513827D01*
G01Y-510662D01*
G01X3511875Y-510662D02*
G01X3517136Y-510662D01*
G01X3767110Y-502194D02*
G01X3766083Y-500098D01*
G01X3763945Y-497959D01*
G01X3761849Y-496933D01*
G01X3757615D01*
G01X3755519Y-497959D01*
G01X3753381Y-500098D01*
G01X3752354Y-502194D01*
G01X3751285Y-505358D01*
G01Y-510662D01*
G01X3752354Y-513827D01*
G01X3753381Y-515922D01*
G01X3755519Y-518061D01*
G01X3757615Y-519087D01*
G01X3761849D01*
G01X3763945Y-518061D01*
G01X3766083Y-515922D01*
G01X3767110Y-513827D01*
G01Y-510662D01*
G01X3761849Y-510662D02*
G01X3767110Y-510662D01*
G01X4017135Y-502194D02*
G01X4016108Y-500098D01*
G01X4013970Y-497959D01*
G01X4011874Y-496933D01*
G01X4007640D01*
G01X4005544Y-497959D01*
G01X4003406Y-500098D01*
G01X4002379Y-502194D01*
G01X4001310Y-505358D01*
G01Y-510662D01*
G01X4002379Y-513827D01*
G01X4003406Y-515922D01*
G01X4005544Y-518061D01*
G01X4007640Y-519087D01*
G01X4011874D01*
G01X4013970Y-518061D01*
G01X4016108Y-515922D01*
G01X4017135Y-513827D01*
G01Y-510662D01*
G01X4011874Y-510662D02*
G01X4017135Y-510662D01*
G01X4267106Y-502194D02*
G01X4266080Y-500098D01*
G01X4263941Y-497959D01*
G01X4261846Y-496933D01*
G01X4257611D01*
G01X4255516Y-497959D01*
G01X4253377Y-500098D01*
G01X4252351Y-502194D01*
G01X4251282Y-505358D01*
G01Y-510662D01*
G01X4252351Y-513827D01*
G01X4253377Y-515922D01*
G01X4255516Y-518061D01*
G01X4257611Y-519087D01*
G01X4261846D01*
G01X4263941Y-518061D01*
G01X4266080Y-515922D01*
G01X4267106Y-513827D01*
G01Y-510662D01*
G01X4261846Y-510662D02*
G01X4267106Y-510662D01*
G01X4517131Y-502194D02*
G01X4516105Y-500098D01*
G01X4513966Y-497959D01*
G01X4511871Y-496933D01*
G01X4507636D01*
G01X4505541Y-497959D01*
G01X4503402Y-500098D01*
G01X4502376Y-502194D01*
G01X4501307Y-505358D01*
G01Y-510662D01*
G01X4502376Y-513827D01*
G01X4503402Y-515922D01*
G01X4505541Y-518061D01*
G01X4507636Y-519087D01*
G01X4511871D01*
G01X4513966Y-518061D01*
G01X4516105Y-515922D01*
G01X4517131Y-513827D01*
G01Y-510662D01*
G01X4511871Y-510662D02*
G01X4517131Y-510662D01*
G01X4767110Y-502194D02*
G01X4766084Y-500098D01*
G01X4763945Y-497959D01*
G01X4761850Y-496933D01*
G01X4757616D01*
G01X4755520Y-497959D01*
G01X4753381Y-500098D01*
G01X4752355Y-502194D01*
G01X4751286Y-505358D01*
G01Y-510662D01*
G01X4752355Y-513827D01*
G01X4753381Y-515922D01*
G01X4755520Y-518061D01*
G01X4757616Y-519087D01*
G01X4761850D01*
G01X4763945Y-518061D01*
G01X4766084Y-515922D01*
G01X4767110Y-513827D01*
G01Y-510662D01*
G01X4761850Y-510662D02*
G01X4767110Y-510662D01*
G01X5017133Y-502194D02*
G01X5016106Y-500098D01*
G01X5013968Y-497959D01*
G01X5011872Y-496933D01*
G01X5007638D01*
G01X5005542Y-497959D01*
G01X5003404Y-500098D01*
G01X5002377Y-502194D01*
G01X5001308Y-505358D01*
G01Y-510662D01*
G01X5002377Y-513827D01*
G01X5003404Y-515922D01*
G01X5005542Y-518061D01*
G01X5007638Y-519087D01*
G01X5011872D01*
G01X5013968Y-518061D01*
G01X5016106Y-515922D01*
G01X5017133Y-513827D01*
G01Y-510662D01*
G01X5011872Y-510662D02*
G01X5017133Y-510662D01*
G01X5267107Y-502194D02*
G01X5266080Y-500098D01*
G01X5263942Y-497959D01*
G01X5261846Y-496933D01*
G01X5257612D01*
G01X5255516Y-497959D01*
G01X5253378Y-500098D01*
G01X5252351Y-502194D01*
G01X5251282Y-505358D01*
G01Y-510662D01*
G01X5252351Y-513827D01*
G01X5253378Y-515922D01*
G01X5255516Y-518061D01*
G01X5257612Y-519087D01*
G01X5261846D01*
G01X5263942Y-518061D01*
G01X5266080Y-515922D01*
G01X5267107Y-513827D01*
G01Y-510662D01*
G01X5261846Y-510662D02*
G01X5267107Y-510662D01*
G01X516014Y-1743413D02*
G01X514987Y-1741317D01*
G01X512849Y-1739179D01*
G01X510753Y-1738152D01*
G01X506519D01*
G01X504423Y-1739179D01*
G01X502285Y-1741317D01*
G01X501259Y-1743413D01*
G01X500189Y-1746578D01*
G01Y-1751881D01*
G01X501259Y-1755046D01*
G01X502285Y-1757142D01*
G01X504423Y-1759280D01*
G01X506519Y-1760307D01*
G01X510753D01*
G01X512849Y-1759280D01*
G01X514987Y-1757142D01*
G01X516014Y-1755046D01*
G01Y-1751881D01*
G01X510753Y-1751881D02*
G01X516014Y-1751881D01*
G01X515887Y-2993413D02*
G01X514860Y-2991317D01*
G01X512722Y-2989179D01*
G01X510626Y-2988152D01*
G01X506392D01*
G01X504296Y-2989179D01*
G01X502158Y-2991317D01*
G01X501132Y-2993413D01*
G01X500062Y-2996578D01*
G01Y-3001881D01*
G01X501132Y-3005046D01*
G01X502158Y-3007142D01*
G01X504296Y-3009280D01*
G01X506392Y-3010307D01*
G01X510626D01*
G01X512722Y-3009280D01*
G01X514860Y-3007142D01*
G01X515887Y-3005046D01*
G01Y-3001881D01*
G01X510626Y-3001881D02*
G01X515887Y-3001881D01*
G01X515785Y-2743413D02*
G01X514759Y-2741318D01*
G01X512620Y-2739179D01*
G01X510525Y-2738153D01*
G01X506291D01*
G01X504195Y-2739179D01*
G01X502056Y-2741318D01*
G01X501030Y-2743413D01*
G01X499961Y-2746578D01*
G01Y-2751882D01*
G01X501030Y-2755047D01*
G01X502056Y-2757142D01*
G01X504195Y-2759281D01*
G01X506291Y-2760307D01*
G01X510525D01*
G01X512620Y-2759281D01*
G01X514759Y-2757142D01*
G01X515785Y-2755047D01*
G01Y-2751882D01*
G01X510525Y-2751882D02*
G01X515785Y-2751882D01*
G01X515938Y-2493411D02*
G01X514911Y-2491316D01*
G01X512773Y-2489177D01*
G01X510677Y-2488151D01*
G01X506443D01*
G01X504347Y-2489177D01*
G01X502209Y-2491316D01*
G01X501182Y-2493411D01*
G01X500113Y-2496576D01*
G01Y-2501880D01*
G01X501182Y-2505045D01*
G01X502209Y-2507140D01*
G01X504347Y-2509279D01*
G01X506443Y-2510305D01*
G01X510677D01*
G01X512773Y-2509279D01*
G01X514911Y-2507140D01*
G01X515938Y-2505045D01*
G01Y-2501880D01*
G01X510677Y-2501880D02*
G01X515938Y-2501880D01*
G01X515963Y-2243412D02*
G01X514937Y-2241316D01*
G01X512798Y-2239178D01*
G01X510702Y-2238151D01*
G01X506468D01*
G01X504373Y-2239178D01*
G01X502234Y-2241316D01*
G01X501208Y-2243412D01*
G01X500138Y-2246577D01*
G01Y-2251880D01*
G01X501208Y-2255045D01*
G01X502234Y-2257141D01*
G01X504373Y-2259279D01*
G01X506468Y-2260306D01*
G01X510702D01*
G01X512798Y-2259279D01*
G01X514937Y-2257141D01*
G01X515963Y-2255045D01*
G01Y-2251880D01*
G01X510702Y-2251880D02*
G01X515963Y-2251880D01*
G01X515989Y-1993412D02*
G01X514962Y-1991317D01*
G01X512824Y-1989178D01*
G01X510728Y-1988152D01*
G01X506494D01*
G01X504398Y-1989178D01*
G01X502260Y-1991317D01*
G01X501233Y-1993412D01*
G01X500164Y-1996577D01*
G01Y-2001881D01*
G01X501233Y-2005046D01*
G01X502260Y-2007141D01*
G01X504398Y-2009280D01*
G01X506494Y-2010306D01*
G01X510728D01*
G01X512824Y-2009280D01*
G01X514962Y-2007141D01*
G01X515989Y-2005046D01*
G01Y-2001881D01*
G01X510728Y-2001881D02*
G01X515989Y-2001881D01*
G01X515887Y-3243412D02*
G01X514860Y-3241317D01*
G01X512722Y-3239178D01*
G01X510626Y-3238152D01*
G01X506392D01*
G01X504296Y-3239178D01*
G01X502158Y-3241317D01*
G01X501132Y-3243412D01*
G01X500062Y-3246577D01*
G01Y-3251881D01*
G01X501132Y-3255046D01*
G01X502158Y-3257141D01*
G01X504296Y-3259280D01*
G01X506392Y-3260306D01*
G01X510626D01*
G01X512722Y-3259280D01*
G01X514860Y-3257141D01*
G01X515887Y-3255046D01*
G01Y-3251881D01*
G01X510626Y-3251881D02*
G01X515887Y-3251881D01*
G01X515862Y-3493412D02*
G01X514835Y-3491316D01*
G01X512697Y-3489178D01*
G01X510601Y-3488151D01*
G01X506367D01*
G01X504271Y-3489178D01*
G01X502133Y-3491316D01*
G01X501106Y-3493412D01*
G01X500037Y-3496577D01*
G01Y-3501880D01*
G01X501106Y-3505045D01*
G01X502133Y-3507141D01*
G01X504271Y-3509279D01*
G01X506367Y-3510306D01*
G01X510601D01*
G01X512697Y-3509279D01*
G01X514835Y-3507141D01*
G01X515862Y-3505045D01*
G01Y-3501880D01*
G01X510601Y-3501880D02*
G01X515862Y-3501880D01*
G01X515836Y-3743411D02*
G01X514810Y-3741316D01*
G01X512671Y-3739177D01*
G01X510575Y-3738151D01*
G01X506341D01*
G01X504246Y-3739177D01*
G01X502107Y-3741316D01*
G01X501081Y-3743411D01*
G01X500011Y-3746576D01*
G01Y-3751880D01*
G01X501081Y-3755045D01*
G01X502107Y-3757140D01*
G01X504246Y-3759279D01*
G01X506341Y-3760305D01*
G01X510575D01*
G01X512671Y-3759279D01*
G01X514810Y-3757140D01*
G01X515836Y-3755045D01*
G01Y-3751880D01*
G01X510575Y-3751880D02*
G01X515836Y-3751880D01*
G01X515811Y-3993363D02*
G01X514784Y-3991267D01*
G01X512646Y-3989128D01*
G01X510550Y-3988102D01*
G01X506316D01*
G01X504220Y-3989128D01*
G01X502082Y-3991267D01*
G01X501055Y-3993363D01*
G01X499986Y-3996528D01*
G01Y-4001831D01*
G01X501055Y-4004996D01*
G01X502082Y-4007092D01*
G01X504220Y-4009230D01*
G01X506316Y-4010256D01*
G01X510550D01*
G01X512646Y-4009230D01*
G01X514784Y-4007092D01*
G01X515811Y-4004996D01*
G01Y-4001831D01*
G01X510550Y-4001831D02*
G01X515811Y-4001831D01*
G01X515785Y-4243400D02*
G01X514759Y-4241304D01*
G01X512620Y-4239166D01*
G01X510525Y-4238140D01*
G01X506291D01*
G01X504195Y-4239166D01*
G01X502056Y-4241304D01*
G01X501030Y-4243400D01*
G01X499961Y-4246565D01*
G01Y-4251868D01*
G01X501030Y-4255033D01*
G01X502056Y-4257129D01*
G01X504195Y-4259268D01*
G01X506291Y-4260294D01*
G01X510525D01*
G01X512620Y-4259268D01*
G01X514759Y-4257129D01*
G01X515785Y-4255033D01*
G01Y-4251868D01*
G01X510525Y-4251868D02*
G01X515785Y-4251868D01*
G01X515785Y-4493400D02*
G01X514759Y-4491304D01*
G01X512620Y-4489166D01*
G01X510525Y-4488139D01*
G01X506291D01*
G01X504195Y-4489166D01*
G01X502056Y-4491304D01*
G01X501030Y-4493400D01*
G01X499961Y-4496565D01*
G01Y-4501868D01*
G01X501030Y-4505033D01*
G01X502056Y-4507129D01*
G01X504195Y-4509267D01*
G01X506291Y-4510294D01*
G01X510525D01*
G01X512620Y-4509267D01*
G01X514759Y-4507129D01*
G01X515785Y-4505033D01*
G01Y-4501868D01*
G01X510525Y-4501868D02*
G01X515785Y-4501868D01*
G01X7339442Y-5482757D02*
G01X7338416Y-5480661D01*
G01X7336278Y-5478523D01*
G01X7334182Y-5477496D01*
G01X7329948D01*
G01X7327852Y-5478523D01*
G01X7325714Y-5480661D01*
G01X7324687Y-5482757D01*
G01X7323618Y-5485922D01*
G01Y-5491225D01*
G01X7324687Y-5494390D01*
G01X7325714Y-5496486D01*
G01X7327852Y-5498624D01*
G01X7329948Y-5499651D01*
G01X7334182D01*
G01X7336278Y-5498624D01*
G01X7338416Y-5496486D01*
G01X7339442Y-5494390D01*
G01Y-5491225D01*
G01X7334182Y-5491225D02*
G01X7339442Y-5491225D01*
G01X7593442Y-5482757D02*
G01X7592416Y-5480661D01*
G01X7590278Y-5478523D01*
G01X7588182Y-5477496D01*
G01X7583948D01*
G01X7581852Y-5478523D01*
G01X7579714Y-5480661D01*
G01X7578687Y-5482757D01*
G01X7577618Y-5485922D01*
G01Y-5491225D01*
G01X7578687Y-5494390D01*
G01X7579714Y-5496486D01*
G01X7581852Y-5498624D01*
G01X7583948Y-5499651D01*
G01X7588182D01*
G01X7590278Y-5498624D01*
G01X7592416Y-5496486D01*
G01X7593442Y-5494390D01*
G01Y-5491225D01*
G01X7588182Y-5491225D02*
G01X7593442Y-5491225D01*
G01X7335812Y-3626383D02*
G01X7334786Y-3624288D01*
G01X7332647Y-3622149D01*
G01X7330552Y-3621123D01*
G01X7326318D01*
G01X7324222Y-3622149D01*
G01X7322083Y-3624288D01*
G01X7321057Y-3626383D01*
G01X7319988Y-3629548D01*
G01Y-3634852D01*
G01X7321057Y-3638017D01*
G01X7322083Y-3640112D01*
G01X7324222Y-3642251D01*
G01X7326318Y-3643277D01*
G01X7330552D01*
G01X7332647Y-3642251D01*
G01X7334786Y-3640112D01*
G01X7335812Y-3638017D01*
G01Y-3634852D01*
G01X7330552Y-3634852D02*
G01X7335812Y-3634852D01*
G01X7589812Y-3626383D02*
G01X7588786Y-3624288D01*
G01X7586647Y-3622149D01*
G01X7584552Y-3621123D01*
G01X7580318D01*
G01X7578222Y-3622149D01*
G01X7576083Y-3624288D01*
G01X7575057Y-3626383D01*
G01X7573988Y-3629548D01*
G01Y-3634852D01*
G01X7575057Y-3638017D01*
G01X7576083Y-3640112D01*
G01X7578222Y-3642251D01*
G01X7580318Y-3643277D01*
G01X7584552D01*
G01X7586647Y-3642251D01*
G01X7588786Y-3640112D01*
G01X7589812Y-3638017D01*
G01Y-3634852D01*
G01X7584552Y-3634852D02*
G01X7589812Y-3634852D01*
G01X7336777Y-1767441D02*
G01X7335751Y-1765346D01*
G01X7333612Y-1763207D01*
G01X7331516Y-1762181D01*
G01X7327282D01*
G01X7325187Y-1763207D01*
G01X7323048Y-1765346D01*
G01X7322022Y-1767441D01*
G01X7320952Y-1770606D01*
G01Y-1775910D01*
G01X7322022Y-1779074D01*
G01X7323048Y-1781170D01*
G01X7325187Y-1783309D01*
G01X7327282Y-1784335D01*
G01X7331516D01*
G01X7333612Y-1783309D01*
G01X7335751Y-1781170D01*
G01X7336777Y-1779074D01*
G01Y-1775910D01*
G01X7331516Y-1775910D02*
G01X7336777Y-1775910D01*
G01X7590777Y-1767441D02*
G01X7589751Y-1765346D01*
G01X7587612Y-1763207D01*
G01X7585516Y-1762181D01*
G01X7581282D01*
G01X7579187Y-1763207D01*
G01X7577048Y-1765346D01*
G01X7576022Y-1767441D01*
G01X7574952Y-1770606D01*
G01Y-1775910D01*
G01X7576022Y-1779074D01*
G01X7577048Y-1781170D01*
G01X7579187Y-1783309D01*
G01X7581282Y-1784335D01*
G01X7585516D01*
G01X7587612Y-1783309D01*
G01X7589751Y-1781170D01*
G01X7590777Y-1779074D01*
G01Y-1775910D01*
G01X7585516Y-1775910D02*
G01X7590777Y-1775910D01*
G01X7339442Y-4962057D02*
G01X7338416Y-4959961D01*
G01X7336278Y-4957823D01*
G01X7334182Y-4956796D01*
G01X7329948D01*
G01X7327852Y-4957823D01*
G01X7325714Y-4959961D01*
G01X7324687Y-4962057D01*
G01X7323618Y-4965222D01*
G01Y-4970525D01*
G01X7324687Y-4973690D01*
G01X7325714Y-4975786D01*
G01X7327852Y-4977924D01*
G01X7329948Y-4978951D01*
G01X7334182D01*
G01X7336278Y-4977924D01*
G01X7338416Y-4975786D01*
G01X7339442Y-4973690D01*
G01Y-4970525D01*
G01X7334182Y-4970525D02*
G01X7339442Y-4970525D01*
G01X7593442Y-4962057D02*
G01X7592416Y-4959961D01*
G01X7590278Y-4957823D01*
G01X7588182Y-4956796D01*
G01X7583948D01*
G01X7581852Y-4957823D01*
G01X7579714Y-4959961D01*
G01X7578687Y-4962057D01*
G01X7577618Y-4965222D01*
G01Y-4970525D01*
G01X7578687Y-4973690D01*
G01X7579714Y-4975786D01*
G01X7581852Y-4977924D01*
G01X7583948Y-4978951D01*
G01X7588182D01*
G01X7590278Y-4977924D01*
G01X7592416Y-4975786D01*
G01X7593442Y-4973690D01*
G01Y-4970525D01*
G01X7588182Y-4970525D02*
G01X7593442Y-4970525D01*
G01X7335812Y-3105683D02*
G01X7334786Y-3103588D01*
G01X7332647Y-3101449D01*
G01X7330552Y-3100423D01*
G01X7326318D01*
G01X7324222Y-3101449D01*
G01X7322083Y-3103588D01*
G01X7321057Y-3105683D01*
G01X7319988Y-3108848D01*
G01Y-3114152D01*
G01X7321057Y-3117317D01*
G01X7322083Y-3119412D01*
G01X7324222Y-3121551D01*
G01X7326318Y-3122577D01*
G01X7330552D01*
G01X7332647Y-3121551D01*
G01X7334786Y-3119412D01*
G01X7335812Y-3117317D01*
G01Y-3114152D01*
G01X7330552Y-3114152D02*
G01X7335812Y-3114152D01*
G01X7589812Y-3105683D02*
G01X7588786Y-3103588D01*
G01X7586647Y-3101449D01*
G01X7584552Y-3100423D01*
G01X7580318D01*
G01X7578222Y-3101449D01*
G01X7576083Y-3103588D01*
G01X7575057Y-3105683D01*
G01X7573988Y-3108848D01*
G01Y-3114152D01*
G01X7575057Y-3117317D01*
G01X7576083Y-3119412D01*
G01X7578222Y-3121551D01*
G01X7580318Y-3122577D01*
G01X7584552D01*
G01X7586647Y-3121551D01*
G01X7588786Y-3119412D01*
G01X7589812Y-3117317D01*
G01Y-3114152D01*
G01X7584552Y-3114152D02*
G01X7589812Y-3114152D01*
G01X7336777Y-1246741D02*
G01X7335751Y-1244646D01*
G01X7333612Y-1242507D01*
G01X7331516Y-1241481D01*
G01X7327282D01*
G01X7325187Y-1242507D01*
G01X7323048Y-1244646D01*
G01X7322022Y-1246741D01*
G01X7320952Y-1249906D01*
G01Y-1255210D01*
G01X7322022Y-1258374D01*
G01X7323048Y-1260470D01*
G01X7325187Y-1262609D01*
G01X7327282Y-1263635D01*
G01X7331516D01*
G01X7333612Y-1262609D01*
G01X7335751Y-1260470D01*
G01X7336777Y-1258374D01*
G01Y-1255210D01*
G01X7331516Y-1255210D02*
G01X7336777Y-1255210D01*
G01X7590777Y-1246741D02*
G01X7589751Y-1244646D01*
G01X7587612Y-1242507D01*
G01X7585516Y-1241481D01*
G01X7581282D01*
G01X7579187Y-1242507D01*
G01X7577048Y-1244646D01*
G01X7576022Y-1246741D01*
G01X7574952Y-1249906D01*
G01Y-1255210D01*
G01X7576022Y-1258374D01*
G01X7577048Y-1260470D01*
G01X7579187Y-1262609D01*
G01X7581282Y-1263635D01*
G01X7585516D01*
G01X7587612Y-1262609D01*
G01X7589751Y-1260470D01*
G01X7590777Y-1258374D01*
G01Y-1255210D01*
G01X7585516Y-1255210D02*
G01X7590777Y-1255210D01*
G01X9724376Y-738241D02*
G01X9723350Y-736146D01*
G01X9721212Y-734007D01*
G01X9719116Y-732981D01*
G01X9714882D01*
G01X9712786Y-734007D01*
G01X9710648Y-736146D01*
G01X9709621Y-738241D01*
G01X9708552Y-741406D01*
G01Y-746710D01*
G01X9709621Y-749875D01*
G01X9710648Y-751970D01*
G01X9712786Y-754109D01*
G01X9714882Y-755135D01*
G01X9719116D01*
G01X9721212Y-754109D01*
G01X9723350Y-751970D01*
G01X9724376Y-749875D01*
G01Y-746710D01*
G01X9719116Y-746710D02*
G01X9724376Y-746710D01*
G01X9470377Y-738241D02*
G01X9469351Y-736146D01*
G01X9467212Y-734007D01*
G01X9465116Y-732981D01*
G01X9460882D01*
G01X9458787Y-734007D01*
G01X9456648Y-736146D01*
G01X9455622Y-738241D01*
G01X9454552Y-741406D01*
G01Y-746710D01*
G01X9455622Y-749875D01*
G01X9456648Y-751970D01*
G01X9458787Y-754109D01*
G01X9460882Y-755135D01*
G01X9465116D01*
G01X9467212Y-754109D01*
G01X9469351Y-751970D01*
G01X9470377Y-749875D01*
G01Y-746710D01*
G01X9465116Y-746710D02*
G01X9470377Y-746710D01*
G01X9216378Y-738241D02*
G01X9215351Y-736146D01*
G01X9213213Y-734007D01*
G01X9211117Y-732981D01*
G01X9206883D01*
G01X9204787Y-734007D01*
G01X9202649Y-736146D01*
G01X9201622Y-738241D01*
G01X9200553Y-741406D01*
G01Y-746710D01*
G01X9201622Y-749875D01*
G01X9202649Y-751970D01*
G01X9204787Y-754109D01*
G01X9206883Y-755135D01*
G01X9211117D01*
G01X9213213Y-754109D01*
G01X9215351Y-751970D01*
G01X9216378Y-749875D01*
G01Y-746710D01*
G01X9211117Y-746710D02*
G01X9216378Y-746710D01*
G01X12682512Y-2000783D02*
G01X12681486Y-1998688D01*
G01X12679347Y-1996549D01*
G01X12677252Y-1995523D01*
G01X12673018D01*
G01X12670922Y-1996549D01*
G01X12668783Y-1998688D01*
G01X12667757Y-2000783D01*
G01X12666688Y-2003948D01*
G01Y-2009252D01*
G01X12667757Y-2012417D01*
G01X12668783Y-2014512D01*
G01X12670922Y-2016651D01*
G01X12673018Y-2017677D01*
G01X12677252D01*
G01X12679347Y-2016651D01*
G01X12681486Y-2014512D01*
G01X12682512Y-2012417D01*
G01Y-2009252D01*
G01X12677252Y-2009252D02*
G01X12682512Y-2009252D01*
G01X12428512Y-2000783D02*
G01X12427486Y-1998688D01*
G01X12425347Y-1996549D01*
G01X12423252Y-1995523D01*
G01X12419018D01*
G01X12416922Y-1996549D01*
G01X12414783Y-1998688D01*
G01X12413757Y-2000783D01*
G01X12412688Y-2003948D01*
G01Y-2009252D01*
G01X12413757Y-2012417D01*
G01X12414783Y-2014512D01*
G01X12416922Y-2016651D01*
G01X12419018Y-2017677D01*
G01X12423252D01*
G01X12425347Y-2016651D01*
G01X12427486Y-2014512D01*
G01X12428512Y-2012417D01*
G01Y-2009252D01*
G01X12423252Y-2009252D02*
G01X12428512Y-2009252D01*
G01X12682512Y-2521483D02*
G01X12681486Y-2519388D01*
G01X12679347Y-2517249D01*
G01X12677252Y-2516223D01*
G01X12673018D01*
G01X12670922Y-2517249D01*
G01X12668783Y-2519388D01*
G01X12667757Y-2521483D01*
G01X12666688Y-2524648D01*
G01Y-2529952D01*
G01X12667757Y-2533117D01*
G01X12668783Y-2535212D01*
G01X12670922Y-2537351D01*
G01X12673018Y-2538377D01*
G01X12677252D01*
G01X12679347Y-2537351D01*
G01X12681486Y-2535212D01*
G01X12682512Y-2533117D01*
G01Y-2529952D01*
G01X12677252Y-2529952D02*
G01X12682512Y-2529952D01*
G01X12428512Y-2521483D02*
G01X12427486Y-2519388D01*
G01X12425347Y-2517249D01*
G01X12423252Y-2516223D01*
G01X12419018D01*
G01X12416922Y-2517249D01*
G01X12414783Y-2519388D01*
G01X12413757Y-2521483D01*
G01X12412688Y-2524648D01*
G01Y-2529952D01*
G01X12413757Y-2533117D01*
G01X12414783Y-2535212D01*
G01X12416922Y-2537351D01*
G01X12419018Y-2538377D01*
G01X12423252D01*
G01X12425347Y-2537351D01*
G01X12427486Y-2535212D01*
G01X12428512Y-2533117D01*
G01Y-2529952D01*
G01X12423252Y-2529952D02*
G01X12428512Y-2529952D01*
G01X9203452Y-2628742D02*
G01X9202426Y-2626647D01*
G01X9200288Y-2624508D01*
G01X9198192Y-2623482D01*
G01X9193958D01*
G01X9191862Y-2624508D01*
G01X9189724Y-2626647D01*
G01X9188697Y-2628742D01*
G01X9187628Y-2631907D01*
G01Y-2637211D01*
G01X9188697Y-2640375D01*
G01X9189724Y-2642471D01*
G01X9191862Y-2644610D01*
G01X9193958Y-2645636D01*
G01X9198192D01*
G01X9200288Y-2644610D01*
G01X9202426Y-2642471D01*
G01X9203452Y-2640375D01*
G01Y-2637211D01*
G01X9198192Y-2637211D02*
G01X9203452Y-2637211D01*
G01X8949453Y-2628742D02*
G01X8948427Y-2626647D01*
G01X8946288Y-2624508D01*
G01X8944192Y-2623482D01*
G01X8939958D01*
G01X8937863Y-2624508D01*
G01X8935724Y-2626647D01*
G01X8934698Y-2628742D01*
G01X8933628Y-2631907D01*
G01Y-2637211D01*
G01X8934698Y-2640375D01*
G01X8935724Y-2642471D01*
G01X8937863Y-2644610D01*
G01X8939958Y-2645636D01*
G01X8944192D01*
G01X8946288Y-2644610D01*
G01X8948427Y-2642471D01*
G01X8949453Y-2640375D01*
G01Y-2637211D01*
G01X8944192Y-2637211D02*
G01X8949453Y-2637211D01*
G01X8695453Y-2628742D02*
G01X8694427Y-2626647D01*
G01X8692289Y-2624508D01*
G01X8690193Y-2623482D01*
G01X8685959D01*
G01X8683863Y-2624508D01*
G01X8681725Y-2626647D01*
G01X8680698Y-2628742D01*
G01X8679629Y-2631907D01*
G01Y-2637211D01*
G01X8680698Y-2640375D01*
G01X8681725Y-2642471D01*
G01X8683863Y-2644610D01*
G01X8685959Y-2645636D01*
G01X8690193D01*
G01X8692289Y-2644610D01*
G01X8694427Y-2642471D01*
G01X8695453Y-2640375D01*
G01Y-2637211D01*
G01X8690193Y-2637211D02*
G01X8695453Y-2637211D01*
G01X14915101Y-8853523D02*
G01X14915101Y-8875677D01*
G01X14929899Y-8853523D02*
G01X14929899Y-8875677D01*
G01X14915101Y-8864087D02*
G01X14929899Y-8864087D01*
G01X14915101Y-8523323D02*
G01X14915101Y-8545477D01*
G01X14929899Y-8523323D02*
G01X14929899Y-8545477D01*
G01X14915101Y-8533887D02*
G01X14929899Y-8533887D01*
G01X14915101Y-8218523D02*
G01X14915101Y-8240677D01*
G01X14929899Y-8218523D02*
G01X14929899Y-8240677D01*
G01X14915101Y-8229087D02*
G01X14929899Y-8229087D01*
G01X14915101Y-7913723D02*
G01X14915101Y-7935877D01*
G01X14929899Y-7913723D02*
G01X14929899Y-7935877D01*
G01X14915101Y-7924287D02*
G01X14929899Y-7924287D01*
G01X14915101Y-7608923D02*
G01X14915101Y-7631077D01*
G01X14929899Y-7608923D02*
G01X14929899Y-7631077D01*
G01X14915101Y-7619487D02*
G01X14929899Y-7619487D01*
G01X14915101Y-7316823D02*
G01X14915101Y-7338977D01*
G01X14929899Y-7316823D02*
G01X14929899Y-7338977D01*
G01X14915101Y-7327387D02*
G01X14929899Y-7327387D01*
G01X14915101Y-6954873D02*
G01X14915101Y-6977027D01*
G01X14929899Y-6954873D02*
G01X14929899Y-6977027D01*
G01X14915101Y-6965437D02*
G01X14929899Y-6965437D01*
G01X3370801Y-9056723D02*
G01X3370801Y-9078877D01*
G01X3385599Y-9056723D02*
G01X3385599Y-9078877D01*
G01X3370801Y-9067287D02*
G01X3385599Y-9067287D01*
G01X4082001Y-8929723D02*
G01X4082001Y-8951877D01*
G01X4096799Y-8929723D02*
G01X4096799Y-8951877D01*
G01X4082001Y-8940287D02*
G01X4096799Y-8940287D01*
G01X2685001Y-6313523D02*
G01X2685001Y-6335677D01*
G01X2699799Y-6313523D02*
G01X2699799Y-6335677D01*
G01X2685001Y-6324087D02*
G01X2699799Y-6324087D01*
G01X2812001Y-6313523D02*
G01X2812001Y-6335677D01*
G01X2826799Y-6313523D02*
G01X2826799Y-6335677D01*
G01X2812001Y-6324087D02*
G01X2826799Y-6324087D01*
G01X2659601Y-4459323D02*
G01X2659601Y-4481477D01*
G01X2674399Y-4459323D02*
G01X2674399Y-4481477D01*
G01X2659601Y-4469887D02*
G01X2674399Y-4469887D01*
G01X2735801Y-4586323D02*
G01X2735801Y-4608477D01*
G01X2750599Y-4586323D02*
G01X2750599Y-4608477D01*
G01X2735801Y-4596887D02*
G01X2750599Y-4596887D01*
G01X1059401Y-6681823D02*
G01X1059401Y-6703977D01*
G01X1074199Y-6681823D02*
G01X1074199Y-6703977D01*
G01X1059401Y-6692387D02*
G01X1074199Y-6692387D01*
G01X1440401Y-6681823D02*
G01X1440401Y-6703977D01*
G01X1455199Y-6681823D02*
G01X1455199Y-6703977D01*
G01X1440401Y-6692387D02*
G01X1455199Y-6692387D01*
G01X3739101Y-6059523D02*
G01X3739101Y-6081677D01*
G01X3753899Y-6059523D02*
G01X3753899Y-6081677D01*
G01X3739101Y-6070087D02*
G01X3753899Y-6070087D01*
G01X3739101Y-5729323D02*
G01X3739101Y-5751477D01*
G01X3753899Y-5729323D02*
G01X3753899Y-5751477D01*
G01X3739101Y-5739887D02*
G01X3753899Y-5739887D01*
G01X2113501Y-5513423D02*
G01X2113501Y-5535577D01*
G01X2128299Y-5513423D02*
G01X2128299Y-5535577D01*
G01X2113501Y-5523987D02*
G01X2128299Y-5523987D01*
G01X1427701Y-4535523D02*
G01X1427701Y-4557677D01*
G01X1442499Y-4535523D02*
G01X1442499Y-4557677D01*
G01X1427701Y-4546087D02*
G01X1442499Y-4546087D01*
G01X1580101Y-4891123D02*
G01X1580101Y-4913277D01*
G01X1594899Y-4891123D02*
G01X1594899Y-4913277D01*
G01X1580101Y-4901687D02*
G01X1594899Y-4901687D01*
G01X3091401Y-8701123D02*
G01X3091401Y-8723277D01*
G01X3106199Y-8701123D02*
G01X3106199Y-8723277D01*
G01X3091401Y-8711687D02*
G01X3106199Y-8711687D01*
G01X6495001Y-16041723D02*
G01X6495001Y-16063877D01*
G01X6509799Y-16041723D02*
G01X6509799Y-16063877D01*
G01X6495001Y-16052287D02*
G01X6509799Y-16052287D01*
G01X6495001Y-15762323D02*
G01X6495001Y-15784477D01*
G01X6509799Y-15762323D02*
G01X6509799Y-15784477D01*
G01X6495001Y-15772887D02*
G01X6509799Y-15772887D01*
G01X8704801Y-15978223D02*
G01X8704801Y-16000377D01*
G01X8719599Y-15978223D02*
G01X8719599Y-16000377D01*
G01X8704801Y-15988787D02*
G01X8719599Y-15988787D01*
G01X5504401Y-8180423D02*
G01X5504401Y-8202577D01*
G01X5519199Y-8180423D02*
G01X5519199Y-8202577D01*
G01X5504401Y-8190987D02*
G01X5519199Y-8190987D01*
G01X5936201Y-3379823D02*
G01X5936201Y-3401977D01*
G01X5950999Y-3379823D02*
G01X5950999Y-3401977D01*
G01X5936201Y-3390387D02*
G01X5950999Y-3390387D01*
G01X6952201Y-5488023D02*
G01X6952201Y-5510177D01*
G01X6966999Y-5488023D02*
G01X6966999Y-5510177D01*
G01X6952201Y-5498587D02*
G01X6966999Y-5498587D01*
G01X4640801Y-6656423D02*
G01X4640801Y-6678577D01*
G01X4655599Y-6656423D02*
G01X4655599Y-6678577D01*
G01X4640801Y-6666987D02*
G01X4655599Y-6666987D01*
G01X1046701Y-9831423D02*
G01X1046701Y-9853577D01*
G01X1061499Y-9831423D02*
G01X1061499Y-9853577D01*
G01X1046701Y-9841987D02*
G01X1061499Y-9841987D01*
G01X538701Y-9831423D02*
G01X538701Y-9853577D01*
G01X553499Y-9831423D02*
G01X553499Y-9853577D01*
G01X538701Y-9841987D02*
G01X553499Y-9841987D01*
G01X1948401Y-6681823D02*
G01X1948401Y-6703977D01*
G01X1963199Y-6681823D02*
G01X1963199Y-6703977D01*
G01X1948401Y-6692387D02*
G01X1963199Y-6692387D01*
G01X3447001Y-6631023D02*
G01X3447001Y-6653177D01*
G01X3461799Y-6631023D02*
G01X3461799Y-6653177D01*
G01X3447001Y-6641587D02*
G01X3461799Y-6641587D01*
G01X6622001Y-17019623D02*
G01X6622001Y-17041777D01*
G01X6636799Y-17019623D02*
G01X6636799Y-17041777D01*
G01X6622001Y-17030187D02*
G01X6636799Y-17030187D01*
G01X6622001Y-17527623D02*
G01X6622001Y-17549777D01*
G01X6636799Y-17527623D02*
G01X6636799Y-17549777D01*
G01X6622001Y-17538187D02*
G01X6636799Y-17538187D01*
G01X6622001Y-17921323D02*
G01X6622001Y-17943477D01*
G01X6636799Y-17921323D02*
G01X6636799Y-17943477D01*
G01X6622001Y-17931887D02*
G01X6636799Y-17931887D01*
G01X6571201Y-18924623D02*
G01X6571201Y-18946777D01*
G01X6585999Y-18924623D02*
G01X6585999Y-18946777D01*
G01X6571201Y-18935187D02*
G01X6585999Y-18935187D01*
G01X6583901Y-19432623D02*
G01X6583901Y-19454777D01*
G01X6598699Y-19432623D02*
G01X6598699Y-19454777D01*
G01X6583901Y-19443187D02*
G01X6598699Y-19443187D01*
G01X6583901Y-19940623D02*
G01X6583901Y-19962777D01*
G01X6598699Y-19940623D02*
G01X6598699Y-19962777D01*
G01X6583901Y-19951187D02*
G01X6598699Y-19951187D01*
G01X6190201Y-20461323D02*
G01X6190201Y-20483477D01*
G01X6204999Y-20461323D02*
G01X6204999Y-20483477D01*
G01X6190201Y-20471887D02*
G01X6204999Y-20471887D01*
G01X8019001Y-20893123D02*
G01X8019001Y-20915277D01*
G01X8033799Y-20893123D02*
G01X8033799Y-20915277D01*
G01X8019001Y-20903687D02*
G01X8033799Y-20903687D01*
G01X6797951Y-20294373D02*
G01X6797951Y-20316527D01*
G01X6812749Y-20294373D02*
G01X6812749Y-20316527D01*
G01X6797951Y-20304937D02*
G01X6812749Y-20304937D01*
G01X8184101Y-14847923D02*
G01X8184101Y-14870077D01*
G01X8198899Y-14847923D02*
G01X8198899Y-14870077D01*
G01X8184101Y-14858487D02*
G01X8198899Y-14858487D01*
G01X8400001Y-14073223D02*
G01X8400001Y-14095377D01*
G01X8414799Y-14073223D02*
G01X8414799Y-14095377D01*
G01X8400001Y-14083787D02*
G01X8414799Y-14083787D01*
G01X8400001Y-13565223D02*
G01X8400001Y-13587377D01*
G01X8414799Y-13565223D02*
G01X8414799Y-13587377D01*
G01X8400001Y-13575787D02*
G01X8414799Y-13575787D01*
G01X8400001Y-13057223D02*
G01X8400001Y-13079377D01*
G01X8414799Y-13057223D02*
G01X8414799Y-13079377D01*
G01X8400001Y-13067787D02*
G01X8414799Y-13067787D01*
G01X8400001Y-12168223D02*
G01X8400001Y-12190377D01*
G01X8414799Y-12168223D02*
G01X8414799Y-12190377D01*
G01X8400001Y-12178787D02*
G01X8414799Y-12178787D01*
G01X8400001Y-11152223D02*
G01X8400001Y-11174377D01*
G01X8414799Y-11152223D02*
G01X8414799Y-11174377D01*
G01X8400001Y-11162787D02*
G01X8414799Y-11162787D01*
G01X8171401Y-11356718D02*
G01X8171401Y-11378873D01*
G01X8186199Y-11356718D02*
G01X8186199Y-11378873D01*
G01X8171401Y-11367282D02*
G01X8186199Y-11367282D01*
G01X11587701Y-3735423D02*
G01X11587701Y-3757577D01*
G01X11602499Y-3735423D02*
G01X11602499Y-3757577D01*
G01X11587701Y-3745987D02*
G01X11602499Y-3745987D01*
G01X11587701Y-3913223D02*
G01X11587701Y-3935377D01*
G01X11602499Y-3913223D02*
G01X11602499Y-3935377D01*
G01X11587701Y-3923787D02*
G01X11602499Y-3923787D01*
G01X11587701Y-4078323D02*
G01X11587701Y-4100477D01*
G01X11602499Y-4078323D02*
G01X11602499Y-4100477D01*
G01X11587701Y-4088887D02*
G01X11602499Y-4088887D01*
G01X11587701Y-4243423D02*
G01X11587701Y-4265577D01*
G01X11602499Y-4243423D02*
G01X11602499Y-4265577D01*
G01X11587701Y-4253987D02*
G01X11602499Y-4253987D01*
G01X11587701Y-4421223D02*
G01X11587701Y-4443377D01*
G01X11602499Y-4421223D02*
G01X11602499Y-4443377D01*
G01X11587701Y-4431787D02*
G01X11602499Y-4431787D01*
G01X8704801Y-8764623D02*
G01X8704801Y-8786777D01*
G01X8719599Y-8764623D02*
G01X8719599Y-8786777D01*
G01X8704801Y-8775187D02*
G01X8719599Y-8775187D01*
G01X2202401Y-9615523D02*
G01X2202401Y-9637677D01*
G01X2217199Y-9615523D02*
G01X2217199Y-9637677D01*
G01X2202401Y-9626087D02*
G01X2217199Y-9626087D01*
G01X7892001Y-7431123D02*
G01X7892001Y-7453277D01*
G01X7906799Y-7431123D02*
G01X7906799Y-7453277D01*
G01X7892001Y-7441687D02*
G01X7906799Y-7441687D01*
G01X4818601Y-2109823D02*
G01X4818601Y-2131977D01*
G01X4833399Y-2109823D02*
G01X4833399Y-2131977D01*
G01X4818601Y-2120387D02*
G01X4833399Y-2120387D01*
G01X4818601Y-2806636D02*
G01X4818601Y-2828791D01*
G01X4833399Y-2806636D02*
G01X4833399Y-2828791D01*
G01X4818601Y-2817200D02*
G01X4833399Y-2817200D01*
G01X4818601Y-3456023D02*
G01X4818601Y-3478177D01*
G01X4833399Y-3456023D02*
G01X4833399Y-3478177D01*
G01X4818601Y-3466587D02*
G01X4833399Y-3466587D01*
G01X4818601Y-4129123D02*
G01X4818601Y-4151277D01*
G01X4833399Y-4129123D02*
G01X4833399Y-4151277D01*
G01X4818601Y-4139687D02*
G01X4833399Y-4139687D01*
G01X4818601Y-4802223D02*
G01X4818601Y-4824377D01*
G01X4833399Y-4802223D02*
G01X4833399Y-4824377D01*
G01X4818601Y-4812787D02*
G01X4833399Y-4812787D01*
G01X5847301Y-1754223D02*
G01X5847301Y-1776377D01*
G01X5862099Y-1754223D02*
G01X5862099Y-1776377D01*
G01X5847301Y-1764787D02*
G01X5862099Y-1764787D01*
G01X5847301Y-2427323D02*
G01X5847301Y-2449477D01*
G01X5862099Y-2427323D02*
G01X5862099Y-2449477D01*
G01X5847301Y-2437887D02*
G01X5862099Y-2437887D01*
G01X5847301Y-3100423D02*
G01X5847301Y-3122577D01*
G01X5862099Y-3100423D02*
G01X5862099Y-3122577D01*
G01X5847301Y-3110987D02*
G01X5862099Y-3110987D01*
G01X5847301Y-3773523D02*
G01X5847301Y-3795677D01*
G01X5862099Y-3773523D02*
G01X5862099Y-3795677D01*
G01X5847301Y-3784087D02*
G01X5862099Y-3784087D01*
G01X5847301Y-4446623D02*
G01X5847301Y-4468777D01*
G01X5862099Y-4446623D02*
G01X5862099Y-4468777D01*
G01X5847301Y-4457187D02*
G01X5862099Y-4457187D01*
G01X5936201Y-5195923D02*
G01X5936201Y-5218077D01*
G01X5950999Y-5195923D02*
G01X5950999Y-5218077D01*
G01X5936201Y-5206487D02*
G01X5950999Y-5206487D01*
G01X1567401Y-9234523D02*
G01X1567401Y-9256677D01*
G01X1582199Y-9234523D02*
G01X1582199Y-9256677D01*
G01X1567401Y-9245087D02*
G01X1582199Y-9245087D01*
G01X1694401Y-9310723D02*
G01X1694401Y-9332877D01*
G01X1709199Y-9310723D02*
G01X1709199Y-9332877D01*
G01X1694401Y-9321287D02*
G01X1709199Y-9321287D01*
G01X1821401Y-9361523D02*
G01X1821401Y-9383677D01*
G01X1836199Y-9361523D02*
G01X1836199Y-9383677D01*
G01X1821401Y-9372087D02*
G01X1836199Y-9372087D01*
G01X1948401Y-9412323D02*
G01X1948401Y-9434477D01*
G01X1963199Y-9412323D02*
G01X1963199Y-9434477D01*
G01X1948401Y-9422887D02*
G01X1963199Y-9422887D01*
G01X2075401Y-9463123D02*
G01X2075401Y-9485277D01*
G01X2090199Y-9463123D02*
G01X2090199Y-9485277D01*
G01X2075401Y-9473687D02*
G01X2090199Y-9473687D01*
G01X4082001Y-3748123D02*
G01X4082001Y-3770277D01*
G01X4096799Y-3748123D02*
G01X4096799Y-3770277D01*
G01X4082001Y-3758687D02*
G01X4096799Y-3758687D01*
G01X1211801Y-9552023D02*
G01X1211801Y-9574177D01*
G01X1226599Y-9552023D02*
G01X1226599Y-9574177D01*
G01X1211801Y-9562587D02*
G01X1226599Y-9562587D01*
G01X4793201Y-7088223D02*
G01X4793201Y-7110377D01*
G01X4807999Y-7088223D02*
G01X4807999Y-7110377D01*
G01X4793201Y-7098787D02*
G01X4807999Y-7098787D01*
G01X1440401Y-9310723D02*
G01X1440401Y-9332877D01*
G01X1455199Y-9310723D02*
G01X1455199Y-9332877D01*
G01X1440401Y-9321287D02*
G01X1455199Y-9321287D01*
G01X1186401Y-6808823D02*
G01X1186401Y-6830977D01*
G01X1201199Y-6808823D02*
G01X1201199Y-6830977D01*
G01X1186401Y-6819387D02*
G01X1201199Y-6819387D01*
G01X1313401Y-6872323D02*
G01X1313401Y-6894477D01*
G01X1328199Y-6872323D02*
G01X1328199Y-6894477D01*
G01X1313401Y-6882887D02*
G01X1328199Y-6882887D01*
G01X4107401Y-4573623D02*
G01X4107401Y-4595777D01*
G01X4122199Y-4573623D02*
G01X4122199Y-4595777D01*
G01X4107401Y-4584187D02*
G01X4122199Y-4584187D01*
G01X1935701Y-5881723D02*
G01X1935701Y-5903877D01*
G01X1950499Y-5881723D02*
G01X1950499Y-5903877D01*
G01X1935701Y-5892287D02*
G01X1950499Y-5892287D01*
G01X3053301Y-4586323D02*
G01X3053301Y-4608477D01*
G01X3068099Y-4586323D02*
G01X3068099Y-4608477D01*
G01X3053301Y-4596887D02*
G01X3068099Y-4596887D01*
G01X3053301Y-4205323D02*
G01X3053301Y-4227477D01*
G01X3068099Y-4205323D02*
G01X3068099Y-4227477D01*
G01X3053301Y-4215887D02*
G01X3068099Y-4215887D01*
G01X3929601Y-6237323D02*
G01X3929601Y-6259477D01*
G01X3944399Y-6237323D02*
G01X3944399Y-6259477D01*
G01X3929601Y-6247887D02*
G01X3944399Y-6247887D01*
G01X4005801Y-6338923D02*
G01X4005801Y-6361077D01*
G01X4020599Y-6338923D02*
G01X4020599Y-6361077D01*
G01X4005801Y-6349487D02*
G01X4020599Y-6349487D01*
G01X2458979Y-6984994D02*
G01X2458979Y-7007149D01*
G01X2473777Y-6984994D02*
G01X2473777Y-7007149D01*
G01X2458979Y-6995558D02*
G01X2473777Y-6995558D01*
G01X4120101Y-6440523D02*
G01X4120101Y-6462677D01*
G01X4134899Y-6440523D02*
G01X4134899Y-6462677D01*
G01X4120101Y-6451087D02*
G01X4134899Y-6451087D01*
G01X4983701Y-6440523D02*
G01X4983701Y-6462677D01*
G01X4998499Y-6440523D02*
G01X4998499Y-6462677D01*
G01X4983701Y-6451087D02*
G01X4998499Y-6451087D01*
G01X2062701Y-3062323D02*
G01X2062701Y-3084477D01*
G01X2077499Y-3062323D02*
G01X2077499Y-3084477D01*
G01X2062701Y-3072887D02*
G01X2077499Y-3072887D01*
G01X1910301Y-3202023D02*
G01X1910301Y-3224177D01*
G01X1925099Y-3202023D02*
G01X1925099Y-3224177D01*
G01X1910301Y-3212587D02*
G01X1925099Y-3212587D01*
G01X1389601Y-3849723D02*
G01X1389601Y-3871877D01*
G01X1404399Y-3849723D02*
G01X1404399Y-3871877D01*
G01X1389601Y-3860287D02*
G01X1404399Y-3860287D01*
G01X1389601Y-4256123D02*
G01X1389601Y-4278277D01*
G01X1404399Y-4256123D02*
G01X1404399Y-4278277D01*
G01X1389601Y-4266687D02*
G01X1404399Y-4266687D01*
G01X1872201Y-2351123D02*
G01X1872201Y-2373277D01*
G01X1886999Y-2351123D02*
G01X1886999Y-2373277D01*
G01X1872201Y-2361687D02*
G01X1886999Y-2361687D01*
G01X1389601Y-2351123D02*
G01X1389601Y-2373277D01*
G01X1404399Y-2351123D02*
G01X1404399Y-2373277D01*
G01X1389601Y-2361687D02*
G01X1404399Y-2361687D01*
G01X1630901Y-1639923D02*
G01X1630901Y-1662077D01*
G01X1645699Y-1639923D02*
G01X1645699Y-1662077D01*
G01X1630901Y-1650487D02*
G01X1645699Y-1650487D01*
G01X1630901Y-2465423D02*
G01X1630901Y-2487577D01*
G01X1645699Y-2465423D02*
G01X1645699Y-2487577D01*
G01X1630901Y-2475987D02*
G01X1645699Y-2475987D01*
G01X1630901Y-3176623D02*
G01X1630901Y-3198777D01*
G01X1645699Y-3176623D02*
G01X1645699Y-3198777D01*
G01X1630901Y-3187187D02*
G01X1645699Y-3187187D01*
G01X1630901Y-3964023D02*
G01X1630901Y-3986177D01*
G01X1645699Y-3964023D02*
G01X1645699Y-3986177D01*
G01X1630901Y-3974587D02*
G01X1645699Y-3974587D01*
G01X1732501Y-3684623D02*
G01X1732501Y-3706777D01*
G01X1747299Y-3684623D02*
G01X1747299Y-3706777D01*
G01X1732501Y-3695187D02*
G01X1747299Y-3695187D01*
G01X4526501Y-4472023D02*
G01X4526501Y-4494177D01*
G01X4541299Y-4472023D02*
G01X4541299Y-4494177D01*
G01X4526501Y-4482587D02*
G01X4541299Y-4482587D01*
G01X3688301Y-1830423D02*
G01X3688301Y-1852577D01*
G01X3703099Y-1830423D02*
G01X3703099Y-1852577D01*
G01X3688301Y-1840987D02*
G01X3703099Y-1840987D01*
G01X2088101Y-6478623D02*
G01X2088101Y-6500777D01*
G01X2102899Y-6478623D02*
G01X2102899Y-6500777D01*
G01X2088101Y-6489187D02*
G01X2102899Y-6489187D01*
G01X2215101Y-6554823D02*
G01X2215101Y-6576977D01*
G01X2229899Y-6554823D02*
G01X2229899Y-6576977D01*
G01X2215101Y-6565387D02*
G01X2229899Y-6565387D01*
G01X3929601Y-1614523D02*
G01X3929601Y-1636677D01*
G01X3944399Y-1614523D02*
G01X3944399Y-1636677D01*
G01X3929601Y-1625087D02*
G01X3944399Y-1625087D01*
G01X3815301Y-1741523D02*
G01X3815301Y-1763677D01*
G01X3830099Y-1741523D02*
G01X3830099Y-1763677D01*
G01X3815301Y-1752087D02*
G01X3830099Y-1752087D01*
G01X932401Y-6961223D02*
G01X932401Y-6983377D01*
G01X947199Y-6961223D02*
G01X947199Y-6983377D01*
G01X932401Y-6971787D02*
G01X947199Y-6971787D01*
G01X4107401Y-4992723D02*
G01X4107401Y-5014877D01*
G01X4122199Y-4992723D02*
G01X4122199Y-5014877D01*
G01X4107401Y-5003287D02*
G01X4122199Y-5003287D01*
G01X5504401Y-7634323D02*
G01X5504401Y-7656477D01*
G01X5519199Y-7634323D02*
G01X5519199Y-7656477D01*
G01X5504401Y-7644887D02*
G01X5519199Y-7644887D01*
G01X208501Y-9831423D02*
G01X208501Y-9853577D01*
G01X223299Y-9831423D02*
G01X223299Y-9853577D01*
G01X208501Y-9841987D02*
G01X223299Y-9841987D01*
G01X94201Y-3011523D02*
G01X94201Y-3033677D01*
G01X108999Y-3011523D02*
G01X108999Y-3033677D01*
G01X94201Y-3022087D02*
G01X108999Y-3022087D01*
G01X1618201Y-7812123D02*
G01X1618201Y-7834277D01*
G01X1632999Y-7812123D02*
G01X1632999Y-7834277D01*
G01X1618201Y-7822687D02*
G01X1632999Y-7822687D01*
G01X2837401Y-7824823D02*
G01X2837401Y-7846977D01*
G01X2852199Y-7824823D02*
G01X2852199Y-7846977D01*
G01X2837401Y-7835387D02*
G01X2852199Y-7835387D01*
G01X5504401Y-9818723D02*
G01X5504401Y-9840877D01*
G01X5519199Y-9818723D02*
G01X5519199Y-9840877D01*
G01X5504401Y-9829287D02*
G01X5519199Y-9829287D01*
G01X4488401Y-9374223D02*
G01X4488401Y-9396377D01*
G01X4503199Y-9374223D02*
G01X4503199Y-9396377D01*
G01X4488401Y-9384787D02*
G01X4503199Y-9384787D01*
G01X1275301Y-1919323D02*
G01X1275301Y-1941477D01*
G01X1290099Y-1919323D02*
G01X1290099Y-1941477D01*
G01X1275301Y-1929887D02*
G01X1290099Y-1929887D01*
G01X2850101Y-2694023D02*
G01X2850101Y-2716177D01*
G01X2864899Y-2694023D02*
G01X2864899Y-2716177D01*
G01X2850101Y-2704587D02*
G01X2864899Y-2704587D01*
G01X4145501Y-2008223D02*
G01X4145501Y-2030377D01*
G01X4160299Y-2008223D02*
G01X4160299Y-2030377D01*
G01X4145501Y-2018787D02*
G01X4160299Y-2018787D01*
G04 Image End*
G04 Text End*
G04 Text End*

M02*
